<svg width="693" height="585" viewBox="0 0 693 585" fill="none" xmlns="http://www.w3.org/2000/svg">
<g clip-path="url(#clip0_360_8)">
<path d="M574.614 471.452L344.701 366.493L463.087 107.17L693 212.13L574.614 471.452Z" fill="#F2F2F2"/>
<path d="M609.638 320.8L435.587 241.343C435.26 241.193 435.005 240.919 434.879 240.582C434.753 240.244 434.766 239.87 434.916 239.542C435.065 239.214 435.339 238.959 435.677 238.833C436.014 238.707 436.388 238.721 436.716 238.87L610.767 318.328C611.095 318.478 611.349 318.751 611.475 319.089C611.601 319.427 611.588 319.8 611.438 320.128C611.289 320.456 611.015 320.711 610.677 320.837C610.34 320.963 609.966 320.95 609.638 320.8Z" fill="white"/>
<path d="M619.316 299.599L445.265 220.142C445.103 220.067 444.957 219.962 444.835 219.832C444.713 219.701 444.619 219.548 444.556 219.381C444.494 219.213 444.465 219.035 444.472 218.857C444.478 218.679 444.519 218.504 444.593 218.341C444.668 218.179 444.773 218.033 444.903 217.911C445.034 217.789 445.187 217.695 445.354 217.632C445.522 217.57 445.699 217.541 445.878 217.548C446.056 217.554 446.231 217.595 446.394 217.669L620.444 297.127C620.607 297.201 620.753 297.306 620.875 297.437C620.996 297.567 621.091 297.721 621.153 297.888C621.216 298.055 621.244 298.233 621.238 298.411C621.232 298.59 621.19 298.765 621.116 298.927C621.042 299.09 620.937 299.236 620.806 299.357C620.676 299.479 620.522 299.574 620.355 299.636C620.188 299.698 620.01 299.727 619.832 299.721C619.653 299.715 619.478 299.673 619.316 299.599Z" fill="white"/>
<path d="M628.995 278.398L454.944 198.941C454.782 198.866 454.635 198.761 454.514 198.631C454.392 198.5 454.298 198.347 454.235 198.18C454.173 198.012 454.144 197.835 454.15 197.656C454.157 197.478 454.198 197.303 454.272 197.14C454.346 196.978 454.452 196.832 454.582 196.71C454.713 196.589 454.866 196.494 455.033 196.431C455.2 196.369 455.378 196.34 455.557 196.347C455.735 196.353 455.91 196.394 456.073 196.468L630.123 275.926C630.45 276.076 630.705 276.35 630.83 276.687C630.956 277.024 630.942 277.398 630.793 277.725C630.643 278.053 630.37 278.307 630.033 278.433C629.696 278.56 629.322 278.547 628.995 278.398Z" fill="white"/>
<path d="M638.673 257.199L464.623 177.742C464.46 177.668 464.314 177.563 464.193 177.432C464.071 177.301 463.976 177.148 463.914 176.981C463.851 176.814 463.823 176.636 463.829 176.458C463.835 176.279 463.877 176.104 463.951 175.942C464.025 175.779 464.13 175.633 464.261 175.512C464.391 175.39 464.545 175.295 464.712 175.233C464.879 175.171 465.057 175.142 465.235 175.148C465.414 175.154 465.589 175.196 465.751 175.27L639.802 254.727C639.964 254.801 640.11 254.907 640.232 255.037C640.354 255.168 640.448 255.321 640.511 255.488C640.573 255.656 640.602 255.833 640.596 256.012C640.589 256.19 640.548 256.365 640.474 256.528C640.4 256.69 640.294 256.836 640.164 256.958C640.033 257.079 639.88 257.174 639.713 257.236C639.545 257.299 639.368 257.328 639.189 257.321C639.011 257.315 638.836 257.274 638.673 257.199Z" fill="white"/>
<path d="M600.891 339.96L426.84 260.502C426.678 260.428 426.532 260.323 426.41 260.192C426.289 260.062 426.194 259.908 426.132 259.741C426.069 259.574 426.04 259.396 426.047 259.218C426.053 259.04 426.094 258.864 426.169 258.702C426.243 258.54 426.348 258.393 426.479 258.272C426.609 258.15 426.763 258.056 426.93 257.993C427.097 257.931 427.275 257.902 427.453 257.908C427.631 257.915 427.807 257.956 427.969 258.03L602.02 337.488C602.347 337.637 602.602 337.911 602.728 338.249C602.854 338.586 602.841 338.96 602.691 339.288C602.542 339.616 602.268 339.871 601.93 339.997C601.593 340.123 601.219 340.109 600.891 339.96Z" fill="white"/>
<path d="M629.955 226.099L494 164.032C493.234 163.703 492.617 163.104 492.265 162.349C491.913 161.594 491.85 160.736 492.089 159.938C492.235 159.504 492.471 159.106 492.781 158.769C493.091 158.432 493.468 158.164 493.888 157.982C494.308 157.8 494.761 157.709 495.219 157.713C495.677 157.718 496.128 157.818 496.545 158.008L632.459 220.056C633.238 220.387 633.867 220.994 634.224 221.762C634.582 222.529 634.643 223.401 634.396 224.211C634.245 224.639 634.007 225.031 633.696 225.362C633.385 225.693 633.009 225.956 632.591 226.133C632.174 226.311 631.724 226.4 631.27 226.394C630.816 226.388 630.368 226.287 629.955 226.099Z" fill="white"/>
<path d="M106.833 212.13L336.746 107.17L455.132 366.493L225.219 471.452L106.833 212.13Z" fill="#F2F2F2"/>
<path d="M190.196 320.8L364.246 241.343C364.409 241.268 364.555 241.163 364.676 241.033C364.798 240.902 364.893 240.749 364.955 240.582C365.017 240.414 365.046 240.237 365.04 240.058C365.033 239.88 364.992 239.705 364.918 239.542C364.844 239.38 364.739 239.234 364.608 239.112C364.477 238.991 364.324 238.896 364.157 238.833C363.99 238.771 363.812 238.742 363.634 238.749C363.455 238.755 363.28 238.796 363.118 238.87L189.067 318.328C188.905 318.402 188.759 318.507 188.637 318.638C188.515 318.768 188.421 318.922 188.358 319.089C188.296 319.256 188.267 319.434 188.273 319.612C188.28 319.791 188.321 319.966 188.395 320.128C188.469 320.291 188.575 320.437 188.705 320.558C188.836 320.68 188.989 320.775 189.156 320.837C189.323 320.899 189.501 320.928 189.68 320.922C189.858 320.916 190.033 320.874 190.196 320.8Z" fill="white"/>
<path d="M180.517 299.599L354.568 220.142C354.895 219.992 355.15 219.718 355.276 219.381C355.402 219.043 355.389 218.669 355.239 218.341C355.09 218.013 354.816 217.758 354.478 217.632C354.141 217.506 353.767 217.52 353.439 217.669L179.388 297.127C179.226 297.201 179.08 297.306 178.958 297.437C178.837 297.567 178.742 297.721 178.679 297.888C178.617 298.055 178.588 298.233 178.595 298.411C178.601 298.59 178.642 298.765 178.716 298.927C178.791 299.09 178.896 299.236 179.027 299.357C179.157 299.479 179.31 299.574 179.478 299.636C179.645 299.698 179.823 299.727 180.001 299.721C180.179 299.715 180.355 299.673 180.517 299.599Z" fill="white"/>
<path d="M170.839 278.398L344.889 198.941C345.217 198.791 345.472 198.517 345.598 198.18C345.724 197.842 345.711 197.468 345.561 197.14C345.412 196.812 345.138 196.557 344.8 196.431C344.462 196.305 344.089 196.319 343.761 196.468L169.71 275.926C169.383 276.076 169.128 276.35 169.002 276.687C168.877 277.024 168.89 277.398 169.04 277.726C169.189 278.053 169.463 278.308 169.8 278.434C170.137 278.56 170.511 278.547 170.839 278.398Z" fill="white"/>
<path d="M161.16 257.199L335.211 177.742C335.373 177.668 335.52 177.563 335.641 177.432C335.763 177.301 335.857 177.148 335.92 176.981C335.982 176.814 336.011 176.636 336.005 176.458C335.998 176.279 335.957 176.104 335.883 175.942C335.809 175.779 335.703 175.633 335.573 175.512C335.442 175.39 335.289 175.295 335.122 175.233C334.955 175.17 334.777 175.142 334.598 175.148C334.42 175.154 334.245 175.196 334.082 175.27L160.032 254.727C159.704 254.877 159.449 255.151 159.323 255.488C159.197 255.826 159.21 256.2 159.36 256.528C159.51 256.856 159.783 257.11 160.121 257.236C160.459 257.362 160.833 257.349 161.16 257.199Z" fill="white"/>
<path d="M198.942 339.96L372.992 260.502C373.32 260.353 373.575 260.079 373.701 259.741C373.827 259.404 373.814 259.03 373.664 258.702C373.514 258.374 373.241 258.119 372.903 257.993C372.565 257.867 372.192 257.88 371.864 258.03L197.813 337.488C197.651 337.562 197.505 337.667 197.383 337.798C197.261 337.928 197.167 338.081 197.104 338.249C197.042 338.416 197.013 338.594 197.019 338.772C197.026 338.95 197.067 339.126 197.141 339.288C197.215 339.45 197.321 339.596 197.451 339.718C197.582 339.84 197.735 339.934 197.902 339.997C198.07 340.059 198.247 340.088 198.426 340.082C198.604 340.075 198.779 340.034 198.942 339.96Z" fill="white"/>
<path d="M169.877 226.099L305.833 164.032C306.598 163.703 307.215 163.104 307.568 162.349C307.92 161.594 307.982 160.736 307.743 159.938C307.597 159.504 307.362 159.106 307.052 158.769C306.742 158.432 306.365 158.164 305.945 157.982C305.525 157.8 305.071 157.709 304.614 157.713C304.156 157.718 303.704 157.818 303.288 158.008L167.374 220.056C166.595 220.387 165.966 220.994 165.608 221.762C165.25 222.529 165.189 223.401 165.437 224.211C165.587 224.639 165.826 225.031 166.136 225.362C166.447 225.693 166.823 225.956 167.241 226.133C167.659 226.311 168.109 226.4 168.563 226.394C169.017 226.388 169.464 226.287 169.877 226.099Z" fill="white"/>
<path d="M22.9832 518.334C24.4348 495.848 36.9633 473.035 57.8198 464.508C50.7876 487.981 52.2847 513.184 62.0462 535.659C65.8421 544.313 70.9653 553.543 68.4175 562.643C66.8323 568.306 62.4009 572.829 57.3234 575.794C52.2456 578.759 46.5106 580.369 40.8467 581.949L39.773 582.95C29.4448 562.924 21.5316 540.82 22.9832 518.334Z" fill="#F0F0F0"/>
<path d="M58.0563 464.919C46.4836 479.544 39.8135 497.445 38.9934 516.077C38.7456 520.085 39.1312 524.107 40.1359 527.995C41.2369 531.751 43.3236 535.143 46.1792 537.82C48.7916 540.369 51.7589 542.674 53.7062 545.813C54.679 547.435 55.2981 549.244 55.5227 551.122C55.7473 553 55.5724 554.905 55.0094 556.71C53.7238 561.246 50.8851 565.049 47.9798 568.672C44.7541 572.694 41.3398 576.821 40.1726 581.969C40.0312 582.592 39.0716 582.337 39.2128 581.714C41.2435 572.757 49.4943 567.248 53.1001 559.076C54.7826 555.262 55.3261 550.919 53.3112 547.118C51.5492 543.795 48.4913 541.415 45.8239 538.857C42.9999 536.287 40.8483 533.064 39.5569 529.471C38.3575 525.647 37.8176 521.646 37.9604 517.641C38.138 508.618 39.7331 499.68 42.6874 491.153C46.005 481.403 50.9662 472.291 57.3562 464.214C57.7519 463.714 58.4494 464.422 58.0563 464.919Z" fill="white"/>
<path d="M38.9042 510.061C35.7968 509.499 32.9903 507.851 30.9859 505.411C28.9816 502.971 27.9099 499.898 27.9623 496.74C27.9656 496.611 28.0187 496.489 28.1105 496.399C28.2024 496.308 28.3257 496.257 28.4544 496.256C28.5832 496.255 28.7075 496.304 28.801 496.392C28.8944 496.481 28.9499 496.602 28.9556 496.731C28.9014 499.671 29.9 502.533 31.7711 504.802C33.6422 507.07 36.2625 508.595 39.1592 509.102C39.7885 509.212 39.53 510.171 38.9042 510.061Z" fill="white"/>
<path d="M44.6842 536.7C50.0209 533.068 53.7927 527.558 55.2475 521.269C55.3911 520.646 56.3507 520.902 56.2073 521.524C54.6812 528.066 50.7444 533.792 45.1826 537.559C44.6522 537.918 44.1567 537.057 44.6842 536.7Z" fill="white"/>
<path d="M46.9805 482.284C48.1375 482.752 49.3927 482.926 50.6332 482.789C51.8737 482.652 53.0608 482.209 54.0879 481.5C54.6134 481.134 55.1084 481.996 54.5863 482.359C53.4479 483.137 52.1363 483.624 50.766 483.779C49.3957 483.933 48.0085 483.75 46.7255 483.244C46.6006 483.207 46.4946 483.123 46.4292 483.01C46.3637 482.898 46.3437 482.764 46.3731 482.637C46.4075 482.51 46.4906 482.402 46.6043 482.336C46.7181 482.27 46.8532 482.251 46.9805 482.284Z" fill="white"/>
<path d="M125.072 500.525C124.751 500.763 124.429 501 124.107 501.246C119.799 504.46 115.759 508.019 112.027 511.887C111.734 512.181 111.441 512.484 111.157 512.787C102.265 522.202 95.1986 533.186 90.3167 545.181C88.3784 549.956 86.8063 554.872 85.6138 559.885C83.9673 566.809 82.733 574.447 79.0052 580.252C78.6231 580.862 78.2035 581.447 77.749 582.005L41.0774 584.181C40.9916 584.144 40.9058 584.116 40.8196 584.079L39.3594 584.233C39.4028 583.97 39.4535 583.698 39.497 583.435C39.5215 583.283 39.5543 583.13 39.5788 582.977C39.5978 582.875 39.6172 582.773 39.6285 582.68C39.6347 582.646 39.6412 582.612 39.6479 582.587C39.6592 582.494 39.6796 582.408 39.6914 582.324C39.9706 580.804 40.261 579.284 40.5626 577.763C40.5621 577.755 40.5621 577.755 40.5697 577.746C42.8971 566.164 46.2119 554.674 51.1651 544.053C51.3143 543.734 51.4625 543.406 51.6284 543.085C53.8876 538.31 56.5334 533.728 59.5393 529.384C61.1928 527.01 62.9654 524.722 64.8504 522.528C69.7317 516.868 75.4728 512.011 81.8634 508.135C94.6042 500.41 109.674 496.846 123.982 500.254C124.348 500.342 124.706 500.43 125.072 500.525Z" fill="#F0F0F0"/>
<path d="M125.017 500.998C106.971 505.708 90.8685 515.984 78.9957 530.368C76.3848 533.419 74.2711 536.862 72.7325 540.571C71.3504 544.233 70.9741 548.198 71.6426 552.054C72.1937 555.662 73.1753 559.289 72.8398 562.968C72.64 564.849 72.045 566.666 71.0936 568.301C70.1423 569.936 68.8562 571.351 67.3195 572.454C63.5623 575.301 59.006 576.628 54.5052 577.772C49.508 579.041 44.2972 580.281 40.2658 583.688C39.7774 584.101 39.1653 583.319 39.653 582.907C46.667 576.978 56.5713 577.547 64.3708 573.193C68.0101 571.161 71.0592 568.02 71.7387 563.772C72.3328 560.058 71.3238 556.317 70.7342 552.669C70.0269 548.916 70.2491 545.048 71.3815 541.401C72.7263 537.626 74.7038 534.106 77.2293 530.994C82.8033 523.897 89.4584 517.721 96.9511 512.691C105.47 506.903 114.917 502.616 124.882 500.013C125.499 499.853 125.63 500.838 125.017 500.998Z" fill="white"/>
<path d="M82.5466 525.508C80.4039 523.188 79.1554 520.182 79.0242 517.027C78.893 513.872 79.8876 510.773 81.8304 508.284C82.2252 507.781 83.0244 508.371 82.629 508.874C80.8157 511.189 79.8895 514.076 80.0177 517.014C80.1458 519.952 81.3199 522.747 83.3281 524.895C83.7639 525.362 82.98 525.972 82.5466 525.508Z" fill="white"/>
<path d="M71.1222 550.259C77.5699 550.572 83.8987 548.444 88.8468 544.298C89.3367 543.887 89.949 544.669 89.4596 545.08C84.3025 549.384 77.7119 551.586 71.003 551.245C70.3636 551.212 70.4863 550.226 71.1222 550.259Z" fill="white"/>
<path d="M105.717 508.196C106.359 509.266 107.257 510.16 108.33 510.798C109.403 511.435 110.617 511.796 111.864 511.848C112.504 511.873 112.38 512.859 111.745 512.834C110.368 512.77 109.027 512.37 107.84 511.668C106.653 510.966 105.655 509.985 104.935 508.809C104.858 508.704 104.824 508.573 104.84 508.443C104.855 508.314 104.92 508.195 105.02 508.112C105.124 508.031 105.255 507.995 105.386 508.01C105.516 508.026 105.635 508.093 105.717 508.196Z" fill="white"/>
<path d="M570.974 473.634H227.186V85.869H570.974V473.634Z" fill="white"/>
<path d="M570.974 473.634H227.186V85.869H570.974V473.634ZM229.034 471.785H569.126V87.7173H229.034L229.034 471.785Z" fill="#CACACA"/>
<path d="M529.209 267.429H268.951C268.708 267.429 268.468 267.382 268.244 267.289C268.019 267.196 267.816 267.06 267.644 266.888C267.472 266.716 267.336 266.513 267.243 266.288C267.15 266.064 267.103 265.824 267.103 265.581C267.103 265.338 267.15 265.098 267.243 264.874C267.336 264.649 267.472 264.446 267.644 264.274C267.816 264.102 268.019 263.966 268.244 263.873C268.468 263.78 268.708 263.733 268.951 263.733H529.209C529.699 263.733 530.169 263.927 530.516 264.274C530.862 264.621 531.057 265.091 531.057 265.581C531.057 266.071 530.862 266.541 530.516 266.888C530.169 267.235 529.699 267.429 529.209 267.429Z" fill="#E4E4E4"/>
<path d="M529.209 235.731H268.951C268.461 235.731 267.991 235.536 267.644 235.189C267.297 234.843 267.103 234.372 267.103 233.882C267.103 233.392 267.297 232.922 267.644 232.575C267.991 232.229 268.461 232.034 268.951 232.034H529.209C529.699 232.034 530.169 232.229 530.516 232.575C530.862 232.922 531.057 233.392 531.057 233.882C531.057 234.372 530.862 234.843 530.516 235.189C530.169 235.536 529.699 235.731 529.209 235.731Z" fill="#E4E4E4"/>
<path d="M529.209 204.027H268.951C268.708 204.027 268.468 203.979 268.244 203.886C268.019 203.793 267.816 203.657 267.644 203.486C267.472 203.314 267.336 203.11 267.243 202.886C267.15 202.662 267.103 202.421 267.103 202.179C267.103 201.936 267.15 201.696 267.243 201.471C267.336 201.247 267.472 201.043 267.644 200.872C267.816 200.7 268.019 200.564 268.244 200.471C268.468 200.378 268.708 200.33 268.951 200.33H529.209C529.699 200.33 530.169 200.525 530.516 200.872C530.862 201.218 531.057 201.688 531.057 202.179C531.057 202.669 530.862 203.139 530.516 203.486C530.169 203.832 529.699 204.027 529.209 204.027Z" fill="#E4E4E4"/>
<path d="M529.209 172.326H268.951C268.461 172.326 267.991 172.131 267.644 171.785C267.297 171.438 267.103 170.968 267.103 170.478C267.103 169.987 267.297 169.517 267.644 169.171C267.991 168.824 268.461 168.629 268.951 168.629H529.209C529.699 168.629 530.169 168.824 530.516 169.171C530.862 169.517 531.057 169.987 531.057 170.478C531.057 170.968 530.862 171.438 530.516 171.785C530.169 172.131 529.699 172.326 529.209 172.326Z" fill="#E4E4E4"/>
<path d="M529.209 296.078H268.951C268.461 296.078 267.991 295.884 267.644 295.537C267.297 295.19 267.103 294.72 267.103 294.23C267.103 293.74 267.297 293.27 267.644 292.923C267.991 292.576 268.461 292.382 268.951 292.382H529.209C529.699 292.382 530.169 292.576 530.516 292.923C530.862 293.27 531.057 293.74 531.057 294.23C531.057 294.72 530.862 295.19 530.516 295.537C530.169 295.884 529.699 296.078 529.209 296.078Z" fill="#E4E4E4"/>
<path d="M529.209 438.305H268.951C268.461 438.305 267.991 438.11 267.644 437.764C267.297 437.417 267.103 436.947 267.103 436.457C267.103 435.967 267.297 435.497 267.644 435.15C267.991 434.803 268.461 434.608 268.951 434.608H529.209C529.699 434.608 530.169 434.803 530.516 435.15C530.862 435.497 531.057 435.967 531.057 436.457C531.057 436.947 530.862 437.417 530.516 437.764C530.169 438.11 529.699 438.305 529.209 438.305Z" fill="#E4E4E4"/>
<path d="M466.864 408.633H331.295C330.389 408.632 329.52 408.272 328.879 407.631C328.238 406.991 327.878 406.122 327.877 405.216V325.469C327.878 324.563 328.238 323.694 328.879 323.053C329.52 322.413 330.389 322.052 331.295 322.051H466.864C467.77 322.052 468.639 322.413 469.28 323.053C469.92 323.694 470.281 324.563 470.282 325.469V405.216C470.281 406.122 469.92 406.991 469.28 407.631C468.639 408.272 467.77 408.632 466.864 408.633Z" fill="white"/>
<path d="M421.591 363.075C420.901 362.336 420.069 361.744 419.146 361.333C418.222 360.922 417.225 360.701 416.215 360.683C415.204 360.665 414.2 360.85 413.262 361.228C412.325 361.606 411.472 362.168 410.756 362.882L372.604 401.035C371.596 402.04 370.231 402.606 368.807 402.608C367.383 402.61 366.016 402.049 365.005 401.046L359.354 395.407C358.656 394.708 357.826 394.153 356.914 393.775C356.001 393.397 355.022 393.202 354.034 393.202C353.046 393.202 352.067 393.397 351.154 393.775C350.242 394.153 349.412 394.708 348.714 395.407L337.777 406.355H460.382V404.794L421.591 363.075Z" fill="#C77DFA"/>
<path d="M466.864 408.633H331.295C330.389 408.632 329.52 408.272 328.879 407.631C328.238 406.991 327.878 406.122 327.877 405.216V325.469C327.878 324.563 328.238 323.694 328.879 323.053C329.52 322.413 330.389 322.052 331.295 322.051H466.864C467.77 322.052 468.639 322.413 469.28 323.053C469.92 323.694 470.281 324.563 470.282 325.469V405.216C470.281 406.122 469.92 406.991 469.28 407.631C468.639 408.272 467.77 408.632 466.864 408.633ZM331.295 324.33C330.993 324.33 330.703 324.45 330.49 324.664C330.276 324.877 330.156 325.167 330.155 325.469V405.216C330.156 405.518 330.276 405.807 330.49 406.021C330.703 406.235 330.993 406.355 331.295 406.355H466.864C467.166 406.355 467.456 406.235 467.669 406.021C467.883 405.807 468.003 405.518 468.003 405.216V325.469C468.003 325.167 467.883 324.877 467.669 324.664C467.456 324.45 467.166 324.33 466.864 324.33L331.295 324.33Z" fill="#3F3D56"/>
<path d="M140.03 395.305C140.374 394.093 140.448 392.821 140.247 391.577C140.045 390.334 139.574 389.15 138.866 388.108C138.157 387.067 137.229 386.193 136.147 385.549C135.064 384.905 133.854 384.506 132.6 384.381L125.497 354.599L114.609 366.201L123.024 392.703C122.953 394.823 123.661 396.895 125.016 398.527C126.37 400.158 128.276 401.237 130.372 401.558C132.468 401.878 134.609 401.419 136.389 400.266C138.169 399.114 139.465 397.348 140.03 395.305Z" fill="#FFB6B6"/>
<path d="M121.042 384.504C120.528 384.333 120.056 384.055 119.657 383.69C119.257 383.324 118.939 382.879 118.723 382.382L103.661 345.543C99.8204 336.711 99.3186 326.784 102.249 317.61L111.9 287.38C112.047 285.754 112.512 284.173 113.27 282.727C114.029 281.282 115.064 280 116.318 278.955C117.572 277.91 119.02 277.122 120.579 276.637C122.137 276.152 123.776 275.979 125.402 276.128C127.027 276.276 128.608 276.744 130.052 277.504C131.497 278.264 132.778 279.301 133.821 280.556C134.865 281.812 135.65 283.26 136.134 284.82C136.617 286.379 136.788 288.018 136.637 289.643L123.838 338.322L132.411 376.553C132.545 377.334 132.436 378.137 132.099 378.854C131.762 379.571 131.212 380.167 130.525 380.562L124.171 384.193C123.49 384.582 122.706 384.754 121.924 384.686C121.624 384.66 121.328 384.599 121.042 384.504Z" fill="#E4E4E4"/>
<path d="M174.611 573.258H185.114L190.112 532.742H174.608L174.611 573.258Z" fill="#FFB6B6"/>
<path d="M171.932 569.829L192.618 569.828H192.619C196.115 569.828 199.468 571.217 201.94 573.689C204.412 576.161 205.801 579.514 205.802 583.011V583.439L171.932 583.44L171.932 569.829Z" fill="#0D0D16"/>
<path d="M115.494 573.258H125.997L130.995 532.742H115.491L115.494 573.258Z" fill="#FFB6B6"/>
<path d="M112.813 569.829L133.5 569.828H133.5C136.997 569.828 140.35 571.217 142.822 573.689C145.294 576.161 146.683 579.514 146.683 583.011V583.439L112.814 583.44L112.813 569.829Z" fill="#0D0D16"/>
<path d="M180.935 368.899L119.336 363.479C119.336 363.479 113.25 402.314 114.107 417.736C114.963 433.158 115.82 457.148 115.82 457.148L108.966 561.675L135.526 558.248L138.953 471.713L150.091 424.59L162.943 484.565L171.511 561.675L194.644 559.105L186.933 465.715C186.933 465.715 193.787 381.751 180.935 368.899Z" fill="#0D0D16"/>
<path d="M156.089 254.946C165.553 254.946 173.224 247.274 173.224 237.81C173.224 228.347 165.553 220.675 156.089 220.675C146.625 220.675 138.953 228.347 138.953 237.81C138.953 247.274 146.625 254.946 156.089 254.946Z" fill="#FFB8B8"/>
<path d="M174.855 276.073L162.616 266.33C162.616 266.33 149.362 256.103 141.588 263.664L138.097 268.655C138.097 268.655 118.307 276.073 118.307 285.497L119.248 337.197C119.248 337.197 112.394 363.758 122.675 365.471L182.566 370.318L181.793 320.919L174.855 276.073Z" fill="#E4E4E4"/>
<path d="M142.809 252.804C142.809 252.804 124.816 239.952 134.241 224.53C140.779 213.831 154.327 214.678 162.013 216.2C164.083 216.582 166.03 217.462 167.684 218.764C169.339 220.066 170.652 221.751 171.511 223.673C172.796 226.672 172.796 229.671 167.655 229.671C157.374 229.671 162.515 237.382 162.515 237.382C162.515 237.382 155.66 239.095 157.374 245.093C159.088 251.09 142.809 252.804 142.809 252.804Z" fill="#0D0D16"/>
<path d="M236.677 366.368C236.358 365.15 235.775 364.016 234.97 363.047C234.166 362.078 233.158 361.298 232.019 360.76C230.88 360.222 229.637 359.941 228.378 359.936C227.118 359.931 225.873 360.202 224.729 360.73L203.488 338.68L199.999 354.203L220.705 372.762C221.72 374.624 223.382 376.05 225.378 376.768C227.373 377.486 229.562 377.448 231.531 376.659C233.5 375.871 235.111 374.388 236.059 372.492C237.008 370.595 237.227 368.416 236.677 366.368Z" fill="#FFB6B6"/>
<path d="M214.833 366.702C214.304 366.815 213.756 366.816 213.226 366.704C212.696 366.592 212.196 366.37 211.758 366.052L180.077 341.962C172.283 336.304 166.811 328.007 164.677 318.615L157.641 287.672C156.941 286.197 156.539 284.598 156.457 282.967C156.375 281.336 156.616 279.705 157.165 278.167C157.715 276.629 158.562 275.215 159.659 274.005C160.755 272.795 162.08 271.813 163.556 271.115C165.033 270.418 166.633 270.018 168.264 269.939C169.895 269.861 171.526 270.105 173.062 270.657C174.599 271.209 176.012 272.059 177.22 273.158C178.428 274.257 179.407 275.583 180.102 277.061L193.793 325.497L220.59 354.08C221.102 354.685 221.416 355.432 221.49 356.221C221.564 357.01 221.393 357.802 221.002 358.491L217.371 364.845C216.981 365.526 216.393 366.073 215.685 366.411C215.414 366.541 215.128 366.639 214.833 366.702Z" fill="#E4E4E4"/>
<path d="M650.002 25.8538H155.163C154.973 25.8531 154.791 25.7772 154.657 25.6426C154.523 25.5079 154.447 25.3256 154.447 25.1356C154.447 24.9455 154.523 24.7632 154.657 24.6286C154.791 24.494 154.973 24.418 155.163 24.4174H650.002C650.192 24.418 650.374 24.494 650.509 24.6286C650.643 24.7632 650.718 24.9455 650.718 25.1356C650.718 25.3256 650.643 25.5079 650.509 25.6426C650.374 25.7772 650.192 25.8531 650.002 25.8538Z" fill="#CACACA"/>
<path d="M171.328 15.8006C175.691 15.8006 179.228 12.2636 179.228 7.90046C179.228 3.53731 175.691 0.000274658 171.328 0.000274658C166.965 0.000274658 163.428 3.53731 163.428 7.90046C163.428 12.2636 166.965 15.8006 171.328 15.8006Z" fill="white"/>
<path d="M198.62 15.8006C202.983 15.8006 206.52 12.2636 206.52 7.90046C206.52 3.53731 202.983 0.000274658 198.62 0.000274658C194.257 0.000274658 190.72 3.53731 190.72 7.90046C190.72 12.2636 194.257 15.8006 198.62 15.8006Z" fill="white"/>
<path d="M225.912 15.8006C230.275 15.8006 233.812 12.2636 233.812 7.90046C233.812 3.53731 230.275 0.000274658 225.912 0.000274658C221.549 0.000274658 218.012 3.53731 218.012 7.90046C218.012 12.2636 221.549 15.8006 225.912 15.8006Z" fill="white"/>
<path d="M633.651 4.83114H614.26C613.88 4.82982 613.515 4.67791 613.247 4.40867C612.979 4.13944 612.828 3.77484 612.828 3.39474C612.828 3.01464 612.979 2.65004 613.247 2.38081C613.515 2.11157 613.88 1.95966 614.26 1.95834H633.651C634.031 1.95966 634.395 2.11157 634.663 2.38081C634.932 2.65004 635.082 3.01464 635.082 3.39474C635.082 3.77484 634.932 4.13944 634.663 4.40867C634.395 4.67791 634.031 4.82982 633.651 4.83114Z" fill="white"/>
<path d="M633.651 10.2183H614.26C613.88 10.217 613.515 10.065 613.247 9.79581C612.979 9.52657 612.828 9.16197 612.828 8.78187C612.828 8.40178 612.979 8.03717 613.247 7.76794C613.515 7.4987 613.88 7.34679 614.26 7.34547H633.651C634.031 7.34679 634.395 7.4987 634.663 7.76794C634.932 8.03717 635.082 8.40178 635.082 8.78187C635.082 9.16197 634.932 9.52657 634.663 9.79581C634.395 10.065 634.031 10.217 633.651 10.2183Z" fill="white"/>
<path d="M633.651 15.6054H614.26C613.88 15.6041 613.515 15.4522 613.247 15.1829C612.979 14.9137 612.828 14.5491 612.828 14.169C612.828 13.7889 612.979 13.4243 613.247 13.1551C613.515 12.8858 613.88 12.7339 614.26 12.7326H633.651C634.031 12.7339 634.395 12.8858 634.663 13.1551C634.932 13.4243 635.082 13.7889 635.082 14.169C635.082 14.5491 634.932 14.9137 634.663 15.1829C634.395 15.4522 634.031 15.6041 633.651 15.6054Z" fill="white"/>
<path d="M327.291 583.659H0.856782C0.629549 583.659 0.411623 583.569 0.250945 583.409C0.0902672 583.248 0 583.03 0 582.803C0 582.575 0.0902672 582.358 0.250945 582.197C0.411623 582.036 0.629549 581.946 0.856782 581.946H327.291C327.518 581.946 327.736 582.036 327.897 582.197C328.057 582.358 328.147 582.575 328.147 582.803C328.147 583.03 328.057 583.248 327.897 583.409C327.736 583.569 327.518 583.659 327.291 583.659Z" fill="#CACACA"/>
<path d="M500.854 138.768H297.56C296.427 138.793 295.325 138.4 294.462 137.665C293.6 136.93 293.038 135.903 292.883 134.781C292.819 134.161 292.886 133.536 293.079 132.944C293.272 132.352 293.587 131.807 294.004 131.345C294.421 130.882 294.93 130.513 295.499 130.26C296.068 130.007 296.684 129.876 297.306 129.876H500.539C501.69 129.846 502.811 130.242 503.687 130.99C504.563 131.737 505.132 132.782 505.283 133.923C505.338 134.538 505.265 135.158 505.067 135.743C504.87 136.328 504.553 136.866 504.136 137.322C503.719 137.777 503.212 138.141 502.647 138.39C502.082 138.639 501.472 138.768 500.854 138.768Z" fill="#C77DFA"/>
</g>
<defs>
<clipPath id="clip0_360_8">
<rect width="693" height="584.234" fill="white"/>
</clipPath>
</defs>
</svg>
