<svg width="923" height="499" viewBox="0 0 923 499" fill="none" xmlns="http://www.w3.org/2000/svg">
<g clip-path="url(#clip0_360_69)">
<path d="M58.4737 416.161L55.5942 430.608C55.3772 431.712 55.1504 432.837 54.9039 433.951C52.4971 433.452 50.0018 433.591 47.6655 434.355C49.519 437.004 51.18 439.782 52.6357 442.669C50.8212 448.26 48.1586 453.427 43.7012 457.165C40.7242 459.605 37.1685 461.238 33.3771 461.905C29.5856 462.571 25.6864 462.25 22.0553 460.971L22.1835 460.399C17.3908 451.1 19.9942 439.375 25.9506 430.785C28.9885 426.548 32.588 422.743 36.6503 419.474C40.6737 416.121 45.0227 413.114 49.3321 410.145C50.3 409.48 51.4444 409.118 52.619 409.106C53.7936 409.094 54.9452 409.432 55.9264 410.078C56.9077 410.724 57.6742 411.647 58.1279 412.731C58.5817 413.814 58.7021 415.009 58.4737 416.161Z" fill="#E4E4E4"/>
<path d="M23.0805 495.733C21.8686 486.904 20.6221 477.963 21.4721 469.039C22.2275 461.115 24.6446 453.374 29.5674 447.027C32.1803 443.665 35.3596 440.784 38.9625 438.514C39.9023 437.922 40.7661 439.41 39.8313 440C33.5976 443.94 28.776 449.757 26.0617 456.614C23.0638 464.239 22.5825 472.551 23.1032 480.65C23.4158 485.548 24.0775 490.413 24.7452 495.275C24.7989 495.495 24.7666 495.727 24.6548 495.924C24.5429 496.121 24.3601 496.267 24.1436 496.334C23.9234 496.393 23.6887 496.363 23.4904 496.251C23.2921 496.138 23.1462 495.952 23.0845 495.732L23.0805 495.733Z" fill="#F2F2F2"/>
<path d="M33.4822 52.8889C75.7261 52.1544 117.975 52.0489 160.228 52.5724C202.474 53.099 244.707 54.2574 286.926 56.0477C310.616 57.0524 334.297 58.256 357.969 59.6585C359.87 59.771 359.864 56.8122 357.969 56.7001C315.792 54.2043 273.585 52.3368 231.347 51.0977C189.115 49.8618 146.87 49.2579 104.614 49.2858C80.902 49.3016 57.1914 49.5165 33.4822 49.9305C31.5806 49.9636 31.5746 52.9221 33.4822 52.8889Z" fill="#E6E6E6"/>
<path d="M327.882 34.3407L346.354 32.9659C348.241 32.8254 348.256 29.8658 346.354 30.0074L327.882 31.3822C325.995 31.5227 325.98 34.4823 327.882 34.3407Z" fill="#E6E6E6"/>
<path d="M327.882 52.0913L346.354 50.7165C348.241 50.5761 348.256 47.6165 346.354 47.7581L327.882 49.1329C325.995 49.2733 325.98 52.2329 327.882 52.0913Z" fill="#E6E6E6"/>
<path d="M326.492 43.9852L352.755 46.3712C354.651 46.5434 354.639 43.5839 352.755 43.4127L326.492 41.0268C324.597 40.8546 324.609 43.8141 326.492 43.9852Z" fill="#E6E6E6"/>
<path d="M44.4141 30.3615C43.1295 30.3536 41.8711 30.7239 40.7955 31.4263C39.72 32.1288 38.875 33.1322 38.3659 34.3116C37.7964 35.4659 37.6205 36.7749 37.8653 38.0386C38.1101 39.3023 38.7621 40.451 39.7215 41.3091C40.6234 42.0764 41.7051 42.6025 42.8655 42.8383C44.026 43.074 45.2272 43.0117 46.3571 42.6571C47.5125 42.2536 48.5145 41.5018 49.225 40.5053C49.9355 39.5088 50.3197 38.3165 50.3247 37.0926C50.3763 35.7348 50.0084 34.394 49.2712 33.2526C48.5339 32.1112 47.463 31.2246 46.204 30.7133C45.8258 30.6105 45.4222 30.6614 45.0814 30.855C44.7405 31.0485 44.49 31.3689 44.3844 31.7464C44.2911 32.1243 44.3462 32.5236 44.5384 32.8621C44.7306 33.2006 45.0452 33.4525 45.4176 33.566C45.6754 33.6656 45.182 33.4393 45.4228 33.5704C45.5217 33.6244 45.6226 33.6731 45.7198 33.7306C45.8024 33.7796 45.8815 33.8332 45.9619 33.8856C46.238 34.0658 45.8271 33.7533 46.0035 33.9153C46.1566 34.0558 46.3083 34.1929 46.4474 34.3479C46.5 34.4066 46.7061 34.5695 46.5459 34.4556C46.4234 34.3685 46.4987 34.389 46.5459 34.4589C46.5817 34.5121 46.6196 34.5637 46.655 34.6172C46.7703 34.7917 46.8752 34.9729 46.9689 35.1599C46.9907 35.2032 47.0106 35.2474 47.0327 35.2905C47.0741 35.3712 47.1341 35.3923 47.0367 35.2912C46.9437 35.1947 47.0029 35.2013 47.0362 35.2942C47.0581 35.3553 47.082 35.4156 47.1033 35.4769C47.1727 35.6764 47.2309 35.8796 47.2777 36.0856C47.2994 36.1808 47.3168 36.2766 47.3355 36.3724C47.4015 36.7121 47.3259 36.1612 47.3418 36.4136C47.3551 36.6243 47.3707 36.8327 47.367 37.0442C47.3653 37.141 47.3611 37.2377 47.3544 37.3342C47.351 37.3824 47.3456 37.4304 47.3424 37.4786C47.3271 37.7107 47.3266 37.3938 47.3591 37.3721C47.2915 37.5691 47.2466 37.7733 47.2254 37.9805C47.1989 38.0725 47.1674 38.1625 47.138 38.2534C47.0351 38.5708 47.2346 38.0804 47.1249 38.2973C47.0346 38.4837 46.9337 38.6647 46.8227 38.8394C46.7745 38.9126 46.5928 39.0779 46.7414 38.9629C46.9026 38.838 46.6568 39.053 46.6044 39.1084C46.537 39.1794 46.4671 39.248 46.3946 39.3141C46.3482 39.3594 46.2992 39.402 46.2479 39.4416C46.2385 39.4369 46.495 39.2703 46.3568 39.3585C46.181 39.4706 46.0146 39.5905 45.8293 39.6881C45.8078 39.6995 45.571 39.8092 45.5719 39.8131C45.5617 39.7731 45.8764 39.7023 45.6604 39.7721C45.615 39.7867 45.5705 39.8044 45.5253 39.8197C45.3287 39.8859 45.128 39.9393 44.9245 39.9797C44.8779 39.989 44.8286 39.9937 44.7827 40.0056C44.6298 40.0451 44.9288 39.9824 44.9378 39.9876C44.8248 39.9827 44.7116 39.9927 44.6012 40.0174C44.3913 40.0294 44.1809 40.0294 43.971 40.0173C43.9224 40.0145 43.874 40.0097 43.8254 40.0069C43.7127 40.0003 43.63 39.9191 43.78 40.0073C43.8957 40.0753 43.8861 40.0257 43.7836 40.0067C43.7356 39.9979 43.6875 39.9904 43.6395 39.9814C43.4318 39.9425 43.2264 39.8922 43.0242 39.8307C42.9154 39.7975 42.8088 39.759 42.7014 39.7214C42.6547 39.7079 42.6091 39.6904 42.5653 39.6691C42.5647 39.6569 42.842 39.8016 42.6956 39.7227C42.5108 39.6231 42.3197 39.5396 42.1393 39.4308C42.043 39.3727 41.9505 39.3095 41.8569 39.2474C41.8158 39.2225 41.7766 39.1945 41.7399 39.1635C41.743 39.151 41.9692 39.3607 41.8504 39.2475C41.7002 39.1043 41.5396 38.9762 41.3973 38.8238C41.3648 38.7889 41.334 38.7524 41.3016 38.7175L41.2702 38.6816C41.19 38.5836 41.1885 38.5841 41.2657 38.683C41.3441 38.7061 41.3406 38.7922 41.2662 38.6804C41.2397 38.6406 41.2115 38.6019 41.185 38.5621C41.0649 38.3909 40.9625 38.208 40.8793 38.0161C40.8865 38.0105 41.0074 38.372 40.915 38.0992C40.8975 38.0476 40.8778 37.9969 40.8607 37.9453C40.8267 37.8428 40.7968 37.7392 40.771 37.6344C40.7454 37.5306 40.7323 37.4235 40.7065 37.3202C40.663 37.146 40.7319 37.4576 40.724 37.4499C40.6994 37.4255 40.7099 37.2744 40.708 37.2383C40.6962 37.0062 40.7226 36.7809 40.7268 36.5502C40.73 36.3714 40.712 36.6895 40.7083 36.6801C40.7092 36.6266 40.7186 36.5736 40.7363 36.523C40.7631 36.4013 40.788 36.2798 40.8208 36.1595C40.8583 36.0217 40.9015 35.8856 40.9504 35.7512C40.9687 35.7009 40.991 35.6514 41.008 35.6007C41.0702 35.4149 40.8847 35.825 40.987 35.6575C41.1277 35.427 41.2326 35.1777 41.382 34.9501C41.4174 34.8961 41.6326 34.5956 41.5184 34.7473C41.4046 34.8984 41.6353 34.612 41.679 34.5634C41.8605 34.3613 42.0738 34.1954 42.2617 34.002C42.3729 33.8875 42.1841 34.0584 42.1729 34.0663C42.2311 34.0248 42.2881 33.9816 42.347 33.941C42.4497 33.8703 42.5549 33.8033 42.6626 33.7403C42.784 33.6691 42.9212 33.6161 43.0388 33.5409C43.1778 33.452 42.9326 33.5799 42.9282 33.5826C42.9916 33.5511 43.058 33.5258 43.1263 33.5071C43.2409 33.4664 43.739 33.2515 43.8435 33.3187C43.8388 33.3157 43.4653 33.3488 43.7672 33.3294C43.8386 33.3248 43.9097 33.3178 43.9811 33.3149C44.1257 33.3089 44.2697 33.3125 44.4141 33.32C44.8057 33.3174 45.1804 33.1608 45.4573 32.8839C45.7341 32.6071 45.8908 32.2323 45.8934 31.8408C45.885 31.4511 45.7264 31.0797 45.4508 30.8041C45.1752 30.5285 44.8038 30.3699 44.4141 30.3615Z" fill="#E6E6E6"/>
<path d="M65.1231 30.3615C63.8385 30.3536 62.58 30.7239 61.5045 31.4263C60.429 32.1288 59.584 33.1322 59.0749 34.3116C58.5053 35.4659 58.3295 36.7749 58.5743 38.0386C58.8191 39.3023 59.4711 40.451 60.4305 41.3091C61.3324 42.0764 62.4141 42.6025 63.5745 42.8383C64.735 43.074 65.9362 43.0117 67.066 42.6571C68.2215 42.2536 69.2234 41.5018 69.934 40.5053C70.6445 39.5088 71.0287 38.3165 71.0337 37.0926C71.0853 35.7348 70.7174 34.394 69.9802 33.2526C69.2429 32.1112 68.172 31.2246 66.913 30.7133C66.5348 30.6105 66.1312 30.6614 65.7904 30.855C65.4495 31.0485 65.199 31.3689 65.0934 31.7464C65.0001 32.1243 65.0552 32.5236 65.2474 32.8621C65.4396 33.2006 65.7542 33.4525 66.1265 33.566C66.3843 33.6656 65.891 33.4393 66.1317 33.5704C66.2307 33.6244 66.3316 33.6731 66.4287 33.7306C66.5114 33.7796 66.5905 33.8332 66.6708 33.8856C66.947 34.0658 66.536 33.7533 66.7125 33.9153C66.8656 34.0558 67.0173 34.1929 67.1564 34.3479C67.209 34.4066 67.4151 34.5695 67.2549 34.4556C67.1324 34.3685 67.2077 34.389 67.2549 34.4589C67.2907 34.5121 67.3286 34.5637 67.364 34.6172C67.4793 34.7917 67.5841 34.9729 67.6779 35.1599C67.6997 35.2032 67.7195 35.2474 67.7417 35.2905C67.7831 35.3712 67.8431 35.3923 67.7457 35.2912C67.6527 35.1947 67.7119 35.2013 67.7452 35.2942C67.7671 35.3553 67.791 35.4156 67.8123 35.4769C67.8817 35.6764 67.9399 35.8796 67.9867 36.0856C68.0084 36.1808 68.0258 36.2766 68.0444 36.3724C68.1105 36.7121 68.0348 36.1612 68.0508 36.4136C68.0641 36.6243 68.0797 36.8327 68.076 37.0442C68.0743 37.141 68.0701 37.2377 68.0634 37.3342C68.06 37.3824 68.0546 37.4304 68.0514 37.4786C68.0361 37.7107 68.0356 37.3938 68.0681 37.3721C68.0005 37.5691 67.9556 37.7733 67.9344 37.9805C67.9079 38.0725 67.8764 38.1625 67.8469 38.2534C67.744 38.5708 67.9436 38.0804 67.8339 38.2973C67.7436 38.4837 67.6427 38.6647 67.5317 38.8394C67.4835 38.9126 67.3018 39.0779 67.4504 38.9629C67.6116 38.838 67.3658 39.053 67.3134 39.1084C67.246 39.1794 67.1761 39.248 67.1036 39.3141C67.0572 39.3594 67.0082 39.402 66.9569 39.4416C66.9475 39.4369 67.204 39.2703 67.0657 39.3585C66.89 39.4706 66.7236 39.5905 66.5383 39.6881C66.5167 39.6995 66.2799 39.8092 66.2809 39.8131C66.2707 39.7731 66.5854 39.7023 66.3694 39.7721C66.324 39.7867 66.2795 39.8044 66.2343 39.8197C66.0377 39.8859 65.837 39.9393 65.6334 39.9797C65.5868 39.989 65.5376 39.9937 65.4917 40.0056C65.3387 40.0451 65.6378 39.9824 65.6468 39.9876C65.5337 39.9827 65.4206 39.9927 65.3101 40.0174C65.1003 40.0294 64.8899 40.0294 64.68 40.0173C64.6314 40.0145 64.583 40.0097 64.5344 40.0069C64.4217 40.0003 64.339 39.9191 64.489 40.0073C64.6047 40.0753 64.5951 40.0257 64.4926 40.0067C64.4446 39.9979 64.3964 39.9904 64.3485 39.9814C64.1408 39.9425 63.9353 39.8922 63.7332 39.8307C63.6244 39.7975 63.5178 39.759 63.4104 39.7214C63.3637 39.7079 63.3181 39.6904 63.2743 39.6691C63.2737 39.6569 63.551 39.8016 63.4046 39.7227C63.2198 39.6231 63.0287 39.5396 62.8483 39.4308C62.752 39.3727 62.6595 39.3095 62.5659 39.2474C62.5247 39.2225 62.4856 39.1945 62.4488 39.1635C62.4519 39.151 62.6782 39.3607 62.5594 39.2475C62.4092 39.1043 62.2486 38.9762 62.1063 38.8238C62.0738 38.7889 62.043 38.7524 62.0106 38.7175L61.9792 38.6816C61.899 38.5836 61.8975 38.5841 61.9747 38.683C62.0531 38.7061 62.0496 38.7922 61.9752 38.6804C61.9487 38.6406 61.9205 38.6019 61.894 38.5621C61.7739 38.3909 61.6715 38.208 61.5883 38.0161C61.5955 38.0105 61.7164 38.372 61.6239 38.0992C61.6065 38.0476 61.5868 37.9969 61.5697 37.9453C61.5357 37.8428 61.5058 37.7392 61.48 37.6344C61.4544 37.5306 61.4413 37.4235 61.4155 37.3202C61.372 37.146 61.4409 37.4576 61.433 37.4499C61.4084 37.4255 61.4189 37.2744 61.417 37.2383C61.4052 37.0062 61.4316 36.7809 61.4357 36.5502C61.439 36.3714 61.421 36.6895 61.4172 36.6801C61.4181 36.6266 61.4276 36.5736 61.4453 36.523C61.4721 36.4013 61.497 36.2798 61.5298 36.1595C61.5673 36.0217 61.6105 35.8856 61.6594 35.7512C61.6777 35.7009 61.7 35.6514 61.717 35.6007C61.7792 35.4149 61.5937 35.825 61.696 35.6575C61.8367 35.427 61.9415 35.1777 62.091 34.9501C62.1264 34.8961 62.3416 34.5956 62.2274 34.7473C62.1136 34.8984 62.3443 34.612 62.388 34.5634C62.5694 34.3613 62.7828 34.1954 62.9707 34.002C63.0819 33.8875 62.8931 34.0584 62.8819 34.0663C62.9401 34.0248 62.9971 33.9816 63.056 33.941C63.1587 33.8703 63.2639 33.8033 63.3716 33.7403C63.493 33.6691 63.6302 33.6161 63.7478 33.5409C63.8868 33.452 63.6415 33.5799 63.6372 33.5826C63.7006 33.5511 63.767 33.5258 63.8353 33.5071C63.9499 33.4664 64.448 33.2515 64.5525 33.3187C64.5478 33.3157 64.1743 33.3488 64.4762 33.3294C64.5476 33.3248 64.6186 33.3178 64.6901 33.3149C64.8347 33.3089 64.9787 33.3125 65.1231 33.32C65.5146 33.3174 65.8894 33.1608 66.1663 32.8839C66.4431 32.6071 66.5998 32.2323 66.6023 31.8408C66.594 31.4511 66.4354 31.0797 66.1598 30.8041C65.8842 30.5285 65.5128 30.3699 65.1231 30.3615Z" fill="#E6E6E6"/>
<path d="M85.8321 30.3615C84.5475 30.3536 83.289 30.7239 82.2135 31.4263C81.138 32.1288 80.293 33.1322 79.7839 34.3116C79.2143 35.4659 79.0385 36.7749 79.2833 38.0386C79.5281 39.3023 80.1801 40.451 81.1395 41.3091C82.0414 42.0764 83.1231 42.6025 84.2835 42.8383C85.4439 43.074 86.6452 43.0117 87.775 42.6571C88.9305 42.2536 89.9324 41.5018 90.643 40.5053C91.3535 39.5088 91.7377 38.3165 91.7427 37.0926C91.7943 35.7348 91.4264 34.394 90.6891 33.2526C89.9519 32.1112 88.8809 31.2246 87.622 30.7133C87.2437 30.6105 86.8402 30.6614 86.4994 30.855C86.1585 31.0485 85.908 31.3689 85.8024 31.7464C85.7091 32.1243 85.7642 32.5236 85.9564 32.8621C86.1486 33.2006 86.4632 33.4525 86.8355 33.566C87.0933 33.6656 86.6 33.4393 86.8407 33.5704C86.9397 33.6244 87.0405 33.6731 87.1377 33.7306C87.2204 33.7796 87.2994 33.8332 87.3798 33.8856C87.6559 34.0658 87.245 33.7533 87.4215 33.9153C87.5746 34.0558 87.7262 34.1929 87.8653 34.3479C87.918 34.4066 88.124 34.5695 87.9639 34.4556C87.8413 34.3685 87.9166 34.389 87.9638 34.4589C87.9997 34.5121 88.0376 34.5637 88.073 34.6172C88.1883 34.7917 88.2931 34.9729 88.3869 35.1599C88.4087 35.2032 88.4285 35.2474 88.4506 35.2905C88.4921 35.3712 88.5521 35.3923 88.4547 35.2912C88.3617 35.1947 88.4209 35.2013 88.4542 35.2942C88.4761 35.3553 88.5 35.4156 88.5213 35.4769C88.5906 35.6764 88.6489 35.8796 88.6957 36.0856C88.7174 36.1808 88.7348 36.2766 88.7534 36.3724C88.8195 36.7121 88.7438 36.1612 88.7598 36.4136C88.7731 36.6243 88.7886 36.8327 88.785 37.0442C88.7833 37.141 88.7791 37.2377 88.7724 37.3342C88.769 37.3824 88.7636 37.4304 88.7604 37.4786C88.7451 37.7107 88.7446 37.3938 88.7771 37.3721C88.7095 37.5691 88.6646 37.7733 88.6434 37.9805C88.6169 38.0725 88.5854 38.1625 88.5559 38.2534C88.453 38.5708 88.6526 38.0804 88.5429 38.2973C88.4526 38.4837 88.3517 38.6647 88.2407 38.8394C88.1925 38.9126 88.0107 39.0779 88.1594 38.9629C88.3206 38.838 88.0748 39.053 88.0223 39.1084C87.955 39.1794 87.8851 39.248 87.8126 39.3141C87.7662 39.3594 87.7172 39.402 87.6659 39.4416C87.6564 39.4369 87.913 39.2703 87.7747 39.3585C87.599 39.4706 87.4325 39.5905 87.2473 39.6881C87.2257 39.6995 86.9889 39.8092 86.9899 39.8131C86.9797 39.7731 87.2943 39.7023 87.0784 39.7721C87.033 39.7867 86.9885 39.8044 86.9433 39.8197C86.7467 39.8859 86.5459 39.9393 86.3424 39.9797C86.2958 39.989 86.2465 39.9937 86.2006 40.0056C86.0477 40.0451 86.3468 39.9824 86.3558 39.9876C86.2427 39.9827 86.1295 39.9927 86.0191 40.0174C85.8092 40.0294 85.5988 40.0294 85.389 40.0173C85.3404 40.0145 85.292 40.0097 85.2434 40.0069C85.1307 40.0003 85.048 39.9191 85.198 40.0073C85.3137 40.0753 85.3041 40.0257 85.2016 40.0067C85.1536 39.9979 85.1054 39.9904 85.0575 39.9814C84.8498 39.9425 84.6443 39.8922 84.4421 39.8307C84.3333 39.7975 84.2267 39.759 84.1194 39.7214C84.0726 39.7079 84.0271 39.6904 83.9833 39.6691C83.9827 39.6569 84.2599 39.8016 84.1136 39.7227C83.9288 39.6231 83.7377 39.5396 83.5573 39.4308C83.461 39.3727 83.3685 39.3095 83.2749 39.2474C83.2337 39.2225 83.1946 39.1945 83.1578 39.1635C83.1609 39.151 83.3872 39.3607 83.2684 39.2475C83.1182 39.1043 82.9575 38.9762 82.8153 38.8238C82.7828 38.7889 82.752 38.7524 82.7196 38.7175L82.6882 38.6816C82.608 38.5836 82.6065 38.5841 82.6837 38.683C82.7621 38.7061 82.7585 38.7922 82.6842 38.6804C82.6576 38.6406 82.6295 38.6019 82.603 38.5621C82.4829 38.3909 82.3804 38.208 82.2973 38.0161C82.3045 38.0105 82.4254 38.372 82.3329 38.0992C82.3155 38.0476 82.2958 37.9969 82.2787 37.9453C82.2447 37.8428 82.2148 37.7392 82.1889 37.6344C82.1634 37.5306 82.1502 37.4235 82.1245 37.3202C82.081 37.146 82.1499 37.4576 82.142 37.4499C82.1174 37.4255 82.1278 37.2744 82.126 37.2383C82.1142 37.0062 82.1406 36.7809 82.1447 36.5502C82.148 36.3714 82.1299 36.6895 82.1262 36.6801C82.1271 36.6266 82.1366 36.5736 82.1543 36.523C82.1811 36.4013 82.206 36.2798 82.2388 36.1595C82.2763 36.0217 82.3195 35.8856 82.3684 35.7512C82.3867 35.7009 82.4089 35.6514 82.4259 35.6007C82.4882 35.4149 82.3027 35.825 82.405 35.6575C82.5457 35.427 82.6505 35.1777 82.7999 34.9501C82.8353 34.8961 83.0506 34.5956 82.9364 34.7473C82.8226 34.8984 83.0533 34.612 83.097 34.5634C83.2784 34.3613 83.4918 34.1954 83.6797 34.002C83.7909 33.8875 83.602 34.0584 83.5909 34.0663C83.6491 34.0248 83.7061 33.9816 83.765 33.941C83.8677 33.8703 83.9729 33.8033 84.0806 33.7403C84.202 33.6691 84.3392 33.6161 84.4568 33.5409C84.5957 33.452 84.3505 33.5799 84.3461 33.5826C84.4096 33.5511 84.476 33.5258 84.5443 33.5071C84.6588 33.4664 85.157 33.2515 85.2615 33.3187C85.2568 33.3157 84.8832 33.3488 85.1852 33.3294C85.2566 33.3248 85.3276 33.3178 85.3991 33.3149C85.5436 33.3089 85.6877 33.3125 85.8321 33.32C86.2236 33.3174 86.5984 33.1608 86.8752 32.8839C87.1521 32.6071 87.3088 32.2323 87.3113 31.8408C87.3029 31.4511 87.1444 31.0797 86.8688 30.8041C86.5932 30.5285 86.2217 30.3699 85.8321 30.3615Z" fill="#E6E6E6"/>
<path d="M385.003 357.972H22.194C17.6062 357.967 13.2078 356.142 9.9637 352.898C6.71962 349.654 4.89481 345.256 4.88965 340.668V17.3043C4.89479 12.7165 6.71957 8.31806 9.96364 5.07399C13.2077 1.82992 17.6062 0.00514457 22.194 0H385.003C389.591 0.00514458 393.989 1.82992 397.233 5.07399C400.477 8.31806 402.302 12.7165 402.307 17.3043V340.668C402.302 345.256 400.477 349.654 397.233 352.898C393.989 356.142 389.591 357.967 385.003 357.972ZM22.194 1.9723C18.1291 1.97692 14.232 3.59374 11.3577 6.46805C8.48339 9.34235 6.86657 13.2394 6.86194 17.3043V340.668C6.86668 344.733 8.48355 348.63 11.3578 351.504C14.2321 354.378 18.1292 355.995 22.194 355.999H385.003C389.068 355.995 392.965 354.378 395.839 351.504C398.713 348.63 400.33 344.733 400.335 340.668V17.3043C400.33 13.2394 398.714 9.34235 395.839 6.46805C392.965 3.59374 389.068 1.97692 385.003 1.9723H22.194Z" fill="#E6E6E6"/>
<path d="M21.5929 220.014L149.18 219.626L276.116 219.239L347.721 219.022C348.104 219.008 348.468 218.847 348.734 218.571C349.001 218.295 349.15 217.926 349.15 217.542C349.15 217.159 349.001 216.79 348.734 216.514C348.468 216.238 348.104 216.077 347.721 216.063L220.134 216.451L93.1979 216.837L21.5929 217.055C21.2095 217.069 20.8462 217.23 20.5796 217.506C20.3131 217.782 20.1641 218.151 20.1641 218.534C20.1641 218.918 20.3131 219.287 20.5796 219.563C20.8462 219.839 21.2095 220 21.5929 220.014Z" fill="#E6E6E6"/>
<path d="M85.9587 217.616L86.7476 171.033C86.7799 169.129 83.8215 169.128 83.7892 171.033L83.0003 217.616C82.968 219.52 85.9264 219.521 85.9587 217.616Z" fill="#E6E6E6"/>
<path d="M146.938 218.12L148.861 159.568L149.41 142.839C149.472 140.935 146.514 140.937 146.451 142.839L144.529 201.391L143.979 218.12C143.917 220.024 146.875 220.022 146.938 218.12Z" fill="#E6E6E6"/>
<path d="M207.752 115.083C206.592 135.822 204.447 196.993 203.287 217.731C203.181 219.633 206.139 219.627 206.245 217.731C207.405 196.993 209.551 135.822 210.711 115.083C210.817 113.181 207.858 113.187 207.752 115.083Z" fill="#E6E6E6"/>
<path d="M268.273 196.922L267.91 216.856C267.876 218.76 270.834 218.76 270.869 216.856C271.297 193.313 272.396 194.081 272.516 187.436C272.551 185.532 269.593 185.531 269.558 187.436C269.558 187.436 268.701 173.38 268.273 196.922Z" fill="#E6E6E6"/>
<path d="M327.553 144.558L327.887 200.481L327.983 216.494C327.996 216.878 328.158 217.241 328.434 217.508C328.71 217.774 329.079 217.923 329.462 217.923C329.846 217.923 330.215 217.774 330.491 217.508C330.767 217.241 330.928 216.878 330.942 216.494L330.607 160.571L330.511 144.558C330.498 144.175 330.336 143.811 330.06 143.545C329.784 143.278 329.416 143.129 329.032 143.129C328.648 143.129 328.28 143.278 328.004 143.545C327.728 143.811 327.566 144.175 327.553 144.558Z" fill="#E6E6E6"/>
<path d="M21.8308 218.351C19.382 211.622 24.9022 205.15 30.5743 202.241C37.3699 198.757 45.1873 197.967 52.0549 194.608C62.2934 189.6 69.7507 180.613 76.3864 171.617C83.2162 162.358 89.4655 152.421 98.144 144.727C102.717 140.583 108.118 137.457 113.99 135.557C121.388 133.248 129.235 133.09 136.879 134.02C152.676 135.943 167.32 142.467 182.562 146.614C196.932 150.524 212.765 152.722 226.87 146.643C234.036 143.554 239.896 138.373 246.191 133.89C252.282 129.506 259.093 126.22 266.316 124.182C280.475 120.245 295.938 121.296 309.12 127.952C321.238 133.992 330.832 144.118 336.21 156.543C342.459 171.472 341.645 188.154 339.604 203.868C339.076 207.93 338.448 211.978 337.813 216.024C337.521 217.886 340.371 218.689 340.666 216.81C343.208 200.607 345.743 183.891 342.58 167.586C339.845 153.348 332.016 140.595 320.558 131.713C309.051 122.806 294.748 118.292 280.213 118.98C272.597 119.334 265.099 121.001 258.05 123.91C250.734 126.936 244.538 131.422 238.245 136.141C231.774 140.994 225.104 145.008 217.071 146.591C209.279 148.126 201.173 147.551 193.415 146.101C177.408 143.11 162.487 136.254 146.615 132.742C131.91 129.487 116.042 129.162 102.874 137.469C92.7453 143.859 85.5879 153.78 78.719 163.359C71.9102 172.855 65.0154 183.009 55.0592 189.495C48.9858 193.452 42.1586 194.912 35.3645 197.137C28.5529 199.368 22.0137 203.132 19.2363 210.11C18.0393 212.985 17.9473 216.2 18.9781 219.138C19.624 220.913 22.4841 220.146 21.8308 218.351Z" fill="#E6E6E6"/>
<path d="M84.9776 164.591L84.9736 164.593L84.9816 164.591H84.9776Z" fill="#E6E6E6"/>
<path d="M90.1066 161.871C89.4228 160.66 88.332 159.731 87.0279 159.248C85.7238 158.765 84.2908 158.761 82.9835 159.234C82.3336 159.472 81.7379 159.837 81.2316 160.308C80.7253 160.78 80.3187 161.348 80.0358 161.979C79.9792 162.113 79.9461 162.254 79.8998 162.392C79.8357 162.495 79.7587 162.589 79.7013 162.697C79.0881 163.919 78.9202 165.317 79.2265 166.649C79.5328 167.981 80.2941 169.165 81.3793 169.996C82.4645 170.828 83.8056 171.255 85.1717 171.204C86.5378 171.153 87.8433 170.627 88.8634 169.717C89.9355 168.748 90.6436 167.441 90.8697 166.013C91.0959 164.586 90.8266 163.124 90.1066 161.871ZM86.4013 164.383C86.409 164.526 86.4135 164.458 86.4013 164.383V164.383ZM86.0247 163.527C86.0102 163.51 86.012 163.512 86.0247 163.527V163.527ZM84.3647 164.194C84.3403 164.154 84.3425 164.16 84.3647 164.194V164.194ZM84.7582 164.528C84.8148 164.553 84.8519 164.56 84.7582 164.528V164.528ZM84.9339 164.612L84.9728 164.594C84.9633 164.595 84.9537 164.593 84.9453 164.588L84.9464 164.588L84.9769 164.592L84.9826 164.589L84.965 164.585C84.9803 164.585 84.9816 164.587 84.9826 164.589C85.1586 164.509 85.0399 164.547 84.9378 164.579L84.931 164.577C84.8673 164.545 84.7988 164.523 84.7282 164.512C84.7217 164.509 84.7139 164.506 84.7085 164.502C84.6518 164.462 84.3656 164.238 84.6312 164.472C84.5734 164.421 84.5162 164.371 84.4619 164.316C84.4298 164.283 84.4008 164.248 84.3751 164.21C84.3403 164.15 84.3065 164.09 84.2737 164.029L84.2688 163.996C84.2645 163.969 84.2612 163.957 84.2576 163.941C84.2593 163.924 84.262 163.906 84.2647 163.888C84.2845 163.835 84.2971 163.779 84.3022 163.723L84.3137 163.708C84.3562 163.649 84.3933 163.58 84.4339 163.518C84.2195 163.844 84.5177 163.482 84.54 163.437C84.5438 163.429 84.5372 163.433 84.5388 163.428C84.5475 163.423 84.5449 163.426 84.5553 163.42C84.6218 163.381 84.6847 163.337 84.7522 163.3C84.8326 163.255 85.1491 163.165 84.8208 163.259C84.8954 163.238 84.967 163.211 85.0423 163.191C85.056 163.188 85.1665 163.172 85.226 163.162C85.2783 163.16 85.329 163.159 85.3344 163.159C85.3589 163.159 85.3835 163.162 85.408 163.163C85.3536 163.171 85.595 163.223 85.6667 163.234C85.677 163.242 85.6823 163.247 85.6964 163.257C85.757 163.302 85.8307 163.341 85.8947 163.382C85.6086 163.197 85.8985 163.397 85.9531 163.452C85.9858 163.484 86.0159 163.519 86.0466 163.554C86.0748 163.586 86.1003 163.621 86.1228 163.658C86.1697 163.744 86.2196 163.831 86.2689 163.916L86.2826 163.937C86.2823 163.94 86.2822 163.943 86.2822 163.946C86.3079 164.083 86.3458 164.217 86.3954 164.348C86.3979 164.359 86.3998 164.37 86.401 164.381C86.4056 164.456 86.4119 164.531 86.412 164.607L86.4114 164.622C86.1836 164.503 85.9308 164.44 85.6739 164.439C85.417 164.437 85.1634 164.496 84.9339 164.612Z" fill="#E6E6E6"/>
<path d="M84.9861 164.591C84.9905 164.592 84.9854 164.592 84.9854 164.592L84.9861 164.591Z" fill="#E6E6E6"/>
<path d="M84.986 164.591L84.9814 164.591C84.9872 164.592 84.986 164.591 84.986 164.591Z" fill="#E6E6E6"/>
<path d="M84.9834 164.591L84.9854 164.592L84.9834 164.591Z" fill="#E6E6E6"/>
<path d="M148.091 136.979L148.087 136.981L148.095 136.979H148.091Z" fill="#E6E6E6"/>
<path d="M153.221 134.259C152.537 133.048 151.446 132.119 150.142 131.636C148.838 131.153 147.405 131.149 146.098 131.623C145.448 131.86 144.852 132.225 144.346 132.696C143.84 133.168 143.433 133.736 143.15 134.367C143.093 134.501 143.06 134.642 143.014 134.78C142.95 134.883 142.873 134.977 142.816 135.085C142.202 136.307 142.034 137.705 142.341 139.037C142.647 140.369 143.408 141.553 144.494 142.384C145.579 143.216 146.92 143.643 148.286 143.592C149.652 143.541 150.958 143.015 151.978 142.105C153.05 141.136 153.758 139.829 153.984 138.401C154.21 136.974 153.941 135.512 153.221 134.259ZM149.516 136.771C149.523 136.914 149.528 136.846 149.516 136.771V136.771ZM149.139 135.915C149.124 135.898 149.126 135.9 149.139 135.915V135.915ZM147.479 136.582C147.455 136.542 147.457 136.548 147.479 136.582V136.582ZM147.872 136.916C147.929 136.941 147.966 136.948 147.872 136.916V136.916ZM148.048 137L148.087 136.982C148.078 136.983 148.068 136.981 148.059 136.976L148.061 136.976L148.091 136.98L148.097 136.977L148.079 136.973C148.094 136.973 148.096 136.975 148.097 136.977C148.273 136.897 148.154 136.935 148.052 136.967L148.045 136.965C147.982 136.933 147.913 136.911 147.842 136.9C147.836 136.897 147.828 136.894 147.823 136.89C147.766 136.85 147.48 136.626 147.745 136.861C147.688 136.81 147.63 136.759 147.576 136.704C147.544 136.671 147.515 136.636 147.489 136.598C147.454 136.538 147.421 136.478 147.388 136.417L147.383 136.384C147.379 136.357 147.375 136.345 147.372 136.329C147.374 136.312 147.376 136.294 147.379 136.276C147.399 136.223 147.411 136.167 147.416 136.111L147.428 136.097C147.47 136.037 147.508 135.968 147.548 135.906C147.334 136.232 147.632 135.87 147.654 135.825C147.658 135.817 147.651 135.821 147.653 135.816C147.662 135.811 147.659 135.814 147.67 135.808C147.736 135.769 147.799 135.725 147.866 135.688C147.947 135.643 148.263 135.554 147.935 135.647C148.01 135.626 148.081 135.599 148.157 135.579C148.17 135.576 148.281 135.56 148.34 135.55C148.392 135.548 148.443 135.547 148.449 135.547C148.473 135.547 148.498 135.55 148.522 135.551C148.468 135.559 148.709 135.611 148.781 135.622C148.791 135.63 148.797 135.635 148.811 135.645C148.871 135.69 148.945 135.729 149.009 135.77C148.723 135.586 149.013 135.785 149.067 135.84C149.1 135.872 149.13 135.907 149.161 135.942C149.189 135.974 149.215 136.009 149.237 136.046C149.284 136.132 149.334 136.219 149.383 136.304L149.397 136.325C149.397 136.328 149.396 136.331 149.396 136.334C149.422 136.471 149.46 136.606 149.51 136.736C149.512 136.747 149.514 136.758 149.515 136.769C149.52 136.844 149.526 136.919 149.526 136.995L149.526 137.01C149.298 136.891 149.045 136.828 148.788 136.827C148.531 136.825 148.278 136.884 148.048 137Z" fill="#E6E6E6"/>
<path d="M148.099 136.979L148.095 136.979C148.1 136.98 148.099 136.979 148.099 136.979Z" fill="#E6E6E6"/>
<path d="M148.097 136.977L148.099 136.978L148.097 136.977Z" fill="#E6E6E6"/>
<path d="M148.1 136.977C148.105 136.978 148.1 136.978 148.1 136.978L148.1 136.977Z" fill="#E6E6E6"/>
<path d="M209.238 150.784L209.24 150.785L209.238 150.784Z" fill="#E6E6E6"/>
<path d="M214.361 106.647C213.678 105.436 212.587 104.507 211.283 104.024C209.979 103.541 208.546 103.537 207.238 104.011C206.588 104.248 205.993 104.613 205.487 105.084C204.98 105.556 204.574 106.124 204.291 106.755C204.234 106.889 204.201 107.03 204.155 107.168C204.091 107.272 204.014 107.365 203.956 107.474C203.343 108.695 203.175 110.093 203.481 111.425C203.788 112.757 204.549 113.941 205.634 114.772C206.719 115.604 208.06 116.031 209.427 115.98C210.793 115.929 212.098 115.403 213.118 114.493C214.19 113.524 214.898 112.217 215.125 110.789C215.351 109.362 215.081 107.9 214.361 106.647ZM210.656 109.159C210.664 109.303 210.668 109.234 210.656 109.159V109.159ZM210.28 108.303C210.265 108.286 210.267 108.288 210.28 108.303V108.303ZM208.62 108.97C208.595 108.93 208.597 108.936 208.62 108.97V108.97ZM209.013 109.304C209.07 109.329 209.107 109.336 209.013 109.304V109.304ZM209.189 109.388L209.228 109.37C209.218 109.371 209.209 109.369 209.2 109.364L209.201 109.364L209.232 109.368L209.237 109.365L209.22 109.361C209.235 109.361 209.236 109.363 209.237 109.365C209.413 109.285 209.295 109.323 209.193 109.355L209.186 109.353C209.122 109.321 209.054 109.299 208.983 109.288C208.977 109.285 208.969 109.282 208.963 109.278C208.907 109.238 208.62 109.014 208.886 109.249C208.828 109.198 208.771 109.147 208.717 109.092C208.685 109.059 208.656 109.024 208.63 108.986C208.595 108.926 208.561 108.866 208.529 108.805L208.524 108.772C208.519 108.745 208.516 108.733 208.512 108.717C208.514 108.7 208.517 108.682 208.519 108.664C208.539 108.611 208.552 108.556 208.557 108.499L208.568 108.485C208.611 108.425 208.648 108.356 208.689 108.294C208.474 108.62 208.773 108.259 208.795 108.213C208.799 108.205 208.792 108.209 208.794 108.204C208.802 108.199 208.8 108.202 208.81 108.196C208.877 108.157 208.94 108.113 209.007 108.076C209.087 108.031 209.404 107.942 209.076 108.035C209.15 108.014 209.222 107.987 209.297 107.968C209.311 107.964 209.421 107.949 209.481 107.938C209.533 107.936 209.584 107.935 209.589 107.935C209.614 107.935 209.638 107.938 209.663 107.939C209.608 107.947 209.85 107.999 209.921 108.01C209.932 108.018 209.937 108.023 209.951 108.034C210.012 108.078 210.086 108.117 210.15 108.159C209.863 107.974 210.153 108.173 210.208 108.228C210.241 108.261 210.271 108.295 210.301 108.33C210.33 108.362 210.355 108.397 210.378 108.434C210.425 108.52 210.474 108.607 210.524 108.692L210.537 108.713C210.537 108.716 210.537 108.719 210.537 108.722C210.563 108.859 210.601 108.994 210.65 109.124C210.653 109.135 210.655 109.146 210.656 109.157C210.66 109.233 210.667 109.307 210.667 109.383L210.666 109.398C210.438 109.279 210.186 109.217 209.929 109.215C209.672 109.213 209.418 109.272 209.189 109.388Z" fill="#E6E6E6"/>
<path d="M209.233 150.786L209.229 150.788L209.237 150.786H209.233Z" fill="#E6E6E6"/>
<path d="M209.241 150.786L209.236 150.787C209.242 150.787 209.241 150.786 209.241 150.786Z" fill="#E6E6E6"/>
<path d="M209.241 150.784C209.245 150.785 209.24 150.785 209.24 150.785L209.241 150.784Z" fill="#E6E6E6"/>
<path d="M276.489 182.58C275.806 181.369 274.715 180.44 273.411 179.957C272.107 179.475 270.674 179.47 269.366 179.944C268.716 180.181 268.121 180.546 267.614 181.018C267.108 181.489 266.702 182.057 266.419 182.689C266.362 182.823 266.329 182.964 266.283 183.101C266.219 183.205 266.142 183.299 266.084 183.407C265.471 184.629 265.303 186.026 265.609 187.358C265.916 188.691 266.677 189.875 267.762 190.706C268.847 191.537 270.188 191.964 271.554 191.913C272.921 191.862 274.226 191.336 275.246 190.426C276.318 189.457 277.026 188.15 277.253 186.723C277.479 185.295 277.209 183.833 276.489 182.58ZM272.784 185.093C272.792 185.236 272.796 185.167 272.784 185.093V185.093ZM272.408 184.236C272.393 184.22 272.395 184.221 272.408 184.236V184.236ZM270.748 184.904C270.723 184.864 270.725 184.87 270.748 184.904V184.904ZM271.141 185.237C271.198 185.263 271.235 185.269 271.141 185.237V185.237ZM271.317 185.321L271.356 185.303C271.346 185.304 271.336 185.302 271.328 185.298L271.329 185.298L271.36 185.301L271.365 185.299L271.348 185.295C271.363 185.294 271.364 185.296 271.365 185.299C271.541 185.218 271.423 185.257 271.321 185.288L271.314 185.287C271.25 185.254 271.182 185.233 271.111 185.222C271.104 185.218 271.097 185.215 271.091 185.212C271.035 185.171 270.748 184.948 271.014 185.182C270.956 185.131 270.899 185.081 270.845 185.026C270.813 184.993 270.784 184.957 270.758 184.919C270.723 184.859 270.689 184.799 270.656 184.738L270.652 184.705C270.647 184.678 270.644 184.667 270.64 184.65C270.642 184.634 270.645 184.615 270.647 184.598C270.667 184.545 270.68 184.489 270.685 184.432L270.696 184.418C270.739 184.359 270.776 184.29 270.817 184.228C270.602 184.554 270.9 184.192 270.923 184.146C270.927 184.138 270.92 184.143 270.922 184.137C270.93 184.132 270.928 184.136 270.938 184.13C271.005 184.09 271.067 184.047 271.135 184.009C271.215 183.965 271.532 183.875 271.204 183.969C271.278 183.948 271.35 183.921 271.425 183.901C271.439 183.897 271.549 183.882 271.609 183.871C271.661 183.87 271.712 183.868 271.717 183.868C271.742 183.869 271.766 183.872 271.791 183.873C271.736 183.88 271.978 183.932 272.049 183.943C272.06 183.951 272.065 183.957 272.079 183.967C272.14 184.011 272.213 184.051 272.277 184.092C271.991 183.907 272.281 184.107 272.336 184.161C272.369 184.194 272.399 184.229 272.429 184.263C272.458 184.296 272.483 184.331 272.506 184.368C272.552 184.454 272.602 184.541 272.652 184.625L272.665 184.647C272.665 184.65 272.665 184.652 272.665 184.655C272.691 184.792 272.729 184.927 272.778 185.057C272.781 185.068 272.783 185.08 272.784 185.091C272.788 185.166 272.795 185.241 272.795 185.316L272.794 185.332C272.566 185.213 272.314 185.15 272.057 185.148C271.8 185.146 271.546 185.206 271.317 185.321Z" fill="#E6E6E6"/>
<path d="M271.359 120.215L271.355 120.217L271.363 120.215H271.359Z" fill="#E6E6E6"/>
<path d="M271.368 120.215L271.363 120.216C271.369 120.216 271.368 120.215 271.368 120.215Z" fill="#E6E6E6"/>
<path d="M271.368 120.213C271.372 120.214 271.367 120.214 271.367 120.214L271.368 120.213Z" fill="#E6E6E6"/>
<path d="M271.365 120.213L271.367 120.214L271.365 120.213Z" fill="#E6E6E6"/>
<path d="M334.672 137.218C333.988 136.007 332.897 135.077 331.593 134.595C330.289 134.112 328.856 134.107 327.549 134.581C326.899 134.819 326.303 135.184 325.797 135.655C325.291 136.126 324.884 136.695 324.601 137.326C324.545 137.46 324.511 137.601 324.465 137.739C324.401 137.842 324.324 137.936 324.267 138.044C323.654 139.266 323.486 140.663 323.792 141.996C324.098 143.328 324.86 144.512 325.945 145.343C327.03 146.175 328.371 146.602 329.737 146.55C331.103 146.499 332.409 145.974 333.429 145.064C334.501 144.094 335.209 142.787 335.435 141.36C335.661 139.933 335.392 138.471 334.672 137.218ZM330.967 139.73C330.974 139.873 330.979 139.805 330.967 139.73V139.73ZM330.59 138.874C330.576 138.857 330.577 138.859 330.59 138.874V138.874ZM328.93 139.541C328.906 139.501 328.908 139.507 328.93 139.541V139.541ZM329.324 139.875C329.38 139.9 329.417 139.907 329.324 139.875V139.875ZM329.499 139.958L329.538 139.941C329.529 139.941 329.519 139.94 329.511 139.935L329.512 139.935L329.542 139.939L329.548 139.936L329.53 139.932C329.546 139.931 329.547 139.934 329.548 139.936C329.724 139.856 329.605 139.894 329.503 139.926L329.496 139.924C329.433 139.892 329.364 139.87 329.294 139.859C329.287 139.855 329.279 139.853 329.274 139.849C329.217 139.809 328.931 139.585 329.197 139.819C329.139 139.768 329.082 139.718 329.027 139.663C328.995 139.63 328.966 139.595 328.94 139.556C328.906 139.497 328.872 139.436 328.839 139.376L328.834 139.343C328.83 139.316 328.827 139.304 328.823 139.288C328.825 139.271 328.827 139.253 328.83 139.235C328.85 139.182 328.862 139.126 328.868 139.07L328.879 139.055C328.922 138.996 328.959 138.927 328.999 138.865C328.785 139.191 329.083 138.829 329.105 138.783C329.109 138.776 329.103 138.78 329.104 138.775C329.113 138.77 329.11 138.773 329.121 138.767C329.187 138.728 329.25 138.684 329.318 138.647C329.398 138.602 329.714 138.512 329.386 138.606C329.461 138.585 329.532 138.558 329.608 138.538C329.621 138.535 329.732 138.519 329.791 138.509C329.844 138.507 329.894 138.506 329.9 138.506C329.924 138.506 329.949 138.509 329.973 138.51C329.919 138.517 330.16 138.57 330.232 138.581C330.242 138.589 330.248 138.594 330.262 138.604C330.322 138.649 330.396 138.688 330.46 138.729C330.174 138.544 330.464 138.744 330.518 138.799C330.551 138.831 330.581 138.866 330.612 138.9C330.64 138.933 330.666 138.968 330.688 139.005C330.735 139.091 330.785 139.178 330.834 139.263L330.848 139.284C330.848 139.287 330.848 139.29 330.848 139.293C330.873 139.43 330.911 139.564 330.961 139.695C330.963 139.706 330.965 139.717 330.966 139.728C330.971 139.803 330.977 139.878 330.977 139.954L330.977 139.969C330.749 139.85 330.496 139.787 330.239 139.785C329.982 139.784 329.729 139.843 329.499 139.958Z" fill="#E6E6E6"/>
<path d="M329.542 139.938L329.538 139.94L329.546 139.938H329.542Z" fill="#E6E6E6"/>
<path d="M329.548 139.935L329.55 139.936L329.548 139.935Z" fill="#E6E6E6"/>
<path d="M329.552 139.935C329.556 139.937 329.551 139.937 329.551 139.937L329.552 139.935Z" fill="#E6E6E6"/>
<path d="M329.55 139.938L329.546 139.938C329.552 139.939 329.55 139.938 329.55 139.938Z" fill="#E6E6E6"/>
<path d="M313.599 185.132L267.746 187.681C267.487 187.695 267.233 187.61 267.036 187.443C266.838 187.275 266.713 187.038 266.685 186.781C266.657 186.524 266.728 186.265 266.885 186.059C267.042 185.853 267.272 185.715 267.527 185.674L314.394 178.047L313.599 185.132Z" fill="#3F3D56"/>
<path d="M371.87 287.214L389.149 258.145L401.92 264.176C401.92 264.176 379.914 291.662 379.213 292.453C379.513 293.789 379.401 295.184 378.891 296.455C378.38 297.725 377.496 298.811 376.356 299.569C375.215 300.326 373.871 300.719 372.502 300.696C371.133 300.673 369.803 300.235 368.688 299.44C367.574 298.645 366.727 297.53 366.259 296.243C365.792 294.956 365.727 293.557 366.072 292.232C366.416 290.907 367.155 289.718 368.191 288.822C369.226 287.926 370.509 287.365 371.87 287.214Z" fill="#FFB6B6"/>
<path d="M379.057 219.686L407.052 234.292C408.801 235.552 410.269 237.164 411.36 239.023C412.451 240.883 413.142 242.95 413.389 245.092C413.636 247.234 413.433 249.404 412.794 251.463C412.154 253.522 411.092 255.425 409.675 257.051L390.376 279.189L381.969 267.796L388.449 254.247L375.901 250.938L379.057 219.686Z" fill="#7209B7"/>
<path d="M299.282 185.606L296.129 219.276L282.005 219.3C282.005 219.3 290.108 185.035 290.403 184.02C289.559 182.942 289.062 181.633 288.979 180.266C288.895 178.899 289.228 177.539 289.935 176.366C290.641 175.193 291.686 174.262 292.933 173.696C294.18 173.13 295.569 172.956 296.917 173.196C298.265 173.437 299.508 174.082 300.482 175.044C301.456 176.007 302.114 177.242 302.371 178.587C302.627 179.932 302.469 181.324 301.917 182.577C301.366 183.83 300.447 184.886 299.282 185.606Z" fill="#FFB6B6"/>
<path d="M327.396 254.462L294.888 248.5C281.199 246.854 275.581 237.847 278.051 229.062L286 200.789L298.479 207.479L298.431 222.498L315.899 220.11L327.396 254.462Z" fill="#7209B7"/>
<path d="M314.089 487.147H305.151L300.898 452.669H314.091L314.089 487.147Z" fill="#FFB6B6"/>
<path d="M314.404 496.473L286.917 496.472V496.124C286.917 493.287 288.044 490.566 290.051 488.559C292.057 486.553 294.778 485.426 297.616 485.426L302.637 481.616L312.005 485.426L314.405 485.426L314.404 496.473Z" fill="#2F2E41"/>
<path d="M377.336 487.147H386.274L390.527 452.669H377.334L377.336 487.147Z" fill="#FFB6B6"/>
<path d="M377.021 496.473L404.508 496.472V496.124C404.508 493.287 403.381 490.566 401.374 488.559C399.368 486.553 396.647 485.426 393.809 485.426L388.788 481.616L379.42 485.426L377.021 485.426L377.021 496.473Z" fill="#2F2E41"/>
<path d="M300.505 427.334C300.637 425.366 301.687 414.486 301.687 414.486L304.201 391.413L308.632 330.25L312.582 314.174L332.133 321.79L347.997 314.185L366.853 320.213L381.536 325.719C381.536 325.719 381.561 328.076 381.674 330.923C381.825 334.65 382.089 339.22 382.718 340.407C383.767 342.507 383.503 353.776 383.503 353.776C383.503 353.776 384.547 376.705 385.86 379.219C387.174 381.734 387.438 386.969 387.042 388.019C386.646 389.068 388.356 416.604 388.356 416.604C388.356 416.604 392.743 465.333 389.99 472.681C387.237 480.028 376.834 475.215 376.834 475.215C376.834 475.215 377.337 473.254 374.32 472.33C371.303 471.406 362.114 402.312 362.114 402.312C362.114 402.312 360.405 388.144 358.833 384.084C357.262 380.024 355.816 368.616 355.816 368.616C355.816 368.616 346.112 349.735 345.986 345.536C345.986 345.536 344.716 341.608 343.516 345.932C342.315 350.257 338.777 360.615 338.777 360.615L335.326 373.336L331.266 392.343L328.639 408.345C328.639 408.345 324.704 429.584 324.075 430.501C323.447 431.419 324.075 450.822 324.075 450.822C324.075 450.822 321.033 467.346 316.734 470.231C312.435 473.116 301.045 470.277 301.045 470.277C301.045 470.277 300.373 429.301 300.505 427.334Z" fill="#2F2E41"/>
<path d="M315.121 262.445L312.623 294.809L308.869 298.693C308.531 299.043 308.267 299.458 308.092 299.913C307.918 300.368 307.837 300.853 307.855 301.34C307.873 301.826 307.989 302.305 308.195 302.745C308.402 303.186 308.696 303.581 309.059 303.906L306.991 307.452L306.259 318.625C306.05 319.494 306.036 320.399 306.217 321.275C306.398 322.15 306.771 322.975 307.308 323.69C307.844 324.405 308.532 324.992 309.323 325.411C310.113 325.829 310.986 326.068 311.879 326.11L376.602 329.15C377.49 329.192 378.376 329.038 379.199 328.7C380.021 328.361 380.758 327.847 381.36 327.192C381.961 326.537 382.411 325.758 382.679 324.91C382.946 324.062 383.024 323.166 382.907 322.285L377.403 280.853V277.755L374.939 271.772L376.206 251.729L379.151 219.917L362.029 215.495L352.746 209.107L336.618 209.364L326.832 217.401L313.783 219.445L303.915 221.406L302.658 224.138L305.172 223.592L314.285 259.134L315.121 262.445Z" fill="#7209B7"/>
<path d="M344.321 204.77C354.814 204.77 363.32 196.264 363.32 185.771C363.32 175.278 354.814 166.772 344.321 166.772C333.828 166.772 325.322 175.278 325.322 185.771C325.322 196.264 333.828 204.77 344.321 204.77Z" fill="#FFB6B6"/>
<path d="M339.74 203.544L353.467 202.844C355.226 202.754 357.146 202.599 358.425 201.389C359.113 200.641 359.643 199.762 359.981 198.804C361.25 195.856 362.519 192.908 363.756 189.947C365.466 185.85 367.146 181.525 366.71 177.107C366.607 175.09 365.761 173.182 364.335 171.752C363.607 171.063 362.671 170.634 361.673 170.533C360.676 170.432 359.673 170.664 358.822 171.193C358.61 169.796 358.084 168.465 357.282 167.301C356.481 166.137 355.425 165.171 354.195 164.475C351.711 163.103 348.874 162.501 346.047 162.748C341.945 163.012 338.028 164.556 334.848 167.161C333.954 167.986 332.999 168.743 331.991 169.425C331.484 169.764 330.914 169.996 330.314 170.107C329.715 170.218 329.099 170.206 328.504 170.071C327.915 169.913 327.403 169.548 327.063 169.042C326.722 168.537 326.576 167.925 326.652 167.32C325.685 168.043 325.022 169.1 324.793 170.285C324.563 171.47 324.783 172.698 325.41 173.73C324.697 174.028 323.92 174.137 323.152 174.047C322.385 173.956 321.655 173.668 321.031 173.212C320.364 173.543 319.772 174.01 319.296 174.583C318.819 175.156 318.467 175.822 318.263 176.539C318.058 177.256 318.006 178.008 318.109 178.746C318.212 179.484 318.468 180.193 318.86 180.826C319.253 181.46 319.773 182.005 320.389 182.426C321.004 182.846 321.7 183.134 322.433 183.27C323.166 183.406 323.919 183.388 324.644 183.216C325.37 183.044 326.051 182.723 326.645 182.273C327.478 183.44 327.168 185.025 327.06 186.455C326.951 187.885 327.334 189.662 328.713 190.057C330.576 190.591 332.085 188.082 334.023 188.109C334.501 188.148 334.962 188.304 335.366 188.564C335.769 188.824 336.102 189.179 336.335 189.598C336.791 190.441 337.104 191.354 337.26 192.299L339.74 203.466" fill="#2F2E41"/>
<path d="M874.967 374.376C874.967 371.434 873.979 369.047 872.766 369.041H542.067C540.848 369.047 539.865 371.434 539.86 374.376V495.485C539.86 495.758 539.758 496.021 539.575 496.224C539.391 496.426 539.139 496.553 538.867 496.579C537.98 496.664 537.092 496.744 536.204 496.817C536.182 496.817 536.161 496.822 536.139 496.822C535.656 496.866 535.173 496.899 534.69 496.938H534.684C534.436 496.478 534.19 496.015 533.947 495.548C533.865 495.39 533.822 495.215 533.822 495.038V367.455C533.822 366.643 533.855 365.825 533.91 365.018C533.988 363.91 534.126 362.807 534.322 361.714C535.249 356.614 537.346 353.162 539.728 353.151H875.099C875.447 353.153 875.79 353.226 876.109 353.365C876.577 353.572 877 353.869 877.355 354.238C877.836 354.738 878.248 355.301 878.579 355.912C879.945 358.635 880.732 361.613 880.89 364.656C880.89 364.689 880.895 364.722 880.895 364.754C880.972 365.644 881.01 366.549 881.005 367.455L881.082 379.218L881.131 386.232L881.279 408.243L881.334 416.059L881.576 496.306C881.576 496.598 881.46 496.877 881.254 497.083C881.048 497.289 880.769 497.404 880.478 497.404H876.065C875.774 497.404 875.495 497.289 875.289 497.083C875.083 496.877 874.967 496.598 874.967 496.306V374.376Z" fill="#E6E6E6"/>
<path d="M785.105 298.113H749.472C748.967 298.114 748.484 298.315 748.128 298.672C747.772 299.028 747.573 299.512 747.573 300.016V356.307H787.008V300.016C787.008 299.766 786.959 299.519 786.864 299.288C786.768 299.057 786.628 298.847 786.451 298.67C786.274 298.493 786.065 298.353 785.834 298.258C785.603 298.162 785.355 298.113 785.105 298.113ZM767.408 330.096C766.294 330.091 765.227 329.646 764.439 328.858C763.651 328.07 763.206 327.003 763.2 325.889V319.396C763.2 318.28 763.644 317.21 764.433 316.421C765.222 315.632 766.292 315.188 767.408 315.188C768.524 315.188 769.594 315.632 770.383 316.421C771.173 317.21 771.616 318.28 771.616 319.396V325.889C771.611 327.003 771.166 328.07 770.378 328.858C769.59 329.646 768.523 330.091 767.408 330.096Z" fill="#CCCCCC"/>
<path d="M747.451 354.503V359.934C747.452 360.216 747.564 360.485 747.763 360.684C747.962 360.883 748.232 360.995 748.513 360.996H786.069C786.35 360.994 786.62 360.882 786.818 360.683C787.017 360.485 787.129 360.215 787.131 359.934V354.503H747.451Z" fill="#3F3D56"/>
<path d="M844.111 210.265H691.792C690.484 210.267 689.229 210.788 688.304 211.713C687.378 212.639 686.858 213.893 686.855 215.202V317.988C686.857 319.297 687.377 320.551 688.303 321.477C689.228 322.402 690.483 322.923 691.792 322.924H844.111C845.42 322.923 846.675 322.402 847.601 321.477C848.526 320.551 849.047 319.297 849.048 317.988V215.202C849.046 213.893 848.525 212.639 847.6 211.713C846.674 210.788 845.42 210.267 844.111 210.265Z" fill="#E6E6E6"/>
<path d="M842.84 213.829H693.065C692.364 213.83 691.693 214.11 691.198 214.606C690.703 215.102 690.425 215.774 690.425 216.474V316.712C690.426 317.412 690.705 318.083 691.199 318.578C691.694 319.073 692.365 319.351 693.065 319.352H842.84C843.54 319.351 844.211 319.073 844.706 318.578C845.2 318.083 845.479 317.412 845.48 316.712V216.474C845.48 215.774 845.202 215.102 844.707 214.606C844.212 214.11 843.541 213.83 842.84 213.829Z" fill="white"/>
<path d="M813.666 362.887H724.558C724.314 362.887 724.073 362.833 723.853 362.728C723.633 362.623 723.439 362.47 723.285 362.281C723.132 362.091 723.022 361.87 722.965 361.633C722.908 361.396 722.904 361.149 722.954 360.91L724.337 354.343C724.415 353.976 724.617 353.647 724.909 353.41C725.201 353.173 725.565 353.043 725.941 353.042H812.284C812.659 353.043 813.023 353.173 813.315 353.41C813.607 353.647 813.809 353.976 813.888 354.343L815.27 360.91C815.32 361.149 815.317 361.396 815.26 361.633C815.202 361.87 815.093 362.091 814.939 362.281C814.785 362.47 814.591 362.623 814.371 362.728C814.151 362.833 813.91 362.887 813.666 362.887Z" fill="#CCCCCC"/>
<path d="M728.836 354.226H727.055C726.789 354.226 726.573 354.441 726.573 354.707V355.391C726.573 355.657 726.789 355.872 727.055 355.872H728.836C729.102 355.872 729.318 355.657 729.318 355.391V354.707C729.318 354.441 729.102 354.226 728.836 354.226Z" fill="#E6E6E6"/>
<path d="M734.326 354.226H732.544C732.278 354.226 732.062 354.441 732.062 354.707V355.391C732.062 355.657 732.278 355.872 732.544 355.872H734.326C734.591 355.872 734.807 355.657 734.807 355.391V354.707C734.807 354.441 734.591 354.226 734.326 354.226Z" fill="#E6E6E6"/>
<path d="M739.814 354.226H738.032C737.766 354.226 737.551 354.441 737.551 354.707V355.391C737.551 355.657 737.766 355.872 738.032 355.872H739.814C740.08 355.872 740.295 355.657 740.295 355.391V354.707C740.295 354.441 740.08 354.226 739.814 354.226Z" fill="#E6E6E6"/>
<path d="M745.303 354.226H743.521C743.256 354.226 743.04 354.441 743.04 354.707V355.391C743.04 355.657 743.256 355.872 743.521 355.872H745.303C745.569 355.872 745.784 355.657 745.784 355.391V354.707C745.784 354.441 745.569 354.226 745.303 354.226Z" fill="#E6E6E6"/>
<path d="M750.791 354.226H749.01C748.744 354.226 748.528 354.441 748.528 354.707V355.391C748.528 355.657 748.744 355.872 749.01 355.872H750.791C751.057 355.872 751.273 355.657 751.273 355.391V354.707C751.273 354.441 751.057 354.226 750.791 354.226Z" fill="#E6E6E6"/>
<path d="M756.281 354.226H754.499C754.233 354.226 754.018 354.441 754.018 354.707V355.391C754.018 355.657 754.233 355.872 754.499 355.872H756.281C756.546 355.872 756.762 355.657 756.762 355.391V354.707C756.762 354.441 756.546 354.226 756.281 354.226Z" fill="#E6E6E6"/>
<path d="M761.77 354.226H759.988C759.722 354.226 759.507 354.441 759.507 354.707V355.391C759.507 355.657 759.722 355.872 759.988 355.872H761.77C762.036 355.872 762.251 355.657 762.251 355.391V354.707C762.251 354.441 762.036 354.226 761.77 354.226Z" fill="#E6E6E6"/>
<path d="M767.258 354.226H765.477C765.211 354.226 764.995 354.441 764.995 354.707V355.391C764.995 355.657 765.211 355.872 765.477 355.872H767.258C767.524 355.872 767.74 355.657 767.74 355.391V354.707C767.74 354.441 767.524 354.226 767.258 354.226Z" fill="#E6E6E6"/>
<path d="M772.747 354.226H770.966C770.7 354.226 770.484 354.441 770.484 354.707V355.391C770.484 355.657 770.7 355.872 770.966 355.872H772.747C773.013 355.872 773.229 355.657 773.229 355.391V354.707C773.229 354.441 773.013 354.226 772.747 354.226Z" fill="#E6E6E6"/>
<path d="M778.236 354.226H776.454C776.188 354.226 775.973 354.441 775.973 354.707V355.391C775.973 355.657 776.188 355.872 776.454 355.872H778.236C778.502 355.872 778.717 355.657 778.717 355.391V354.707C778.717 354.441 778.502 354.226 778.236 354.226Z" fill="#E6E6E6"/>
<path d="M783.725 354.226H781.943C781.677 354.226 781.462 354.441 781.462 354.707V355.391C781.462 355.657 781.677 355.872 781.943 355.872H783.725C783.991 355.872 784.206 355.657 784.206 355.391V354.707C784.206 354.441 783.991 354.226 783.725 354.226Z" fill="#E6E6E6"/>
<path d="M789.214 354.226H787.433C787.167 354.226 786.951 354.441 786.951 354.707V355.391C786.951 355.657 787.167 355.872 787.433 355.872H789.214C789.48 355.872 789.696 355.657 789.696 355.391V354.707C789.696 354.441 789.48 354.226 789.214 354.226Z" fill="#E6E6E6"/>
<path d="M794.702 354.226H792.921C792.655 354.226 792.439 354.441 792.439 354.707V355.391C792.439 355.657 792.655 355.872 792.921 355.872H794.702C794.968 355.872 795.184 355.657 795.184 355.391V354.707C795.184 354.441 794.968 354.226 794.702 354.226Z" fill="#E6E6E6"/>
<path d="M800.192 354.226H798.41C798.144 354.226 797.929 354.441 797.929 354.707V355.391C797.929 355.657 798.144 355.872 798.41 355.872H800.192C800.458 355.872 800.673 355.657 800.673 355.391V354.707C800.673 354.441 800.458 354.226 800.192 354.226Z" fill="#E6E6E6"/>
<path d="M805.681 354.226H803.899C803.634 354.226 803.418 354.441 803.418 354.707V355.391C803.418 355.657 803.634 355.872 803.899 355.872H805.681C805.947 355.872 806.162 355.657 806.162 355.391V354.707C806.162 354.441 805.947 354.226 805.681 354.226Z" fill="#E6E6E6"/>
<path d="M811.169 354.226H809.388C809.122 354.226 808.906 354.441 808.906 354.707V355.391C808.906 355.657 809.122 355.872 809.388 355.872H811.169C811.435 355.872 811.651 355.657 811.651 355.391V354.707C811.651 354.441 811.435 354.226 811.169 354.226Z" fill="#E6E6E6"/>
<path d="M728.772 356.969H726.99C726.724 356.969 726.509 357.184 726.509 357.45V358.134C726.509 358.4 726.724 358.615 726.99 358.615H728.772C729.038 358.615 729.253 358.4 729.253 358.134V357.45C729.253 357.184 729.038 356.969 728.772 356.969Z" fill="#E6E6E6"/>
<path d="M734.26 356.969H732.479C732.213 356.969 731.997 357.184 731.997 357.45V358.134C731.997 358.4 732.213 358.615 732.479 358.615H734.26C734.526 358.615 734.742 358.4 734.742 358.134V357.45C734.742 357.184 734.526 356.969 734.26 356.969Z" fill="#E6E6E6"/>
<path d="M739.749 356.969H737.968C737.702 356.969 737.486 357.184 737.486 357.45V358.134C737.486 358.4 737.702 358.615 737.968 358.615H739.749C740.015 358.615 740.231 358.4 740.231 358.134V357.45C740.231 357.184 740.015 356.969 739.749 356.969Z" fill="#E6E6E6"/>
<path d="M745.238 356.969H743.456C743.19 356.969 742.975 357.184 742.975 357.45V358.134C742.975 358.4 743.19 358.615 743.456 358.615H745.238C745.504 358.615 745.719 358.4 745.719 358.134V357.45C745.719 357.184 745.504 356.969 745.238 356.969Z" fill="#E6E6E6"/>
<path d="M750.727 356.969H748.945C748.679 356.969 748.464 357.184 748.464 357.45V358.134C748.464 358.4 748.679 358.615 748.945 358.615H750.727C750.993 358.615 751.208 358.4 751.208 358.134V357.45C751.208 357.184 750.993 356.969 750.727 356.969Z" fill="#E6E6E6"/>
<path d="M756.215 356.969H754.434C754.168 356.969 753.952 357.184 753.952 357.45V358.134C753.952 358.4 754.168 358.615 754.434 358.615H756.215C756.481 358.615 756.697 358.4 756.697 358.134V357.45C756.697 357.184 756.481 356.969 756.215 356.969Z" fill="#E6E6E6"/>
<path d="M761.704 356.969H759.923C759.657 356.969 759.441 357.184 759.441 357.45V358.134C759.441 358.4 759.657 358.615 759.923 358.615H761.704C761.97 358.615 762.186 358.4 762.186 358.134V357.45C762.186 357.184 761.97 356.969 761.704 356.969Z" fill="#E6E6E6"/>
<path d="M767.194 356.969H765.412C765.146 356.969 764.931 357.184 764.931 357.45V358.134C764.931 358.4 765.146 358.615 765.412 358.615H767.194C767.46 358.615 767.675 358.4 767.675 358.134V357.45C767.675 357.184 767.46 356.969 767.194 356.969Z" fill="#E6E6E6"/>
<path d="M772.682 356.969H770.9C770.635 356.969 770.419 357.184 770.419 357.45V358.134C770.419 358.4 770.635 358.615 770.9 358.615H772.682C772.948 358.615 773.163 358.4 773.163 358.134V357.45C773.163 357.184 772.948 356.969 772.682 356.969Z" fill="#E6E6E6"/>
<path d="M778.171 356.969H776.39C776.124 356.969 775.908 357.184 775.908 357.45V358.134C775.908 358.4 776.124 358.615 776.39 358.615H778.171C778.437 358.615 778.653 358.4 778.653 358.134V357.45C778.653 357.184 778.437 356.969 778.171 356.969Z" fill="#E6E6E6"/>
<path d="M783.66 356.969H781.879C781.613 356.969 781.397 357.184 781.397 357.45V358.134C781.397 358.4 781.613 358.615 781.879 358.615H783.66C783.926 358.615 784.142 358.4 784.142 358.134V357.45C784.142 357.184 783.926 356.969 783.66 356.969Z" fill="#E6E6E6"/>
<path d="M789.149 356.969H787.367C787.101 356.969 786.886 357.184 786.886 357.45V358.134C786.886 358.4 787.101 358.615 787.367 358.615H789.149C789.415 358.615 789.63 358.4 789.63 358.134V357.45C789.63 357.184 789.415 356.969 789.149 356.969Z" fill="#E6E6E6"/>
<path d="M794.638 356.969H792.856C792.591 356.969 792.375 357.184 792.375 357.45V358.134C792.375 358.4 792.591 358.615 792.856 358.615H794.638C794.904 358.615 795.119 358.4 795.119 358.134V357.45C795.119 357.184 794.904 356.969 794.638 356.969Z" fill="#E6E6E6"/>
<path d="M800.127 356.969H798.346C798.08 356.969 797.864 357.184 797.864 357.45V358.134C797.864 358.4 798.08 358.615 798.346 358.615H800.127C800.393 358.615 800.609 358.4 800.609 358.134V357.45C800.609 357.184 800.393 356.969 800.127 356.969Z" fill="#E6E6E6"/>
<path d="M805.616 356.969H803.834C803.568 356.969 803.353 357.184 803.353 357.45V358.134C803.353 358.4 803.568 358.615 803.834 358.615H805.616C805.881 358.615 806.097 358.4 806.097 358.134V357.45C806.097 357.184 805.881 356.969 805.616 356.969Z" fill="#E6E6E6"/>
<path d="M811.105 356.969H809.323C809.057 356.969 808.842 357.184 808.842 357.45V358.134C808.842 358.4 809.057 358.615 809.323 358.615H811.105C811.371 358.615 811.586 358.4 811.586 358.134V357.45C811.586 357.184 811.371 356.969 811.105 356.969Z" fill="#E6E6E6"/>
<path d="M774.33 360.263H753.337C753.071 360.263 752.855 360.478 752.855 360.744V361.428C752.855 361.694 753.071 361.909 753.337 361.909H774.33C774.595 361.909 774.811 361.694 774.811 361.428V360.744C774.811 360.478 774.595 360.263 774.33 360.263Z" fill="#E6E6E6"/>
<path d="M835.31 227.642H695.166C695.02 227.638 694.882 227.578 694.78 227.474C694.678 227.37 694.621 227.23 694.621 227.084C694.621 226.939 694.678 226.799 694.78 226.695C694.882 226.59 695.02 226.53 695.166 226.527H835.31C835.456 226.53 835.594 226.59 835.696 226.695C835.798 226.799 835.855 226.939 835.855 227.084C835.855 227.23 835.798 227.37 835.696 227.474C835.594 227.578 835.456 227.638 835.31 227.642Z" fill="#CACACA"/>
<path d="M704.707 223.679C706.51 223.679 707.973 222.184 707.973 220.34C707.973 218.496 706.51 217.001 704.707 217.001C702.903 217.001 701.44 218.496 701.44 220.34C701.44 222.184 702.903 223.679 704.707 223.679Z" fill="#CCCCCC"/>
<path d="M715.99 223.679C717.794 223.679 719.256 222.184 719.256 220.34C719.256 218.496 717.794 217.001 715.99 217.001C714.186 217.001 712.724 218.496 712.724 220.34C712.724 222.184 714.186 223.679 715.99 223.679Z" fill="#CCCCCC"/>
<path d="M727.272 223.679C729.076 223.679 730.538 222.184 730.538 220.34C730.538 218.496 729.076 217.001 727.272 217.001C725.468 217.001 724.006 218.496 724.006 220.34C724.006 222.184 725.468 223.679 727.272 223.679Z" fill="#CCCCCC"/>
<path d="M828.517 217.83H820.502C820.343 217.833 820.192 217.898 820.081 218.012C819.97 218.125 819.907 218.278 819.907 218.437C819.907 218.596 819.97 218.748 820.081 218.862C820.192 218.975 820.343 219.041 820.502 219.044H828.517C828.676 219.041 828.827 218.975 828.939 218.862C829.05 218.748 829.112 218.596 829.112 218.437C829.112 218.278 829.05 218.125 828.939 218.012C828.827 217.898 828.676 217.833 828.517 217.83Z" fill="#CCCCCC"/>
<path d="M828.518 220.109H820.503C820.344 220.113 820.193 220.178 820.082 220.291C819.97 220.405 819.908 220.557 819.908 220.716C819.908 220.875 819.97 221.028 820.082 221.141C820.193 221.255 820.344 221.32 820.503 221.323H828.518C828.677 221.32 828.828 221.255 828.939 221.141C829.05 221.028 829.113 220.875 829.113 220.716C829.113 220.557 829.05 220.405 828.939 220.291C828.828 220.178 828.677 220.113 828.518 220.109Z" fill="#CCCCCC"/>
<path d="M828.517 222.382H820.502C820.343 222.386 820.192 222.451 820.081 222.564C819.97 222.678 819.907 222.83 819.907 222.989C819.907 223.148 819.97 223.301 820.081 223.414C820.192 223.528 820.343 223.593 820.502 223.596H828.517C828.676 223.593 828.827 223.528 828.939 223.414C829.05 223.301 829.112 223.148 829.112 222.989C829.112 222.83 829.05 222.678 828.939 222.564C828.827 222.451 828.676 222.386 828.517 222.382Z" fill="#CCCCCC"/>
<path d="M776.553 258.004H759.042C757.726 258.004 756.66 259.07 756.66 260.385C756.66 261.7 757.726 262.767 759.042 262.767H776.553C777.869 262.767 778.935 261.7 778.935 260.385C778.935 259.07 777.869 258.004 776.553 258.004Z" fill="#7209B7"/>
<path d="M787.866 267.531H747.729C746.414 267.531 745.348 268.598 745.348 269.913C745.348 271.228 746.414 272.295 747.729 272.295H787.866C789.182 272.295 790.248 271.228 790.248 269.913C790.248 268.598 789.182 267.531 787.866 267.531Z" fill="#E6E6E6"/>
<path d="M787.866 277.057H747.729C746.414 277.057 745.348 278.124 745.348 279.439C745.348 280.754 746.414 281.821 747.729 281.821H787.866C789.182 281.821 790.248 280.754 790.248 279.439C790.248 278.124 789.182 277.057 787.866 277.057Z" fill="#E6E6E6"/>
<path d="M517.457 425.471L509.385 421.609L520.474 387.866L532.389 393.564L517.457 425.471Z" fill="#FFB6B6"/>
<path d="M571.579 420.031C570.992 420.399 570.405 420.761 569.812 421.122C568.632 421.846 567.44 422.557 566.249 423.257C565.65 423.607 565.045 423.957 564.446 424.301V424.318L564.41 424.324L564.398 424.33L563.485 424.556L562.175 421.093L561.57 419.498L560.716 417.238L559.151 413.105L550.908 391.343L563.722 388.182L564.203 390.145H564.209L564.446 391.118L568.923 409.275L569.836 412.987L569.866 413.099L570.417 415.317L570.892 417.238L571.419 419.385L571.579 420.031Z" fill="#FFB6B6"/>
<path d="M648.022 343.605C647.21 344.91 646.38 346.208 645.544 347.495C643.99 349.891 642.395 352.251 640.758 354.575C640.758 354.581 640.752 354.581 640.747 354.587C639.792 355.472 638.737 356.242 637.604 356.882C637.556 356.918 637.503 356.941 637.456 356.971C636.621 357.432 635.733 357.789 634.811 358.032C634.479 358.115 634.141 358.198 633.809 358.281C632.611 358.566 631.425 358.809 630.245 359.023C628.146 359.396 626.07 359.663 624.007 359.829C623.841 359.847 623.675 359.859 623.509 359.871C615.023 360.493 606.763 359.491 598.141 357.849C593.883 357.042 589.537 356.076 585.036 355.073C583.565 354.741 582.089 354.415 580.595 354.089C580.482 354.065 580.363 354.036 580.245 354.012C578.11 353.544 575.94 353.081 573.716 352.624C570.917 352.049 568.029 351.492 565.029 350.964L565.242 355.192C565.42 358.444 566.096 361.65 567.247 364.698C568.528 368.445 569.542 371.41 567.401 377.583L566.369 380.572C566.904 382.056 567.088 383.644 566.905 385.21C566.723 386.777 566.18 388.281 565.32 389.603L565.112 389.917L573.716 411.685L574.274 413.097H569.868L564.448 413.102H555.263L542.01 386.513L541.375 385.244V385.179L542.745 334.082C542.763 333.631 542.798 333.175 542.857 332.724C543.099 330.675 543.746 328.695 544.761 326.899C545.776 325.103 547.139 323.528 548.769 322.264C550.332 321.043 552.122 320.145 554.034 319.621C555.947 319.098 557.945 318.96 559.912 319.216L564.448 319.803L573.716 321.001L580.245 321.849L580.375 321.867L599.629 324.357L601.011 318.724L601.266 318.629L609.372 315.658L637.408 305.382L637.479 305.358L639.323 304.682L639.543 305.038C639.608 305.145 639.673 305.251 639.732 305.358C641.555 308.626 643.039 312.071 644.162 315.64C646.05 321.471 647.604 327.405 648.817 333.412C648.87 333.673 648.918 333.91 648.959 334.124L648.977 334.189C648.995 334.29 649.007 334.355 649.013 334.373C649.568 337.482 649.225 340.685 648.022 343.605Z" fill="#2F2E41"/>
<path d="M649.205 324.775C649.117 324.395 649.004 324.01 648.885 323.636C647.944 320.807 646.847 318.031 645.6 315.323C644.201 312.239 642.523 308.936 640.524 305.361C639.558 303.629 638.518 301.828 637.405 299.959C636.848 299.022 636.269 298.067 635.668 297.094C635.644 297.05 635.619 297.006 635.591 296.964L635.419 296.679L607.679 300.391L597.349 301.773L596.733 306.92L596.585 308.195C596.579 308.195 596.579 308.195 596.585 308.201L596.169 311.676V311.682L595.618 316.271L595.57 316.266L580.242 314.279L564.445 312.233L555.96 311.136C553.993 310.88 551.995 311.018 550.082 311.541C548.169 312.064 546.38 312.963 544.817 314.184C543.187 315.448 541.825 317.024 540.81 318.82C539.795 320.616 539.147 322.596 538.905 324.644C538.852 325.059 538.817 325.486 538.799 325.907L530.793 344.877C526.003 356.222 522.953 368.224 521.745 380.479L515.874 399.247L516.71 399.324L529.151 400.481L532.436 400.789L539.67 390.228C540.495 389.024 541.277 387.785 542.007 386.516C543.208 384.443 544.275 382.296 545.203 380.088L560.852 342.849C562.061 343.056 563.259 343.254 564.445 343.442C569.93 344.331 575.196 345.057 580.242 345.618C596.65 347.45 610.857 347.593 623.506 346.039C627.058 345.606 630.491 345.037 633.806 344.331C635.021 344.076 636.221 343.802 637.405 343.507C637.684 343.442 637.957 343.377 638.229 343.305C640.68 342.673 642.933 341.437 644.782 339.709C646.631 337.981 648.018 335.817 648.814 333.415C649.765 330.631 649.901 327.633 649.205 324.775Z" fill="#2F2E41"/>
<path d="M520.036 419.96L511.302 415.773L509.932 415.115L507.744 420.487L492.469 423.85C491.713 424.015 491.031 424.418 490.521 424.999C490.011 425.58 489.7 426.309 489.633 427.08C489.567 427.85 489.749 428.621 490.152 429.281C490.556 429.941 491.16 430.454 491.876 430.746L506.801 436.836L511.539 432.572L510.377 438.295L515.998 440.589L522.159 420.98L520.036 419.96Z" fill="#2F2E41"/>
<path d="M573.715 411.686L574.273 413.097H573.715V411.686Z" fill="#2F2E41"/>
<path d="M570.674 413.397L561.522 416.568L560.085 417.064L562.311 422.421L553.822 435.558C553.402 436.207 553.2 436.974 553.247 437.746C553.293 438.518 553.585 439.254 554.08 439.848C554.575 440.442 555.247 440.863 555.998 441.047C556.749 441.232 557.539 441.172 558.253 440.876L573.144 434.702L573.51 428.338L576.711 433.222L582.32 430.898L572.9 412.628L570.674 413.397Z" fill="#2F2E41"/>
<path d="M515.124 217.197C515.558 218.043 516.172 218.783 516.923 219.365C517.674 219.948 518.544 220.358 519.47 220.568C520.397 220.779 521.359 220.783 522.287 220.581C523.216 220.379 524.089 219.976 524.845 219.401L544.091 232.177L544.127 220.173L525.846 209.881C524.795 208.675 523.337 207.896 521.751 207.693C520.164 207.489 518.557 207.875 517.236 208.777C515.914 209.679 514.969 211.034 514.58 212.586C514.191 214.138 514.385 215.779 515.124 217.197Z" fill="#FFB6B6"/>
<path d="M529.502 222.747L538.481 212.532L575.042 234.236L623.507 229.798C625.902 229.579 628.317 229.89 630.579 230.708C632.841 231.527 634.895 232.834 636.595 234.536C638.295 236.238 639.6 238.293 640.417 240.556C641.233 242.818 641.542 245.233 641.32 247.629C640.915 251.955 638.81 255.943 635.467 258.72C632.125 261.496 627.818 262.833 623.491 262.437L568.907 257.385L529.502 222.747Z" fill="#CCCCCC"/>
<path d="M641.988 222.903L641.904 222.797C635.086 222.124 628.22 223.444 622.137 226.596C616.054 229.748 611.016 234.596 607.634 240.554L603.52 247.8C590.216 264.064 599.884 275.281 600.463 276.949L595.845 298.241L596.88 305.367L597.397 307.484L650.11 335.028C653.111 320.608 650.21 308.32 639.276 298.934L649.855 266.018C652.2 258.74 652.709 250.995 651.337 243.472C649.964 235.95 646.753 228.884 641.988 222.903Z" fill="#CCCCCC"/>
<path d="M600.075 382.816H583.166C582.236 382.815 581.338 382.479 580.636 381.869C579.934 381.259 579.475 380.416 579.345 379.495C578.301 371.812 578.301 364.024 579.345 356.341C579.474 355.431 579.923 354.597 580.611 353.989C581.3 353.38 582.183 353.037 583.101 353.021C588.421 350.636 594.151 350.637 600.133 353.021C600.69 353.028 601.239 353.157 601.741 353.399C602.243 353.641 602.686 353.99 603.038 354.422C603.406 354.871 603.669 355.396 603.809 355.959C603.948 356.522 603.96 357.109 603.844 357.678C602.486 364.437 602.486 371.399 603.844 378.158C603.96 378.727 603.948 379.314 603.809 379.877C603.669 380.44 603.406 380.965 603.038 381.414C602.679 381.853 602.227 382.207 601.715 382.449C601.202 382.692 600.642 382.817 600.075 382.816Z" fill="#7209B7"/>
<path d="M598.304 361.847H584.072C583.955 361.848 583.838 361.826 583.729 361.782C583.621 361.738 583.522 361.672 583.438 361.59C583.355 361.507 583.288 361.408 583.243 361.3C583.198 361.192 583.175 361.075 583.175 360.958C583.175 360.84 583.198 360.724 583.243 360.616C583.288 360.507 583.355 360.409 583.438 360.326C583.522 360.243 583.621 360.178 583.729 360.134C583.838 360.09 583.955 360.067 584.072 360.068H598.304C598.421 360.067 598.538 360.09 598.646 360.134C598.755 360.178 598.854 360.243 598.938 360.326C599.021 360.409 599.087 360.507 599.133 360.616C599.178 360.724 599.201 360.84 599.201 360.958C599.201 361.075 599.178 361.192 599.133 361.3C599.087 361.408 599.021 361.507 598.938 361.59C598.854 361.672 598.755 361.738 598.646 361.782C598.538 361.826 598.421 361.848 598.304 361.847Z" fill="white"/>
<path d="M598.304 368.961H584.072C583.955 368.962 583.838 368.94 583.729 368.896C583.621 368.852 583.522 368.786 583.438 368.704C583.355 368.621 583.288 368.522 583.243 368.414C583.198 368.306 583.175 368.189 583.175 368.072C583.175 367.954 583.198 367.838 583.243 367.73C583.288 367.621 583.355 367.523 583.438 367.44C583.522 367.357 583.621 367.292 583.729 367.248C583.838 367.204 583.955 367.181 584.072 367.182H598.304C598.421 367.181 598.538 367.204 598.646 367.248C598.755 367.292 598.854 367.357 598.938 367.44C599.021 367.523 599.087 367.621 599.133 367.73C599.178 367.838 599.201 367.954 599.201 368.072C599.201 368.189 599.178 368.306 599.133 368.414C599.087 368.522 599.021 368.621 598.938 368.704C598.854 368.786 598.755 368.852 598.646 368.896C598.538 368.94 598.421 368.962 598.304 368.961Z" fill="white"/>
<path d="M598.304 376.08H584.073C583.955 376.081 583.839 376.058 583.73 376.014C583.621 375.97 583.522 375.905 583.438 375.822C583.355 375.739 583.289 375.641 583.243 375.532C583.198 375.424 583.175 375.308 583.175 375.19C583.175 375.073 583.198 374.956 583.243 374.848C583.289 374.739 583.355 374.641 583.438 374.558C583.522 374.475 583.621 374.41 583.73 374.366C583.839 374.322 583.955 374.299 584.073 374.301H598.304C598.422 374.299 598.538 374.322 598.647 374.366C598.756 374.41 598.855 374.475 598.939 374.558C599.022 374.641 599.088 374.739 599.134 374.848C599.179 374.956 599.202 375.073 599.202 375.19C599.202 375.308 599.179 375.424 599.134 375.532C599.088 375.641 599.022 375.739 598.939 375.822C598.855 375.905 598.756 375.97 598.647 376.014C598.538 376.058 598.422 376.081 598.304 376.08Z" fill="white"/>
<path d="M518.224 223.059H501.316C500.386 223.059 499.487 222.722 498.785 222.112C498.083 221.502 497.625 220.66 497.494 219.739C496.45 212.056 496.45 204.267 497.494 196.585C497.623 195.675 498.072 194.841 498.761 194.232C499.449 193.624 500.332 193.281 501.251 193.265C506.571 190.88 512.3 190.88 518.282 193.264C518.84 193.272 519.388 193.401 519.89 193.643C520.392 193.885 520.835 194.234 521.188 194.666C521.555 195.114 521.819 195.639 521.958 196.203C522.097 196.766 522.11 197.353 521.994 197.921C520.636 204.681 520.636 211.643 521.994 218.402C522.11 218.971 522.097 219.558 521.958 220.121C521.819 220.684 521.555 221.209 521.188 221.658C520.829 222.097 520.377 222.451 519.864 222.693C519.351 222.935 518.791 223.061 518.224 223.059Z" fill="#7209B7"/>
<path d="M516.453 202.091H502.222C502.104 202.092 501.988 202.07 501.879 202.026C501.77 201.981 501.671 201.916 501.587 201.833C501.504 201.751 501.438 201.652 501.393 201.544C501.347 201.435 501.324 201.319 501.324 201.202C501.324 201.084 501.347 200.968 501.393 200.859C501.438 200.751 501.504 200.653 501.587 200.57C501.671 200.487 501.77 200.422 501.879 200.378C501.988 200.333 502.104 200.311 502.222 200.312H516.453C516.57 200.311 516.687 200.333 516.796 200.378C516.905 200.422 517.004 200.487 517.087 200.57C517.17 200.653 517.237 200.751 517.282 200.859C517.327 200.968 517.35 201.084 517.35 201.202C517.35 201.319 517.327 201.435 517.282 201.544C517.237 201.652 517.17 201.751 517.087 201.833C517.004 201.916 516.905 201.981 516.796 202.026C516.687 202.07 516.57 202.092 516.453 202.091Z" fill="white"/>
<path d="M516.453 209.207H502.222C502.104 209.208 501.988 209.186 501.879 209.142C501.77 209.098 501.671 209.032 501.587 208.949C501.504 208.867 501.438 208.768 501.393 208.66C501.347 208.552 501.324 208.435 501.324 208.318C501.324 208.2 501.347 208.084 501.393 207.976C501.438 207.867 501.504 207.769 501.587 207.686C501.671 207.603 501.77 207.538 501.879 207.494C501.988 207.449 502.104 207.427 502.222 207.428H516.453C516.57 207.427 516.687 207.449 516.796 207.494C516.905 207.538 517.004 207.603 517.087 207.686C517.17 207.769 517.237 207.867 517.282 207.976C517.327 208.084 517.35 208.2 517.35 208.318C517.35 208.435 517.327 208.552 517.282 208.66C517.237 208.768 517.17 208.867 517.087 208.949C517.004 209.032 516.905 209.098 516.796 209.142C516.687 209.186 516.57 209.208 516.453 209.207Z" fill="white"/>
<path d="M516.454 216.323H502.222C502.105 216.324 501.988 216.302 501.879 216.258C501.77 216.214 501.671 216.148 501.588 216.066C501.504 215.983 501.438 215.885 501.393 215.776C501.347 215.668 501.324 215.551 501.324 215.434C501.324 215.316 501.347 215.2 501.393 215.092C501.438 214.983 501.504 214.885 501.588 214.802C501.671 214.719 501.77 214.654 501.879 214.61C501.988 214.565 502.105 214.543 502.222 214.544H516.454C516.571 214.543 516.688 214.565 516.797 214.61C516.905 214.654 517.004 214.719 517.088 214.802C517.171 214.885 517.238 214.983 517.283 215.092C517.328 215.2 517.351 215.316 517.351 215.434C517.351 215.551 517.328 215.668 517.283 215.776C517.238 215.885 517.171 215.983 517.088 216.066C517.004 216.148 516.905 216.214 516.797 216.258C516.688 216.302 516.571 216.324 516.454 216.323Z" fill="white"/>
<path d="M221.393 266.45H204.485C203.555 266.449 202.656 266.113 201.954 265.503C201.252 264.893 200.794 264.051 200.663 263.13C199.619 255.447 199.619 247.658 200.663 239.975C200.792 239.066 201.241 238.232 201.93 237.623C202.618 237.015 203.501 236.672 204.42 236.656C209.74 234.271 215.469 234.271 221.451 236.655C222.009 236.663 222.557 236.792 223.059 237.034C223.561 237.276 224.004 237.625 224.357 238.056C224.724 238.505 224.987 239.03 225.127 239.593C225.266 240.157 225.279 240.744 225.163 241.312C223.804 248.072 223.804 255.034 225.163 261.793C225.279 262.361 225.266 262.949 225.127 263.512C224.987 264.075 224.724 264.6 224.357 265.049C223.998 265.488 223.546 265.841 223.033 266.084C222.52 266.326 221.96 266.451 221.393 266.45Z" fill="#7209B7"/>
<path d="M219.623 245.482H205.391C205.274 245.483 205.157 245.461 205.049 245.417C204.94 245.372 204.841 245.307 204.757 245.224C204.674 245.142 204.608 245.043 204.563 244.935C204.517 244.826 204.494 244.71 204.494 244.592C204.494 244.475 204.517 244.359 204.563 244.25C204.608 244.142 204.674 244.043 204.757 243.961C204.841 243.878 204.94 243.813 205.049 243.768C205.157 243.724 205.274 243.702 205.391 243.703H219.623C219.74 243.702 219.857 243.724 219.966 243.768C220.075 243.813 220.174 243.878 220.257 243.961C220.34 244.043 220.407 244.142 220.452 244.25C220.497 244.359 220.52 244.475 220.52 244.592C220.52 244.71 220.497 244.826 220.452 244.935C220.407 245.043 220.34 245.142 220.257 245.224C220.174 245.307 220.075 245.372 219.966 245.417C219.857 245.461 219.74 245.483 219.623 245.482Z" fill="white"/>
<path d="M219.623 252.596H205.391C205.274 252.597 205.157 252.575 205.049 252.53C204.94 252.486 204.841 252.421 204.757 252.338C204.674 252.255 204.608 252.157 204.563 252.049C204.517 251.94 204.494 251.824 204.494 251.706C204.494 251.589 204.517 251.473 204.563 251.364C204.608 251.256 204.674 251.157 204.757 251.075C204.841 250.992 204.94 250.927 205.049 250.882C205.157 250.838 205.274 250.816 205.391 250.817H219.623C219.74 250.816 219.857 250.838 219.966 250.882C220.075 250.927 220.174 250.992 220.257 251.075C220.34 251.157 220.407 251.256 220.452 251.364C220.497 251.473 220.52 251.589 220.52 251.706C220.52 251.824 220.497 251.94 220.452 252.049C220.407 252.157 220.34 252.255 220.257 252.338C220.174 252.421 220.075 252.486 219.966 252.53C219.857 252.575 219.74 252.597 219.623 252.596Z" fill="white"/>
<path d="M219.623 259.714H205.391C205.274 259.715 205.157 259.693 205.048 259.649C204.939 259.605 204.84 259.539 204.757 259.457C204.673 259.374 204.607 259.275 204.562 259.167C204.516 259.059 204.493 258.942 204.493 258.825C204.493 258.707 204.516 258.591 204.562 258.482C204.607 258.374 204.673 258.275 204.757 258.193C204.84 258.11 204.939 258.045 205.048 258.001C205.157 257.956 205.274 257.934 205.391 257.935H219.623C219.74 257.934 219.857 257.956 219.965 258.001C220.074 258.045 220.173 258.11 220.257 258.193C220.34 258.275 220.407 258.374 220.452 258.482C220.497 258.591 220.52 258.707 220.52 258.825C220.52 258.942 220.497 259.059 220.452 259.167C220.407 259.275 220.34 259.374 220.257 259.457C220.173 259.539 220.074 259.605 219.965 259.649C219.857 259.693 219.74 259.715 219.623 259.714Z" fill="white"/>
<path d="M605.029 361.198C605.847 360.715 606.549 360.058 607.086 359.274C607.623 358.49 607.981 357.598 608.136 356.66C608.291 355.722 608.238 354.762 607.982 353.847C607.725 352.932 607.271 352.085 606.652 351.364L618.263 331.395L606.278 332.07L597.089 350.93C595.948 352.051 595.257 353.552 595.148 355.148C595.039 356.744 595.519 358.325 596.498 359.591C597.477 360.856 598.886 361.719 600.458 362.015C602.03 362.312 603.656 362.021 605.029 361.198Z" fill="#FFB6B6"/>
<path d="M609.714 346.518L598.984 338.161L618.482 300.377L611.176 252.261C610.815 249.882 610.982 247.454 611.665 245.147C612.348 242.841 613.531 240.713 615.129 238.914C616.727 237.116 618.701 235.692 620.911 234.743C623.122 233.793 625.514 233.342 627.918 233.421C632.261 233.569 636.367 235.433 639.337 238.605C642.306 241.777 643.896 245.998 643.758 250.341L641.953 305.128L609.714 346.518Z" fill="#CCCCCC"/>
<path d="M91.1055 336.196C91.7814 335.517 92.3 334.697 92.625 333.796C92.95 332.895 93.0733 331.933 92.9865 330.979C92.8996 330.024 92.6045 329.101 92.122 328.273C91.6396 327.445 90.9815 326.733 90.1941 326.187L100.63 274.355L89.1055 278.055L80.7525 328.19C79.9229 329.573 79.6297 331.213 79.9284 332.798C80.2271 334.384 81.0969 335.804 82.373 336.791C83.6491 337.778 85.2429 338.262 86.8524 338.153C88.4618 338.043 89.9752 337.347 91.1055 336.196Z" fill="#9E616A"/>
<path d="M106.515 226.53L99.3645 221.133C99.3645 221.133 93.057 220.686 91.9399 232.061C90.8228 243.436 88.5289 265.604 88.5289 265.604L77.5879 316.278L92.7333 319.603L104.452 264.916L111.482 248.676L106.515 226.53Z" fill="#CCCCCC"/>
<path d="M94.7266 309.277L135.018 308.606L138.375 281.074H94.7266V309.277Z" fill="#9E616A"/>
<path d="M130.988 478.702H140.29L144.714 442.825L130.986 442.826L130.988 478.702Z" fill="#9E616A"/>
<path d="M72.7168 479.563L82.0181 479.497L86.1915 443.59L74.0944 446.365L72.7168 479.563Z" fill="#9E616A"/>
<path d="M101.808 257.364L99.7002 262.843L100.121 268.323L141.369 282.609L139.323 258.628L134.686 253.148L101.808 257.364Z" fill="#FFB6B6"/>
<path d="M119.503 208.052C127.64 208.052 134.235 201.456 134.235 193.32C134.235 185.184 127.64 178.588 119.503 178.588C111.367 178.588 104.771 185.184 104.771 193.32C104.771 201.456 111.367 208.052 119.503 208.052Z" fill="#9E616A"/>
<path d="M128.681 474.113L143.385 473.236V479.535L157.364 489.19C158.054 489.667 158.574 490.352 158.848 491.145C159.122 491.938 159.135 492.798 158.885 493.599C158.635 494.4 158.136 495.1 157.46 495.598C156.784 496.095 155.967 496.363 155.128 496.363H137.623L134.605 490.132L133.427 496.363H126.827L128.681 474.113Z" fill="#2F2E41"/>
<path d="M69.5351 474.998L84.2322 474.018L84.2763 480.317L98.3227 489.873C99.0165 490.345 99.5413 491.027 99.8205 491.818C100.1 492.609 100.119 493.469 99.8745 494.272C99.6304 495.075 99.1361 495.779 98.4637 496.28C97.7913 496.782 96.976 497.056 96.137 497.062L78.6322 497.185L75.5714 490.975L74.4369 497.214L67.8369 497.26L69.5351 474.998Z" fill="#2F2E41"/>
<path d="M69.8225 452.057L76.5954 397.919L84.6536 340.84C78.7524 329.881 92.0403 295.848 92.0403 295.848L93.916 295.938L136.37 303.947L136.361 303.907C145.044 327.59 147.921 339.29 147.445 364.51L145.734 455.172H146.271C147.161 455.172 148.015 455.525 148.645 456.155C149.275 456.785 149.628 457.639 149.628 458.529C149.628 459.42 149.275 460.274 148.645 460.903C148.015 461.533 147.161 461.887 146.271 461.887H129.483C129.041 461.888 128.604 461.801 128.196 461.633C127.788 461.464 127.417 461.217 127.105 460.905C126.792 460.594 126.545 460.223 126.376 459.815C126.206 459.408 126.119 458.971 126.119 458.529C126.119 458.088 126.206 457.651 126.376 457.243C126.545 456.835 126.792 456.465 127.105 456.153C127.417 455.841 127.788 455.594 128.196 455.426C128.604 455.257 129.041 455.171 129.483 455.172H129.916L114.506 347.221L101.442 392.547L86.6682 451.641C92.0403 450.298 91.2062 453.409 91.2062 455.172C91.2062 456.062 90.8525 456.916 90.2228 457.546C89.5931 458.175 88.7391 458.529 87.8486 458.529H71.0607C70.2799 458.53 69.5233 458.258 68.9212 457.761C68.3192 457.264 67.9096 456.572 67.7629 455.805C67.6162 455.038 67.7416 454.244 68.1176 453.56C68.4936 452.876 69.0965 452.344 69.8225 452.057Z" fill="#2F2E41"/>
<path d="M88.7344 297.611L90.0774 284.18C90.2169 283.632 90.5263 283.143 90.9612 282.781C91.3961 282.42 91.9341 282.206 92.4983 282.169C93.0579 275.771 95.4123 248.171 95.553 246.967L95.5585 246.916L96.629 224.046C96.6679 223.215 97.0114 222.428 97.5939 221.835C98.1764 221.241 98.9571 220.883 99.7869 220.829L105.442 220.46C105.519 220.457 105.593 220.424 105.647 220.369C105.701 220.313 105.731 220.238 105.731 220.161C105.731 219.536 105.854 218.918 106.093 218.341C106.332 217.764 106.682 217.24 107.124 216.798C107.565 216.357 108.089 216.006 108.666 215.767C109.243 215.528 109.862 215.405 110.486 215.405H127.228C128.312 215.406 129.359 215.802 130.172 216.52C130.985 217.237 131.508 218.227 131.643 219.303C131.651 219.377 131.686 219.445 131.742 219.495C131.797 219.544 131.87 219.57 131.944 219.569H131.946C133.849 219.529 135.702 220.174 137.17 221.384C138.638 222.594 139.623 224.291 139.948 226.166C142.236 239.483 146.823 269.707 144.556 286.51C143.766 292.359 145.468 287.726 145.766 292.621C145.796 293.094 145.732 293.568 145.578 294.016C145.424 294.464 145.184 294.878 144.87 295.233C145.512 295.466 146.037 295.944 146.33 296.562C146.622 297.18 146.659 297.889 146.433 298.534L146.727 298.461C146.641 298.803 146.488 299.125 146.278 299.408C146.067 299.691 145.803 299.93 145.5 300.11C145.197 300.291 144.862 300.411 144.513 300.462C144.164 300.513 143.808 300.495 143.466 300.409L99.6655 306.344C98.227 305.981 88.3718 299.049 88.7344 297.611Z" fill="#CCCCCC"/>
<path d="M205.775 243.006C205.5 243.925 205.028 244.771 204.391 245.487C203.754 246.203 202.968 246.77 202.088 247.149C201.208 247.528 200.255 247.71 199.298 247.681C198.34 247.652 197.4 247.413 196.545 246.982L179.612 262.435L177.363 250.543L193.798 237.729C194.618 236.34 195.919 235.3 197.455 234.806C198.991 234.312 200.654 234.398 202.131 235.048C203.607 235.699 204.793 236.868 205.465 238.335C206.136 239.802 206.247 241.464 205.775 243.006Z" fill="#9E616A"/>
<path d="M146.838 231.194C146.838 231.194 140.934 217.851 133.477 220.503C126.019 223.155 129.87 236.102 129.87 236.102L157.887 278.32C157.887 278.32 198.299 252.397 193.385 252.214C188.471 252.031 187.001 243.093 187.001 243.093L165.642 253.765L164.92 249.966L163.762 251.124L160.773 248.772L146.838 231.194Z" fill="#CCCCCC"/>
<path d="M629.835 216.536C641.195 216.536 650.403 207.328 650.403 195.968C650.403 184.609 641.195 175.401 629.835 175.401C618.476 175.401 609.268 184.609 609.268 195.968C609.268 207.328 618.476 216.536 629.835 216.536Z" fill="#FFB6B6"/>
<path d="M695.845 226.233C693.471 229.597 690.007 232.036 686.04 233.136C684.453 233.609 682.814 233.887 681.159 233.965C680.955 232.095 680.465 230.266 679.708 228.543C679.785 230.377 679.53 232.21 678.955 233.953C676.471 233.812 674.042 233.161 671.819 232.041C669.637 230.943 667.74 229.351 666.279 227.392C664.819 225.433 663.835 223.161 663.406 220.756C662.535 215.13 665.085 209.606 666.008 203.988C666.934 198.371 665.195 191.257 659.697 189.78C655.509 188.655 655.979 189.142 652.497 191.726C656.119 197.08 642.743 216.701 637.27 214.99C634.175 214.023 632.194 211.183 631.555 211.183C627.254 218.594 635.354 231.081 627.19 233.674L627.863 233.001C632.79 226.94 622.491 214.11 627.419 208.049C628.793 206.353 630.257 204.344 629.851 202.199C629.466 200.16 626.23 199.082 625.282 200.757C626.987 196.853 624.47 191.641 620.304 190.639C616.603 189.746 616.67 190.846 612.957 191.324C612.714 189.719 612.26 188.153 611.607 186.667C611.675 188.268 611.488 189.87 611.053 191.413C609.741 191.387 608.474 190.929 607.449 190.11C604.421 187.67 605.034 182.543 607.737 179.747C610.444 176.951 614.467 175.944 618.303 175.293C619.418 167.527 640.846 166.716 643.687 174.477C644.896 168.682 652.151 165.674 657.789 167.472C663.427 169.27 667.34 174.536 669.4 180.085C671.46 185.631 672.035 191.599 673.304 197.377C674.573 203.155 676.718 209.039 681.134 212.977C685.55 216.911 692.745 218.213 697.397 214.559C698.074 216.49 698.286 218.553 698.016 220.582C697.746 222.61 697.003 224.546 695.845 226.233Z" fill="#2F2E41"/>
<path d="M888.811 273.17L885.931 287.617C885.714 288.722 885.487 289.846 885.241 290.961C882.834 290.462 880.339 290.601 878.002 291.365C879.856 294.013 881.517 296.792 882.973 299.678C881.158 305.27 878.496 310.437 874.038 314.174C871.061 316.615 867.505 318.248 863.714 318.914C859.923 319.581 856.023 319.26 852.392 317.981L852.52 317.409C847.728 308.11 850.331 296.384 856.287 287.795C859.325 283.558 862.925 279.752 866.987 276.484C871.011 273.131 875.36 270.123 879.669 267.155C880.637 266.489 881.781 266.127 882.956 266.115C884.131 266.103 885.282 266.442 886.263 267.088C887.245 267.733 888.011 268.657 888.465 269.74C888.919 270.824 889.039 272.018 888.811 273.17Z" fill="#E4E4E4"/>
<path d="M853.417 352.741C852.205 343.912 850.959 334.97 851.809 326.047C852.564 318.122 854.981 310.382 859.904 304.035C862.517 300.672 865.696 297.791 869.299 295.521C870.239 294.93 871.103 296.418 870.168 297.008C863.934 300.947 859.113 306.765 856.399 313.621C853.401 321.246 852.919 329.558 853.44 337.658C853.753 342.556 854.414 347.42 855.082 352.282C855.136 352.502 855.103 352.734 854.992 352.931C854.88 353.128 854.697 353.275 854.481 353.341C854.26 353.401 854.026 353.371 853.827 353.258C853.629 353.146 853.483 352.959 853.421 352.74L853.417 352.741Z" fill="#F2F2F2"/>
<path d="M921.99 497.992L1.17372 498.295C0.862899 498.294 0.565119 498.17 0.34565 497.95C0.126181 497.73 0.00292969 497.432 0.00292969 497.121C0.00292969 496.81 0.126181 496.512 0.34565 496.292C0.565119 496.072 0.862899 495.948 1.17372 495.947L921.99 495.644C922.3 495.644 922.598 495.769 922.818 495.989C923.037 496.209 923.16 496.507 923.16 496.818C923.16 497.129 923.037 497.427 922.818 497.647C922.598 497.867 922.3 497.991 921.99 497.992Z" fill="#CACACA"/>
<path d="M102.164 184.299C99.905 185.383 97.3758 183.752 95.4251 182.135L96.1229 182.738C92.6753 186.092 91.0635 190.918 90.2759 195.669C89.4875 200.414 89.3996 205.267 88.407 209.979C87.4135 214.686 85.3529 219.415 81.5037 222.298C76.3472 226.159 69.2352 225.911 62.9071 224.728C62.8228 224.71 62.7442 224.698 62.6599 224.68C64.3626 219.764 65.0547 214.555 64.6948 209.364C62.9986 214.566 60.1109 219.299 56.2619 223.187C52.0663 222.032 47.971 220.54 44.0162 218.724C41.4573 217.547 38.7019 215.936 37.9917 213.209C37.2797 210.503 38.9331 207.664 41.1439 205.955C43.3547 204.246 46.0681 203.355 48.5867 202.137C51.1011 200.926 53.5894 199.198 54.5962 196.59C56.9183 190.59 50.3033 183.706 52.8813 177.808C54.1526 174.908 57.2665 173.33 60.1932 172.114C64.6612 170.262 69.2493 168.715 73.926 167.482C78.0315 166.399 82.3183 165.557 86.5006 166.267C90.6829 166.977 94.7803 169.521 96.2855 173.493C98.7971 174.342 101.464 175.298 103.075 177.412C104.687 179.522 104.557 183.152 102.164 184.299Z" fill="#2F2E41"/>
<path d="M122.269 177.346C115.805 172.244 110.579 173.115 106.548 176.285C105.87 175.531 102.986 177.605 102.009 177.307L98.4767 183.938C96.659 187.146 95.9133 190.42 96.2071 192.263C92.8637 201.639 100.792 207.97 110.169 211.314C113.91 212.657 117.992 212.716 121.771 211.482L121.886 209.884L122.596 211.193C122.596 211.193 131.168 228.843 133.193 229.635C131.964 226.447 128.723 211.294 127.818 208.136C126.577 203.838 127.425 197.011 128.154 192.825C128.608 190.244 128.632 187.606 128.224 185.017L128.206 184.904L130.212 188.953L134.711 186.123C132.992 181.114 132.957 175.122 122.269 177.346Z" fill="#2F2E41"/>
</g>
<defs>
<clipPath id="clip0_360_69">
<rect width="923.164" height="498.297" fill="white"/>
</clipPath>
</defs>
</svg>
