<svg width="36" height="36" viewBox="0 0 36 36" fill="none" xmlns="http://www.w3.org/2000/svg">
<path fill-rule="evenodd" clip-rule="evenodd" d="M17.9688 35.78C22.61 35.78 27.0612 33.9363 30.3431 30.6544C33.625 27.3725 35.4688 22.9213 35.4688 18.28C35.4688 13.6387 33.625 9.18755 30.3431 5.90566C27.0612 2.62377 22.61 0.780029 17.9688 0.780029C13.3275 0.780029 8.87627 2.62377 5.59438 5.90566C2.31249 9.18755 0.46875 13.6387 0.46875 18.28C0.46875 22.9213 2.31249 27.3725 5.59438 30.6544C8.87627 33.9363 13.3275 35.78 17.9688 35.78ZM20.1562 11.7175C20.1562 11.1374 19.9258 10.581 19.5155 10.1707C19.1053 9.7605 18.5489 9.53003 17.9688 9.53003C17.3886 9.53003 16.8322 9.7605 16.422 10.1707C16.0117 10.581 15.7812 11.1374 15.7812 11.7175V16.0925H11.4062C10.8261 16.0925 10.2697 16.323 9.85945 16.7332C9.44922 17.1435 9.21875 17.6999 9.21875 18.28C9.21875 18.8602 9.44922 19.4166 9.85945 19.8268C10.2697 20.2371 10.8261 20.4675 11.4062 20.4675H15.7812V24.8425C15.7812 25.4227 16.0117 25.9791 16.422 26.3893C16.8322 26.7996 17.3886 27.03 17.9688 27.03C18.5489 27.03 19.1053 26.7996 19.5155 26.3893C19.9258 25.9791 20.1562 25.4227 20.1562 24.8425V20.4675H24.5312C25.1114 20.4675 25.6678 20.2371 26.078 19.8268C26.4883 19.4166 26.7188 18.8602 26.7188 18.28C26.7188 17.6999 26.4883 17.1435 26.078 16.7332C25.6678 16.323 25.1114 16.0925 24.5312 16.0925H20.1562V11.7175Z" fill="#7209B7"/>
</svg>
