<svg width="406" height="382" viewBox="0 0 406 382" fill="none" xmlns="http://www.w3.org/2000/svg">
<g clip-path="url(#clip0_431_91)">
<path d="M292.131 342.92H92.9684C86.2145 342.912 79.7395 340.073 74.9638 335.027C70.1881 329.981 67.5018 323.14 67.4941 316.003V68.8635C67.5018 61.7274 70.1881 54.8858 74.9638 49.8398C79.7395 44.7937 86.2145 41.9553 92.9684 41.9473H278.257L317.605 75.086V316.003C317.598 323.14 314.911 329.981 310.136 335.027C305.36 340.073 298.885 342.912 292.131 342.92Z" fill="#E6E6E6"/>
<path d="M92.9679 49.6963C88.1584 49.702 83.5473 51.7233 80.1464 55.3167C76.7456 58.9101 74.8326 63.7821 74.8271 68.8639V316.004C74.8326 321.086 76.7456 325.958 80.1464 329.551C83.5473 333.145 88.1584 335.166 92.9679 335.171H292.131C296.94 335.166 301.551 333.145 304.952 329.551C308.353 325.958 310.266 321.086 310.271 316.004V78.8193L275.691 49.6963H92.9679Z" fill="white"/>
<path d="M250.576 121.557H117.024C116.467 121.558 115.915 121.443 115.399 121.218C114.884 120.993 114.416 120.663 114.022 120.246C113.627 119.83 113.314 119.336 113.101 118.792C112.887 118.247 112.777 117.664 112.777 117.075C112.777 116.486 112.887 115.903 113.101 115.359C113.314 114.814 113.627 114.32 114.022 113.904C114.416 113.488 114.884 113.158 115.399 112.933C115.915 112.708 116.467 112.592 117.024 112.593H250.576C251.701 112.593 252.78 113.065 253.576 113.906C254.372 114.746 254.819 115.886 254.819 117.075C254.819 118.264 254.372 119.404 253.576 120.245C252.78 121.085 251.701 121.557 250.576 121.557Z" fill="#CCCCCC"/>
<path d="M268.075 136.685H117.024C116.467 136.685 115.916 136.569 115.401 136.344C114.886 136.119 114.419 135.789 114.025 135.372C113.631 134.956 113.318 134.462 113.105 133.918C112.892 133.374 112.782 132.792 112.782 132.203C112.782 131.614 112.892 131.031 113.105 130.488C113.318 129.944 113.631 129.45 114.025 129.034C114.419 128.617 114.886 128.287 115.401 128.062C115.916 127.837 116.467 127.721 117.024 127.721H268.075C268.632 127.721 269.184 127.837 269.699 128.062C270.213 128.287 270.681 128.617 271.075 129.034C271.469 129.45 271.781 129.944 271.995 130.488C272.208 131.031 272.318 131.614 272.318 132.203C272.318 132.792 272.208 133.374 271.995 133.918C271.781 134.462 271.469 134.956 271.075 135.372C270.681 135.789 270.213 136.119 269.699 136.344C269.184 136.569 268.632 136.685 268.075 136.685Z" fill="#CCCCCC"/>
<path d="M250.576 189.352H117.024C116.467 189.353 115.915 189.237 115.399 189.012C114.884 188.788 114.416 188.457 114.022 188.041C113.627 187.625 113.314 187.131 113.101 186.586C112.887 186.042 112.777 185.459 112.777 184.87C112.777 184.281 112.887 183.698 113.101 183.154C113.314 182.609 113.627 182.115 114.022 181.699C114.416 181.282 114.884 180.952 115.399 180.727C115.915 180.503 116.467 180.387 117.024 180.388H250.576C251.701 180.388 252.78 180.86 253.576 181.701C254.372 182.541 254.819 183.681 254.819 184.87C254.819 186.059 254.372 187.199 253.576 188.039C252.78 188.88 251.701 189.352 250.576 189.352Z" fill="#6C63FF"/>
<path d="M268.075 204.479H117.024C116.467 204.479 115.916 204.363 115.401 204.138C114.886 203.913 114.419 203.583 114.025 203.166C113.631 202.75 113.318 202.256 113.105 201.712C112.892 201.168 112.782 200.586 112.782 199.997C112.782 199.408 112.892 198.825 113.105 198.282C113.318 197.738 113.631 197.244 114.025 196.827C114.419 196.411 114.886 196.081 115.401 195.856C115.916 195.631 116.467 195.515 117.024 195.515H268.075C268.632 195.515 269.184 195.631 269.699 195.856C270.213 196.081 270.681 196.411 271.075 196.827C271.469 197.244 271.781 197.738 271.995 198.282C272.208 198.825 272.318 199.408 272.318 199.997C272.318 200.586 272.208 201.168 271.995 201.712C271.781 202.256 271.469 202.75 271.075 203.166C270.681 203.583 270.213 203.913 269.699 204.138C269.184 204.363 268.632 204.479 268.075 204.479Z" fill="#CCCCCC"/>
<path d="M250.577 257.146H117.024C115.899 257.146 114.82 256.674 114.025 255.833C113.229 254.993 112.782 253.853 112.782 252.664C112.782 251.475 113.229 250.335 114.025 249.494C114.82 248.654 115.899 248.182 117.024 248.182H250.577C251.702 248.182 252.781 248.654 253.576 249.494C254.372 250.335 254.819 251.475 254.819 252.664C254.819 253.853 254.372 254.993 253.576 255.833C252.781 256.674 251.702 257.146 250.577 257.146Z" fill="#CCCCCC"/>
<path d="M268.075 272.273H117.024C116.467 272.274 115.915 272.158 115.399 271.933C114.884 271.708 114.416 271.378 114.022 270.962C113.627 270.546 113.314 270.051 113.101 269.507C112.887 268.963 112.777 268.38 112.777 267.791C112.777 267.202 112.887 266.619 113.101 266.074C113.314 265.53 113.627 265.036 114.022 264.62C114.416 264.203 114.884 263.873 115.399 263.648C115.915 263.423 116.467 263.308 117.024 263.309H268.075C269.2 263.309 270.279 263.781 271.075 264.621C271.87 265.462 272.317 266.602 272.317 267.791C272.317 268.98 271.87 270.12 271.075 270.96C270.279 271.801 269.2 272.273 268.075 272.273Z" fill="#CCCCCC"/>
<path d="M316.839 76.1522H286.016C284.901 76.1522 283.798 75.9203 282.769 75.4698C281.739 75.0193 280.804 74.359 280.016 73.5265C279.228 72.6941 278.603 71.7059 278.177 70.6182C277.751 69.5306 277.531 68.3649 277.531 67.1876V43.1335C277.531 43.0282 277.559 42.925 277.612 42.8358C277.665 42.7466 277.741 42.675 277.831 42.6291C277.92 42.5833 278.021 42.5651 278.12 42.5766C278.219 42.5882 278.313 42.629 278.391 42.6944L317.168 75.1527C317.254 75.225 317.317 75.3238 317.348 75.4355C317.379 75.5472 317.376 75.6663 317.339 75.7761C317.303 75.886 317.236 75.9812 317.146 76.0486C317.056 76.116 316.949 76.1522 316.839 76.1522Z" fill="#E6E6E6"/>
<path d="M123.335 63.2014C123.335 75.3694 119.92 87.2642 113.522 97.3816C107.124 107.499 98.0298 115.384 87.3902 120.041C76.7506 124.697 65.0432 125.916 53.7482 123.542C42.4533 121.168 32.0783 115.309 23.9351 106.705C15.792 98.1004 10.2464 87.1381 7.9997 75.2039C5.753 63.2696 6.90609 50.8995 11.3131 39.6577C15.7202 28.4159 23.1833 18.8074 32.7586 12.0472C42.334 5.28696 53.5916 1.67871 65.1077 1.67871C80.549 1.68386 95.3564 8.16735 106.275 19.704C117.194 31.2406 123.33 46.8862 123.335 63.2014Z" fill="white"/>
<path d="M92.0194 73.7269C91.3835 113.074 35.9909 113.068 35.3604 73.7256C35.9963 34.3798 91.3889 34.386 92.0194 73.7269Z" fill="#6C63FF"/>
<path d="M62.5656 85.9408L62.5361 84.8222C69.8327 85.8515 71.4042 76.2966 64.0456 79.8688L65.7253 66.8984L66.7742 67.0503L65.3454 78.0833C73.0934 76.8647 70.2275 87.0587 62.5656 85.9408Z" fill="#2F2E41"/>
<path d="M77.6636 68.002H71.9619V69.1205H77.6636V68.002Z" fill="#2F2E41"/>
<path d="M59.6656 68.002H53.9639V69.1205H59.6656V68.002Z" fill="#2F2E41"/>
<path d="M72.8737 115.578C73.9854 107.653 65.2038 109.219 60.5561 109.14C59.8067 109.143 59.0673 109.322 58.3918 109.665C57.7162 110.007 57.1214 110.505 56.6509 111.121C56.1803 111.737 55.8457 112.456 55.6715 113.226C55.4973 113.997 55.4879 114.798 55.644 115.572C52.0467 116.747 48.7157 118.689 45.8564 121.277C57.9056 125.717 70.9984 125.87 83.1376 121.713C80.1783 118.906 76.6759 116.812 72.8737 115.578Z" fill="#2F2E41"/>
<path d="M50.3708 59.5706C55.6209 56.3646 61.9878 58.8242 67.411 60.1689C77.7004 63.511 92.1293 59.326 93.3806 46.3753C94.6827 34.3309 79.089 27.6181 74.1049 39.6057L75.5561 39.4053C59.3919 14.0232 31.2748 14.9859 31.4597 49.8818C31.3997 50.9598 32.9879 50.9562 33.0473 49.8811C32.4523 29.3175 45.3325 15.2608 63.5397 28.4759C67.7065 31.6882 71.0781 35.9427 74.1849 40.2522C76.0811 42.4975 76.4931 32.8279 85.5687 35.3606C95.5566 39.449 92.2976 54.5604 83.3702 57.8778C72.3396 63.8322 60.3932 52.2874 49.5692 58.1211C49.395 58.2373 49.2703 58.4206 49.2214 58.6321C49.1726 58.8436 49.2034 59.0669 49.3073 59.2549C49.4113 59.443 49.5803 59.5809 49.7787 59.6398C49.9771 59.6987 50.1894 59.6739 50.3708 59.5706Z" fill="#2F2E41"/>
<path d="M65.1088 126.401C50.0722 126.388 35.593 120.386 24.5588 109.593C13.5246 98.8 6.74634 84.0087 5.57595 68.1692C4.40557 52.3297 8.92903 36.6061 18.2442 24.1343C27.5593 11.6625 40.9816 3.35906 55.834 0.880068C70.6864 -1.59892 85.8775 1.92871 98.3774 10.7594C110.877 19.5901 119.768 33.0748 123.275 48.5243C126.783 63.9737 124.649 80.2524 117.301 94.1137C109.953 107.975 97.9295 118.4 83.629 123.31C77.6483 125.365 71.3978 126.409 65.1088 126.401ZM65.1088 3.35605C53.9044 3.35437 42.9512 6.86349 33.6345 13.4396C24.3177 20.0157 17.0559 29.3635 12.7674 40.3006C8.47895 51.2377 7.35648 63.2729 9.54195 74.8841C11.7274 86.4953 17.1227 97.1609 25.0454 105.532C32.9681 113.903 43.0623 119.604 54.0515 121.913C65.0407 124.222 76.4311 123.036 86.7823 118.505C97.1335 113.974 105.98 106.301 112.204 96.4568C118.428 86.6126 121.749 75.0394 121.748 63.2009C121.731 47.3345 115.758 32.1232 105.14 20.904C94.5216 9.68481 80.1252 3.37399 65.1088 3.35605Z" fill="#CCCCCC"/>
<path d="M404.411 189.602C404.411 202.589 400.523 215.243 393.303 225.754C386.082 236.264 375.9 244.091 364.214 248.116C363.864 248.233 363.515 248.35 363.16 248.462C361.646 248.954 360.111 249.374 358.55 249.732C355.724 250.38 352.855 250.8 349.969 250.99C348.715 251.08 347.453 251.125 346.184 251.125C339.629 251.131 333.12 249.967 326.932 247.679C326.753 247.612 326.573 247.545 326.398 247.478C316.373 243.652 307.534 236.993 300.844 228.225C294.154 219.457 289.87 208.917 288.459 197.754C287.048 186.591 288.563 175.232 292.841 164.917C297.118 154.601 303.993 145.724 312.717 139.252C321.44 132.78 331.677 128.963 342.313 128.215C352.948 127.467 363.574 129.818 373.032 135.012C382.49 140.205 390.417 148.042 395.951 157.668C401.484 167.294 404.41 178.34 404.411 189.602Z" fill="white"/>
<path d="M344.791 230.363C360.436 230.363 373.12 216.962 373.12 200.43C373.12 183.899 360.436 170.497 344.791 170.497C329.145 170.497 316.461 183.899 316.461 200.43C316.461 216.962 329.145 230.363 344.791 230.363Z" fill="#6C63FF"/>
<path d="M346.444 216.558L346.473 215.439C344.504 215.381 342.767 215.251 341.463 214.244C341.093 213.942 340.789 213.56 340.571 213.123C340.354 212.686 340.228 212.204 340.202 211.711C340.179 211.41 340.222 211.107 340.328 210.826C340.434 210.545 340.6 210.294 340.812 210.092C341.679 209.319 343.072 209.569 344.088 210.062L344.964 210.486L343.284 197.516L342.235 197.667L343.664 208.7C342.284 208.272 341.005 208.456 340.129 209.238C339.793 209.548 339.529 209.936 339.358 210.372C339.187 210.808 339.114 211.28 339.144 211.75C339.175 212.413 339.343 213.06 339.636 213.647C339.928 214.234 340.339 214.746 340.838 215.147C342.515 216.442 344.693 216.506 346.444 216.558Z" fill="#2F2E41"/>
<path d="M337.048 198.619H331.347V199.738H337.048V198.619Z" fill="#2F2E41"/>
<path d="M355.045 198.619H349.344V199.738H355.045V198.619Z" fill="#2F2E41"/>
<path d="M352.84 242.277C352.915 241.909 352.954 241.534 352.956 241.158C352.954 239.75 352.424 238.399 351.481 237.403C350.538 236.407 349.26 235.847 347.927 235.845H340.517C339.183 235.846 337.905 236.406 336.962 237.402C336.019 238.399 335.489 239.749 335.488 241.158C335.488 241.536 335.527 241.913 335.604 242.282C332.807 243.214 330.163 244.596 327.765 246.382C327.299 246.723 326.839 247.092 326.399 247.478C326.574 247.545 326.754 247.612 326.934 247.679C333.121 249.967 339.631 251.132 346.186 251.125C347.456 251.125 348.718 251.08 349.971 250.991C352.857 250.801 355.725 250.38 358.551 249.732C360.113 249.374 361.648 248.955 363.162 248.462C360.167 245.663 356.651 243.556 352.84 242.277Z" fill="#2F2E41"/>
<path d="M351.886 250.28C351.199 250.333 350.538 250.578 349.97 250.99C352.856 250.8 355.724 250.379 358.55 249.731L351.886 250.28Z" fill="#2F2E41"/>
<path d="M370.483 193.319L321.269 174.296C321.008 174.195 320.768 174.041 320.563 173.842C320.359 173.643 320.193 173.404 320.076 173.137C319.959 172.871 319.892 172.582 319.881 172.289C319.869 171.995 319.912 171.702 320.008 171.426L320.174 170.595C324.018 159.494 336.757 152.507 347.264 156.568L362.408 162.422C372.914 166.483 377.481 179.628 373.637 190.729L373.199 191.987C373.104 192.263 372.957 192.516 372.769 192.732C372.581 192.949 372.354 193.124 372.102 193.247C371.85 193.371 371.577 193.441 371.299 193.453C371.022 193.466 370.744 193.42 370.483 193.319Z" fill="#2F2E41"/>
<path d="M373.134 194.374C304.539 197.048 298.546 187.942 319.446 173.621L323.88 165.001L374.696 184.576L373.134 194.374Z" fill="#2F2E41"/>
<path d="M359.684 161.057C360.063 159.726 358.441 158.034 356.061 157.278C353.681 156.523 351.445 156.989 351.067 158.32C350.688 159.651 352.31 161.343 354.69 162.099C357.069 162.855 359.306 162.388 359.684 161.057Z" fill="#2F2E41"/>
<path d="M346.185 252.803C339.451 252.81 332.764 251.614 326.408 249.263L325.856 249.055C312.542 243.971 301.366 234.063 294.316 221.092C287.265 208.121 284.798 192.928 287.352 178.216C289.905 163.503 297.315 150.224 308.263 140.741C319.211 131.258 332.987 126.185 347.142 126.424C361.296 126.663 374.912 132.199 385.567 142.048C396.222 151.896 403.226 165.418 405.334 180.209C407.441 195.001 404.515 210.102 397.075 222.828C389.636 235.554 378.166 245.08 364.705 249.711C364.329 249.838 363.975 249.957 363.615 250.07C362.112 250.559 360.517 250.998 358.887 251.372C355.982 252.037 353.034 252.469 350.067 252.665C348.793 252.756 347.484 252.803 346.185 252.803ZM346.185 129.757C332.857 129.759 319.956 134.727 309.752 143.786C299.548 152.845 292.694 165.416 290.395 179.287C288.096 193.159 290.5 207.442 297.184 219.626C303.868 231.81 314.403 241.113 326.938 245.9L327.462 246.097C333.48 248.322 339.81 249.455 346.185 249.447C347.412 249.447 348.65 249.403 349.863 249.316C352.672 249.131 355.464 248.722 358.215 248.092C359.756 247.739 361.263 247.324 362.694 246.859C363.048 246.747 363.384 246.634 363.721 246.521C376.541 242.109 387.452 233.009 394.491 220.858C401.531 208.707 404.237 194.301 402.124 180.23C400.011 166.159 393.217 153.347 382.963 144.095C372.709 134.843 359.669 129.759 346.185 129.757Z" fill="#CCCCCC"/>
<path d="M1.58794 318.799C1.57779 326.897 3.08527 334.916 6.02339 342.395C8.96152 349.874 13.2721 356.664 18.7066 362.374C19.162 362.849 19.6277 363.325 20.0986 363.789C22.9364 366.59 26.0327 369.084 29.3411 371.233C29.9761 371.647 30.6114 372.044 31.2625 372.43C34.6083 374.422 38.1333 376.058 41.7856 377.313C42.4155 377.531 43.056 377.738 43.6964 377.928C55.3063 381.446 67.6625 381.079 79.0668 376.877C79.2891 376.793 79.5113 376.709 79.7284 376.625C89.7396 372.777 98.5598 366.1 105.229 357.323C111.898 348.545 116.161 338.003 117.553 326.843C118.944 315.684 117.412 304.334 113.123 294.031C108.834 283.728 101.952 274.865 93.2257 268.408C84.4999 261.95 74.2648 258.146 63.6346 257.409C53.0044 256.671 42.3864 259.029 32.9365 264.226C23.4866 269.422 15.5669 277.258 10.0395 286.88C4.51212 296.503 1.58886 307.543 1.58794 318.799Z" fill="white"/>
<path d="M47.5179 348.954C47.5461 353.72 45.8834 358.325 42.8577 361.86C39.8638 365.332 35.4067 367.634 30.9089 366.682C26.7673 365.805 23.4017 361.98 23.8216 357.353C23.8913 356.351 24.1669 355.377 24.6294 354.499C25.0919 353.62 25.73 352.86 26.4994 352.269C27.2687 351.678 28.1507 351.272 29.084 351.078C30.0172 350.884 30.9792 350.908 31.9028 351.147C35.8372 352.226 37.4048 358.217 34.1263 361.03C33.3396 361.704 32.2094 360.524 33.0034 359.843C35.1707 357.984 34.5012 353.917 31.8852 352.897C28.8396 351.71 25.6127 354.264 25.3937 357.554C25.134 361.454 27.9621 364.392 31.4304 365.083C35.1822 365.832 38.9021 363.803 41.4444 361.002C44.358 357.75 45.9657 353.432 45.93 348.954C45.9371 348.736 46.0239 348.53 46.172 348.379C46.3201 348.228 46.518 348.144 46.724 348.144C46.9299 348.144 47.1278 348.228 47.2759 348.379C47.4241 348.53 47.5108 348.736 47.5179 348.954Z" fill="#2F2E41"/>
<path d="M63.0249 359.621C78.6709 359.621 91.3545 346.22 91.3545 329.688C91.3545 313.156 78.6709 299.755 63.0249 299.755C47.3789 299.755 34.6953 313.156 34.6953 329.688C34.6953 346.22 47.3789 359.621 63.0249 359.621Z" fill="#6C63FF"/>
<path d="M61.5754 342.459L61.5459 341.341C63.5154 341.283 65.2518 341.152 66.5565 340.145C66.9264 339.843 67.2304 339.461 67.4479 339.024C67.6655 338.587 67.7913 338.105 67.817 337.612C67.8399 337.311 67.7968 337.008 67.691 336.728C67.5851 336.447 67.4195 336.196 67.2068 335.994C66.3407 335.221 64.9471 335.471 63.9313 335.963L63.0553 336.387L64.7351 323.417L65.7839 323.569L64.3551 334.602C65.7354 334.173 67.0142 334.358 67.8902 335.139C68.2265 335.45 68.4904 335.838 68.6612 336.274C68.832 336.709 68.9052 337.181 68.8749 337.652C68.844 338.314 68.6764 338.961 68.3838 339.548C68.0911 340.135 67.6806 340.647 67.1809 341.049C65.5045 342.343 63.3259 342.407 61.5754 342.459Z" fill="#2F2E41"/>
<path d="M76.6724 324.521H70.9707V325.64H76.6724V324.521Z" fill="#2F2E41"/>
<path d="M58.6754 324.521H52.9736V325.64H58.6754V324.521Z" fill="#2F2E41"/>
<path d="M43.6963 377.928C55.3062 381.446 67.6623 381.079 79.0666 376.877C79.2889 376.793 79.5112 376.709 79.7283 376.625C77.0409 374.435 74.0014 372.775 70.756 371.726C70.9855 370.866 70.9819 369.955 70.7454 369.097C70.4242 368.01 69.7793 367.061 68.9066 366.391C68.0339 365.722 66.9801 365.369 65.902 365.383H58.9995C57.9231 365.368 56.8709 365.721 56 366.389C55.129 367.057 54.4859 368.005 54.1667 369.091C53.9302 369.951 53.9265 370.864 54.1561 371.726C51.2974 372.651 48.5958 374.05 46.1525 375.87C45.6601 376.234 45.1838 376.614 44.7235 377.011C44.374 377.308 44.03 377.615 43.6963 377.928Z" fill="#2F2E41"/>
<path d="M85.2178 326.513C85.2178 331.558 87.568 335.741 90.6223 336.468C90.9333 336.542 91.251 336.579 91.5698 336.58C95.0686 336.58 97.9218 332.066 97.9218 326.513C97.9218 323.291 96.9637 320.422 95.4762 318.582C94.9599 317.921 94.3248 317.376 93.6075 316.977C92.9784 316.63 92.2795 316.447 91.5698 316.445C90.5949 316.458 89.6485 316.795 88.8647 317.407C86.7104 319.018 85.2178 322.491 85.2178 326.513Z" fill="#3F3D56"/>
<path d="M28.5791 326.513C28.5791 330.853 30.3152 334.555 32.7502 335.97C33.4167 336.365 34.1671 336.575 34.9311 336.58C35.101 336.58 35.2707 336.569 35.4393 336.546C38.6998 336.138 41.2831 331.798 41.2831 326.513C41.2831 322.279 39.6261 318.649 37.2865 317.167C36.5789 316.703 35.764 316.453 34.9311 316.445C34.2213 316.447 33.5224 316.63 32.8931 316.977C32.1741 317.378 31.5372 317.925 31.0193 318.587C29.537 320.428 28.5791 323.297 28.5791 326.513Z" fill="#3F3D56"/>
<path d="M33.1464 335.005C33.2724 335.005 33.3966 334.973 33.5088 334.912C33.6209 334.851 33.7177 334.763 33.7912 334.655C33.8647 334.547 33.9128 334.422 33.9315 334.29C33.9502 334.158 33.939 334.024 33.8988 333.898C32.3813 329.13 31.9249 324.056 32.5648 319.071C33.2048 314.086 34.9241 309.324 37.589 305.156C40.2538 300.987 43.7926 297.524 47.9301 295.035C52.0677 292.547 56.6927 291.1 61.4456 290.807C66.1985 290.514 70.9514 291.383 75.3348 293.346C79.7182 295.309 83.6141 298.314 86.7197 302.127C89.8253 305.94 92.057 310.458 93.2413 315.331C94.4256 320.203 94.5306 325.298 93.5482 330.22C93.5267 330.328 93.5255 330.439 93.5446 330.548C93.5638 330.656 93.6029 330.759 93.6599 330.852C93.7168 330.944 93.7904 331.023 93.8764 331.086C93.9624 331.148 94.0592 331.192 94.1612 331.214C94.2633 331.237 94.3685 331.239 94.471 331.218C94.5735 331.198 94.6713 331.157 94.7586 331.096C94.846 331.036 94.9213 330.959 94.9802 330.868C95.0391 330.777 95.0805 330.675 95.1021 330.567C96.1356 325.392 96.0257 320.034 94.781 314.911C93.5362 309.788 91.1901 305.038 87.9251 301.029C84.66 297.02 80.5639 293.86 75.9552 291.796C71.3465 289.731 66.3493 288.818 61.352 289.126C56.3548 289.434 51.4921 290.956 47.142 293.573C42.7918 296.189 39.0715 299.831 36.27 304.214C33.4685 308.597 31.6614 313.604 30.9892 318.845C30.317 324.087 30.7977 329.421 32.3941 334.434C32.4472 334.6 32.5484 334.745 32.6833 334.847C32.8183 334.95 32.9802 335.005 33.1464 335.005Z" fill="#3F3D56"/>
<path d="M77.256 310.294C78.3778 311.912 77.8248 314.093 76.6429 315.487C75.1049 317.303 72.6523 317.417 70.5228 317.08C68.1332 316.702 65.5986 315.519 63.1794 316.316C61.1174 316.996 59.6465 318.972 57.5043 319.468C55.6045 319.908 53.3327 319.326 52.6667 317.186C52.3467 316.158 53.8797 315.717 54.198 316.74C54.6289 318.124 56.4893 318.097 57.5548 317.713C59.2629 317.099 60.5792 315.604 62.2581 314.89C64.2375 314.049 66.3849 314.429 68.4001 314.908C70.2995 315.36 72.4855 316.03 74.3777 315.186C75.7779 314.561 76.892 312.594 75.8848 311.141C75.2802 310.269 76.6576 309.431 77.256 310.294Z" fill="#2F2E41"/>
<path d="M59.8147 381.999C54.2133 382.004 48.6392 381.176 43.2562 379.54C42.6236 379.352 41.959 379.138 41.2914 378.907C37.5407 377.617 33.9203 375.937 30.4834 373.892C29.8388 373.51 29.1917 373.107 28.5075 372.661C25.1099 370.453 21.9297 367.891 19.0142 365.015C18.5333 364.54 18.0567 364.054 17.5907 363.568C8.42223 353.909 2.46754 341.368 0.621168 327.828C-1.2252 314.288 1.13646 300.48 7.35136 288.48C13.5663 276.479 23.2988 266.934 35.0869 261.277C46.875 255.62 60.082 254.157 72.724 257.109C85.366 260.06 96.7602 267.266 105.195 277.644C113.63 288.023 118.65 301.013 119.5 314.663C120.351 328.313 116.987 341.886 109.913 353.344C102.839 364.801 92.4377 373.524 80.2712 378.201C80.0527 378.286 79.8267 378.371 79.6006 378.456C73.2419 380.809 66.552 382.007 59.8147 381.999ZM59.8147 258.954C48.6049 258.955 37.6473 262.47 28.3292 269.054C19.0112 275.639 11.7518 284.997 7.47023 295.943C3.18865 306.889 2.0774 318.932 4.2772 330.546C6.477 342.16 11.8889 352.823 19.8277 361.186C20.2671 361.644 20.722 362.108 21.1819 362.562C23.9431 365.286 26.955 367.712 30.1729 369.804C30.8211 370.226 31.4311 370.606 32.0393 370.966C35.2944 372.904 38.7235 374.495 42.2761 375.717C42.9046 375.934 43.5257 376.134 44.1258 376.312C55.422 379.737 67.4449 379.381 78.5417 375.293L79.1833 375.049C91.6969 370.236 102.206 360.919 108.864 348.733C115.523 336.548 117.905 322.273 115.593 308.416C113.282 294.559 106.423 282.006 96.2227 272.96C86.0222 263.915 73.1316 258.956 59.8147 258.954Z" fill="#CCCCCC"/>
</g>
<defs>
<clipPath id="clip0_431_91">
<rect width="406" height="382" fill="white"/>
</clipPath>
</defs>
</svg>
