<svg width="36" height="42" viewBox="0 0 36 42" fill="none" xmlns="http://www.w3.org/2000/svg">
<g clip-path="url(#clip0_375_270)">
<path fill-rule="evenodd" clip-rule="evenodd" d="M3.74975 12.4659H31.7545C31.9795 12.457 32.2047 12.475 32.4254 12.5196C32.7902 12.5999 33.125 12.7813 33.3916 13.0429C33.7012 13.34 33.896 13.7368 33.9417 14.1634C33.9502 14.3247 33.9435 14.4864 33.9216 14.6465L31.5364 39.3536V39.3972V39.4911C31.5207 39.5931 31.4983 39.694 31.4694 39.793V39.8132C31.3428 40.2029 31.0983 40.5437 30.7695 40.7883C30.4407 41.033 30.044 41.1693 29.6344 41.1785H5.81287C5.67128 41.1717 5.53076 41.1503 5.39354 41.1148C5.25869 41.0745 5.1283 41.0205 5.0044 40.9538C4.71198 40.7855 4.46502 40.5485 4.28497 40.2632C4.10491 39.9779 3.99719 39.653 3.97116 39.3167L1.62289 14.6632C1.5961 14.4789 1.58935 14.2922 1.60277 14.1064C1.6497 13.6857 1.84329 13.2949 2.14958 13.0027C2.42711 12.7329 2.77653 12.5489 3.15598 12.4726C3.35417 12.438 3.55534 12.4234 3.75646 12.429L3.74975 12.4659ZM1.89798 2.95211H12.4551V2.0128C12.4534 1.98263 12.4534 1.95239 12.4551 1.92222C12.4762 1.41662 12.687 0.937522 13.0455 0.580357C13.4218 0.208919 13.9291 0.000449944 14.4578 0L20.9558 0H21.0565C21.5727 0.0258416 22.0591 0.249259 22.4151 0.623967C22.7711 0.998676 22.9693 1.49596 22.9686 2.0128V2.95211H33.7036H33.8344C34.2143 2.98318 34.5701 3.15085 34.836 3.42407C35.1018 3.6973 35.2596 4.05758 35.2803 4.43822C35.2803 4.49861 35.2803 4.54557 35.2803 4.60596V7.91366C35.2803 8.14409 35.1887 8.36509 35.0258 8.52803C34.8628 8.69097 34.6418 8.78251 34.4114 8.78251H0.871448C0.642746 8.78253 0.42326 8.69237 0.260603 8.5316C0.097947 8.37083 0.00523867 8.15241 0.00258961 7.92372V4.53886C-0.000863202 4.50428 -0.000863202 4.46945 0.00258961 4.43487C0.0255728 4.08161 0.166269 3.74625 0.402208 3.48234C0.638146 3.21843 0.955717 3.0412 1.3042 2.97894C1.501 2.95312 1.69965 2.94414 1.89798 2.95211ZM16.0211 20.6312C16.0616 20.2372 16.2468 19.8722 16.5408 19.6069C16.8348 19.3415 17.2168 19.1946 17.6129 19.1946C18.009 19.1946 18.391 19.3415 18.685 19.6069C18.979 19.8722 19.1642 20.2372 19.2047 20.6312V33.0435C19.1642 33.4374 18.979 33.8024 18.685 34.0678C18.391 34.3331 18.009 34.48 17.6129 34.48C17.2168 34.48 16.8348 34.3331 16.5408 34.0678C16.2468 33.8024 16.0616 33.4374 16.0211 33.0435V20.6312ZM23.9817 20.5641C24.0257 20.162 24.2265 19.7934 24.5406 19.5385C24.8546 19.2835 25.2565 19.1626 25.6591 19.2021C25.8568 19.2003 26.053 19.2377 26.2363 19.3121C26.4195 19.3864 26.5863 19.4963 26.7269 19.6354C26.8675 19.7744 26.9792 19.9399 27.0556 20.1224C27.132 20.3048 27.1716 20.5005 27.172 20.6983L26.5011 33.1105C26.4579 33.513 26.2574 33.8821 25.9431 34.1373C25.6289 34.3924 25.2265 34.5129 24.8238 34.4725C24.626 34.4743 24.4298 34.4369 24.2466 34.3626C24.0633 34.2882 23.8966 34.1784 23.7559 34.0393C23.6153 33.9002 23.5036 33.7347 23.4272 33.5523C23.3508 33.3699 23.3112 33.1741 23.3108 32.9764L23.9817 20.5641ZM8.38925 20.6983C8.38925 20.5007 8.42839 20.305 8.50441 20.1226C8.58044 19.9402 8.69185 19.7747 8.83221 19.6356C8.97257 19.4964 9.13909 19.3865 9.32217 19.3121C9.50524 19.2377 9.70125 19.2003 9.89885 19.2021C10.3014 19.1626 10.7033 19.2835 11.0174 19.5385C11.3314 19.7934 11.5322 20.162 11.5762 20.5641L12.2471 32.9764C12.2467 33.1741 12.2071 33.3699 12.1307 33.5523C12.0543 33.7347 11.9426 33.9002 11.802 34.0393C11.6614 34.1784 11.4946 34.2882 11.3114 34.3626C11.1281 34.4369 10.9319 34.4743 10.7342 34.4725C10.3314 34.5129 9.92902 34.3924 9.61479 34.1373C9.30055 33.8821 9.09998 33.513 9.05683 33.1105L8.3859 20.6983H8.38925Z" fill="#7209B7"/>
</g>
<defs>
<clipPath id="clip0_375_270">
<rect width="35.2777" height="41.2221" fill="white"/>
</clipPath>
</defs>
</svg>
