<svg width="49" height="46" viewBox="0 0 49 46" fill="none" xmlns="http://www.w3.org/2000/svg">
<path d="M5.29508 5.60307C4.25041 6.74536 3.42174 8.10147 2.85636 9.59396C2.29099 11.0865 2 12.6861 2 14.3016C2 15.917 2.29099 17.5167 2.85636 19.0092C3.42174 20.5016 4.25041 21.8578 5.29508 23.0001L24.5 44L43.7049 23.0001C45.8147 20.6931 47 17.5641 47 14.3016C47 11.039 45.8147 7.91005 43.7049 5.60307C41.5952 3.29608 38.7337 2.00003 35.75 2.00003C32.7663 2.00003 29.9048 3.29608 27.795 5.60307L24.5 9.20602L21.205 5.60307C20.1604 4.46075 18.9202 3.55462 17.5553 2.93641C16.1903 2.31819 14.7274 2 13.2501 2C11.7727 2 10.3098 2.31819 8.94485 2.93641C7.57993 3.55462 6.33974 4.46075 5.29508 5.60307Z" stroke="#7209B7" stroke-width="3" stroke-linecap="round" stroke-linejoin="round"/>
</svg>
