<svg width="106" height="106" viewBox="0 0 106 106" fill="none" xmlns="http://www.w3.org/2000/svg">
<path d="M1.14453 27.0666C1.14453 12.7492 12.7511 1.1427 27.0684 1.1427H78.9163C93.2337 1.1427 104.84 12.7492 104.84 27.0666V78.9144C104.84 93.2318 93.2337 104.838 78.9163 104.838H27.0684C12.7511 104.838 1.14453 93.2318 1.14453 78.9144V27.0666Z" fill="#C77DFA"/>
<path d="M1.66309 27.0678C1.66309 13.0366 13.0373 1.66235 27.0685 1.66235H78.9163C92.9475 1.66235 104.322 13.0366 104.322 27.0678V78.9156C104.322 92.9468 92.9475 104.321 78.9163 104.321H27.0685C13.0373 104.321 1.66309 92.9468 1.66309 78.9156V27.0678Z" stroke="#171E34" stroke-width="1.05309"/>
<path d="M66.2138 50.0505L79.4347 57.3959L75.0279 42.7056L86.7801 32.4227L72.0899 30.9535L66.2138 19.2013L60.3377 30.9535L45.6475 32.4227L57.3996 42.7056L52.9923 57.3959L66.2138 50.0505Z" stroke="#1C1635" stroke-width="2.98375" stroke-linecap="round" stroke-linejoin="round"/>
<path d="M51.5229 38.298C18.3232 50.3437 19.2044 75.0233 19.2044 75.0233L33.8946 69.1472C33.8946 69.1472 33.6006 80.6058 39.7707 86.7755C39.7707 86.7755 41.8275 65.0339 54.4609 55.9262" stroke="#1C1635" stroke-width="2.98375" stroke-linecap="round" stroke-linejoin="round"/>
</svg>
