<svg width="34" height="39" viewBox="0 0 34 39" fill="none" xmlns="http://www.w3.org/2000/svg">
<path d="M0.076345 4.23715C0.0344052 1.90949 1.90979 0 4.23783 0H29.0971C31.4106 0 33.2801 1.88661 33.2591 4.2L33.0224 30.2336C32.992 33.5863 29.2127 35.5288 26.4688 33.6022L19.1028 28.4303C17.6371 27.4012 15.6774 27.4251 14.2372 28.4896L7.18374 33.703C4.46398 35.7133 0.609232 33.8124 0.548304 30.4309L0.076345 4.23715Z" fill="#7209B7"/>
<path d="M2.66032 35.9299C3.26383 36.2004 3.89856 36.3357 4.52288 36.3357C5.59811 36.3357 6.65252 35.9437 7.5023 35.1876L15.0323 28.4935C15.9515 27.6749 17.3389 27.6749 18.258 28.4935L25.7881 35.1876C27.1338 36.3842 28.9895 36.6686 30.63 35.9299C32.2706 35.1911 33.2904 33.6164 33.2904 31.8163V4.50901C33.2904 2.02212 31.2682 0 28.7814 0H4.50901C2.02212 0 0 2.02212 0 4.50901V31.8163C0 33.6164 1.01973 35.1945 2.66032 35.9299ZM2.08108 4.50901C2.08108 3.17018 3.17018 2.08108 4.50901 2.08108H28.7883C30.1271 2.08108 31.2162 3.17018 31.2162 4.50901V31.8163C31.2162 32.8013 30.6821 33.6268 29.7837 34.0326C28.8854 34.435 27.9108 34.2858 27.1755 33.6337L19.6454 26.9396C18.7922 26.18 17.7204 25.8019 16.6487 25.8019C15.5769 25.8019 14.5086 26.18 13.6519 26.9396L6.12185 33.6337C5.38653 34.2858 4.41189 34.4384 3.51356 34.0326C2.61523 33.6303 2.08108 32.8013 2.08108 31.8163V4.50901Z" fill="#7209B7"/>
</svg>
