<svg width="32" height="29" viewBox="0 0 32 29" fill="none" xmlns="http://www.w3.org/2000/svg">
<path d="M4.05028 4.14468C3.40026 4.82462 2.88464 5.63183 2.53285 6.52022C2.18106 7.4086 2 8.36077 2 9.32236C2 10.2839 2.18106 11.2361 2.53285 12.1245C2.88464 13.0129 3.40026 13.8201 4.05028 14.5L16 27L27.9497 14.5C29.2625 13.1268 30 11.2644 30 9.32236C30 7.38035 29.2625 5.51789 27.9497 4.14468C26.637 2.77148 24.8565 2.00002 23 2.00002C21.1435 2.00002 19.363 2.77148 18.0502 4.14468L16 6.2893L13.9498 4.14468C13.2998 3.46473 12.5281 2.92537 11.6788 2.55739C10.8295 2.1894 9.91929 2 9.00004 2C8.08078 2 7.17052 2.1894 6.32124 2.55739C5.47196 2.92537 4.70028 3.46473 4.05028 4.14468Z" fill="#7209B7" stroke="#7209B7" stroke-width="3" stroke-linecap="round" stroke-linejoin="round"/>
</svg>
