<svg width="30" height="27" viewBox="0 0 30 27" fill="none" xmlns="http://www.w3.org/2000/svg">
<path d="M3.05028 3.14468C2.40026 3.82462 1.88464 4.63183 1.53285 5.52022C1.18106 6.4086 1 7.36077 1 8.32236C1 9.28394 1.18106 10.2361 1.53285 11.1245C1.88464 12.0129 2.40026 12.8201 3.05028 13.5L15 26L26.9497 13.5C28.2625 12.1268 29 10.2644 29 8.32236C29 6.38035 28.2625 4.51789 26.9497 3.14468C25.637 1.77148 23.8565 1.00002 22 1.00002C20.1435 1.00002 18.363 1.77148 17.0502 3.14468L15 5.2893L12.9498 3.14468C12.2998 2.46473 11.5281 1.92537 10.6788 1.55739C9.82955 1.1894 8.91929 1 8.00004 1C7.08078 1 6.17052 1.1894 5.32124 1.55739C4.47196 1.92537 3.70028 2.46473 3.05028 3.14468Z" stroke="#F8F9FA" stroke-width="2" stroke-linecap="round" stroke-linejoin="round"/>
</svg>
