<svg width="270" height="291" viewBox="0 0 270 291" fill="none" xmlns="http://www.w3.org/2000/svg">
<g clip-path="url(#clip0_74_18)">
<path d="M171.269 164.83L54.5578 194.885C50.5988 195.9 46.399 195.302 42.8797 193.225C39.3604 191.147 36.8091 187.758 35.7854 183.801L0.488889 46.7331C-0.525826 42.7741 0.0712769 38.5743 2.14921 35.055C4.22714 31.5358 7.6162 28.9844 11.5729 27.9608L120.154 0L147.945 12.4414L182.353 146.058C183.368 150.017 182.771 154.217 180.693 157.736C178.615 161.255 175.226 163.807 171.269 164.83Z" fill="#F2F2F2"/>
<path d="M12.6794 32.2583C9.8618 32.9872 7.44838 34.8041 5.96864 37.3102C4.48889 39.8164 4.06369 42.8072 4.78629 45.6264L40.0828 182.694C40.8118 185.512 42.6286 187.925 45.1348 189.405C47.641 190.885 50.6317 191.31 53.451 190.587L170.162 160.533C172.98 159.804 175.393 157.987 176.873 155.481C178.353 152.975 178.778 149.984 178.055 147.165L144.181 15.6183L119.757 4.68457L12.6794 32.2583Z" fill="white"/>
<path d="M147.649 13.1481L129.586 17.7995C128.267 18.139 126.868 17.9409 125.695 17.2486C124.523 16.5563 123.673 15.4265 123.334 14.1079L119.898 0.767106C119.883 0.7087 119.885 0.647237 119.903 0.589767C119.922 0.532296 119.956 0.481146 120.002 0.442179C120.048 0.403212 120.104 0.378006 120.164 0.369454C120.223 0.360901 120.284 0.369347 120.339 0.393824L147.699 12.5441C147.76 12.5712 147.811 12.6165 147.845 12.6738C147.878 12.7311 147.894 12.7976 147.888 12.864C147.883 12.9304 147.857 12.9934 147.814 13.0443C147.771 13.0952 147.713 13.1315 147.649 13.1481Z" fill="#F2F2F2"/>
<path d="M138.146 130.201L85.0088 143.885C84.6823 143.969 84.3425 143.988 84.0087 143.941C83.6749 143.893 83.3537 143.781 83.0634 143.609C82.7732 143.438 82.5195 143.211 82.3169 142.942C82.1143 142.672 81.9667 142.365 81.8827 142.039C81.7986 141.713 81.7797 141.373 81.8269 141.039C81.8742 140.705 81.9867 140.384 82.1581 140.094C82.3295 139.803 82.5564 139.55 82.8259 139.347C83.0953 139.145 83.402 138.997 83.7285 138.913L136.865 125.23C137.192 125.145 137.532 125.127 137.865 125.174C138.199 125.221 138.52 125.334 138.811 125.505C139.101 125.676 139.355 125.903 139.557 126.173C139.76 126.442 139.907 126.749 139.992 127.075C140.076 127.402 140.095 127.742 140.047 128.075C140 128.409 139.887 128.73 139.716 129.021C139.545 129.311 139.318 129.565 139.048 129.767C138.779 129.97 138.472 130.117 138.146 130.201Z" fill="#CCCCCC"/>
<path d="M150.561 135.951L87.1694 152.275C86.5101 152.445 85.8104 152.346 85.2241 151.999C84.6378 151.653 84.2131 151.088 84.0433 150.429C83.8735 149.77 83.9726 149.07 84.3188 148.484C84.6649 147.898 85.2298 147.473 85.8891 147.303L149.281 130.979C149.94 130.81 150.639 130.909 151.225 131.256C151.81 131.602 152.235 132.166 152.404 132.825C152.574 133.484 152.475 134.184 152.13 134.77C151.784 135.356 151.22 135.781 150.561 135.951Z" fill="#CCCCCC"/>
<path d="M63.3214 160.365C68.3323 160.365 72.3944 156.303 72.3944 151.292C72.3944 146.281 68.3323 142.219 63.3214 142.219C58.3104 142.219 54.2483 146.281 54.2483 151.292C54.2483 156.303 58.3104 160.365 63.3214 160.365Z" fill="#E6E6E6"/>
<path d="M132.496 106.457L61.9247 124.623C59.8851 125.146 57.7216 124.838 55.9088 123.767C54.0959 122.697 52.7817 120.951 52.2546 118.912L37.4655 61.46C36.9429 59.4205 37.2507 57.257 38.3213 55.4441C39.3919 53.6312 41.1379 52.3171 43.1763 51.7899L113.747 33.6238C115.787 33.1012 117.951 33.409 119.763 34.4796C121.576 35.5503 122.89 37.2963 123.418 39.3346L138.207 96.7868C138.729 98.8263 138.421 100.99 137.351 102.803C136.28 104.616 134.534 105.93 132.496 106.457Z" fill="white"/>
<path d="M132.496 106.457L61.9247 124.623C59.8851 125.146 57.7216 124.838 55.9088 123.767C54.0959 122.697 52.7817 120.951 52.2546 118.912L37.4655 61.46C36.9429 59.4205 37.2507 57.257 38.3213 55.4441C39.3919 53.6312 41.1379 52.3171 43.1763 51.7899L113.747 33.6238C115.787 33.1012 117.951 33.409 119.763 34.4796C121.576 35.5503 122.89 37.2963 123.418 39.3346L138.207 96.7868C138.729 98.8263 138.421 100.99 137.351 102.803C136.28 104.616 134.534 105.93 132.496 106.457ZM43.4092 52.6947C41.6107 53.1598 40.0701 54.3194 39.1254 55.919C38.1808 57.5186 37.9092 59.4275 38.3702 61.2271L53.1593 118.679C53.6245 120.478 54.784 122.018 56.3836 122.963C57.9832 123.908 59.8922 124.179 61.6918 123.718L132.263 105.552C134.062 105.087 135.602 103.927 136.547 102.328C137.491 100.728 137.763 98.8193 137.302 97.0197L122.513 39.5675C122.048 37.769 120.888 36.2284 119.288 35.2837C117.689 34.3391 115.78 34.0675 113.98 34.5285L43.4092 52.6947Z" fill="#E6E6E6"/>
<path d="M110.167 52.9412L74.5509 62.1094C74.2395 62.1963 73.9067 62.1618 73.6198 62.0127C73.3329 61.8637 73.1133 61.6113 73.0054 61.3066C72.9552 61.1474 72.9379 60.9796 72.9546 60.8136C72.9714 60.6475 73.0218 60.4865 73.1028 60.3406C73.1838 60.1946 73.2936 60.0667 73.4257 59.9646C73.5578 59.8625 73.7093 59.7884 73.8709 59.7467L110.126 50.4141C111.591 51.1561 111.206 52.6738 110.167 52.9412Z" fill="#F2F2F2"/>
<path d="M111.775 59.1882L76.159 68.3564C75.8476 68.4434 75.5149 68.4088 75.228 68.2598C74.9411 68.1108 74.7215 67.8584 74.6135 67.5537C74.5633 67.3945 74.546 67.2267 74.5628 67.0606C74.5795 66.8945 74.6299 66.7336 74.7109 66.5876C74.7919 66.4417 74.9018 66.3137 75.0338 66.2116C75.1659 66.1095 75.3174 66.0354 75.4791 65.9938L111.734 56.6611C113.199 57.4032 112.814 58.9209 111.775 59.1882Z" fill="#F2F2F2"/>
<path d="M69.3752 73.8953L58.5054 76.6934C58.1504 76.7844 57.7738 76.7308 57.4583 76.5444C57.1427 76.3581 56.914 76.0541 56.8223 75.6993L53.5203 62.8721C53.4293 62.5171 53.4829 62.1405 53.6692 61.825C53.8556 61.5094 54.1595 61.2807 54.5144 61.189L65.3841 58.3909C65.7391 58.3 66.1157 58.3536 66.4312 58.54C66.7467 58.7263 66.9755 59.0302 67.0673 59.3849L70.3692 72.2121C70.4602 72.5671 70.4067 72.9438 70.2203 73.2593C70.0339 73.5749 69.73 73.8036 69.3752 73.8953Z" fill="#E6E6E6"/>
<path d="M114.965 72.0067L60.6074 85.9991C60.2961 86.086 59.9633 86.0515 59.6764 85.9025C59.3895 85.7534 59.1699 85.5011 59.062 85.1963C59.0117 85.0371 58.9945 84.8694 59.0112 84.7033C59.0279 84.5372 59.0783 84.3763 59.1593 84.2303C59.2403 84.0843 59.3502 83.9564 59.4823 83.8543C59.6143 83.7522 59.7658 83.6781 59.9275 83.6365L114.924 69.4795C116.388 70.2216 116.003 71.7394 114.965 72.0067Z" fill="#F2F2F2"/>
<path d="M116.573 78.2557L62.2161 92.2481C61.9047 92.335 61.572 92.3005 61.2851 92.1515C60.9982 92.0024 60.7786 91.7501 60.6706 91.4453C60.6204 91.2861 60.6031 91.1184 60.6198 90.9523C60.6366 90.7862 60.687 90.6253 60.768 90.4793C60.849 90.3333 60.9588 90.2054 61.0909 90.1033C61.223 90.0012 61.3745 89.9271 61.5361 89.8855L116.533 75.7285C117.997 76.4706 117.612 77.9884 116.573 78.2557Z" fill="#F2F2F2"/>
<path d="M118.181 84.5008L63.8236 98.4932C63.5123 98.5801 63.1795 98.5456 62.8926 98.3966C62.6057 98.2476 62.3861 97.9952 62.2782 97.6904C62.2279 97.5313 62.2106 97.3635 62.2274 97.1974C62.2441 97.0313 62.2945 96.8704 62.3755 96.7244C62.4565 96.5784 62.5664 96.4505 62.6985 96.3484C62.8305 96.2463 62.982 96.1722 63.1437 96.1306L118.14 81.9736C119.605 82.7157 119.219 84.2335 118.181 84.5008Z" fill="#F2F2F2"/>
<path d="M119.789 90.7499L65.4322 104.742C65.1208 104.829 64.788 104.795 64.5011 104.646C64.2142 104.497 63.9946 104.244 63.8867 103.939C63.8364 103.78 63.8192 103.613 63.8359 103.446C63.8526 103.28 63.903 103.119 63.984 102.973C64.065 102.827 64.1749 102.7 64.307 102.597C64.439 102.495 64.5905 102.421 64.7522 102.38L119.749 88.2227C121.213 88.9647 120.828 90.4825 119.789 90.7499Z" fill="#F2F2F2"/>
<path d="M121.397 96.995L67.0399 110.987C66.7286 111.074 66.3958 111.04 66.1089 110.891C65.822 110.742 65.6024 110.489 65.4945 110.185C65.4442 110.025 65.427 109.858 65.4437 109.692C65.4604 109.525 65.5108 109.365 65.5918 109.219C65.6728 109.073 65.7827 108.945 65.9148 108.843C66.0468 108.74 66.1983 108.666 66.36 108.625L121.356 94.4678C122.821 95.2098 122.436 96.7276 121.397 96.995Z" fill="#F2F2F2"/>
<path d="M63.9907 154.472C63.7931 154.523 63.5843 154.509 63.3956 154.431L63.3839 154.426L60.9122 153.378C60.7975 153.33 60.6935 153.259 60.6061 153.17C60.5187 153.081 60.4497 152.976 60.403 152.861C60.3564 152.745 60.3329 152.622 60.334 152.497C60.3351 152.373 60.3608 152.25 60.4095 152.135C60.4583 152.02 60.5291 151.916 60.6181 151.829C60.707 151.742 60.8123 151.673 60.9278 151.627C61.0434 151.58 61.167 151.557 61.2915 151.558C61.4161 151.56 61.5392 151.585 61.6537 151.634L63.2553 152.316L65.3541 147.378C65.4028 147.264 65.4735 147.16 65.5623 147.073C65.6511 146.986 65.7561 146.917 65.8715 146.871C65.9868 146.824 66.1102 146.801 66.2346 146.802C66.359 146.803 66.4819 146.829 66.5964 146.877L66.5841 146.91L66.5972 146.877C66.8283 146.976 67.0108 147.162 67.1047 147.395C67.1986 147.628 67.1962 147.889 67.0981 148.12L64.629 153.925C64.5717 154.059 64.4844 154.178 64.3738 154.272C64.2632 154.367 64.1323 154.435 63.9912 154.471L63.9907 154.472Z" fill="white"/>
<path d="M216.035 217.063H95.5159C91.4289 217.059 87.5107 215.433 84.6208 212.543C81.7309 209.653 80.1053 205.735 80.1007 201.648V60.1086C80.1053 56.0216 81.7309 52.1034 84.6208 49.2135C87.5107 46.3236 91.4289 44.698 95.5159 44.6934H207.639L231.45 63.6722V201.648C231.445 205.735 229.82 209.653 226.93 212.543C224.04 215.433 220.122 217.059 216.035 217.063Z" fill="#E6E6E6"/>
<path d="M95.5158 49.1309C92.6054 49.1341 89.8152 50.2917 87.7572 52.3497C85.6992 54.4077 84.5416 57.1979 84.5383 60.1083V201.648C84.5416 204.558 85.6992 207.348 87.7572 209.406C89.8152 211.464 92.6054 212.622 95.5158 212.625H216.035C218.945 212.622 221.735 211.464 223.793 209.406C225.851 207.348 227.009 204.558 227.012 201.648V65.8099L206.087 49.1309H95.5158Z" fill="white"/>
<path d="M192.594 90.2874H137.723C137.042 90.2874 136.389 90.0169 135.908 89.5355C135.427 89.0541 135.156 88.4012 135.156 87.7204C135.156 87.0395 135.427 86.3866 135.908 85.9052C136.389 85.4238 137.042 85.1533 137.723 85.1533H192.594C193.275 85.1533 193.927 85.4238 194.409 85.9052C194.89 86.3866 195.161 87.0395 195.161 87.7204C195.161 88.4012 194.89 89.0541 194.409 89.5355C193.927 90.0169 193.275 90.2874 192.594 90.2874Z" fill="#C77DFA"/>
<path d="M203.183 98.9505H137.723C137.043 98.9496 136.391 98.6787 135.91 98.1974C135.43 97.7161 135.16 97.0637 135.16 96.3834C135.16 95.7032 135.43 95.0508 135.91 94.5695C136.391 94.0882 137.043 93.8173 137.723 93.8164H203.183C203.52 93.816 203.854 93.882 204.166 94.0108C204.478 94.1396 204.761 94.3286 205 94.5671C205.239 94.8055 205.428 95.0886 205.558 95.4003C205.687 95.7119 205.753 96.046 205.753 96.3834C205.753 96.7208 205.687 97.0549 205.558 97.3666C205.428 97.6783 205.239 97.9614 205 98.1998C204.761 98.4383 204.478 98.6273 204.166 98.7561C203.854 98.8849 203.52 98.9509 203.183 98.9505Z" fill="#C77DFA"/>
<path d="M192.594 123.979H137.725C137.045 123.979 136.392 124.249 135.91 124.73C135.429 125.212 135.158 125.865 135.158 126.545C135.158 127.226 135.429 127.879 135.91 128.36C136.392 128.842 137.045 129.112 137.725 129.112H192.594C193.275 129.112 193.928 128.842 194.409 128.36C194.89 127.879 195.161 127.226 195.161 126.545C195.161 125.865 194.89 125.212 194.409 124.73C193.928 124.249 193.275 123.979 192.594 123.979Z" fill="#CCCCCC"/>
<path d="M203.184 132.644H137.725C137.045 132.644 136.392 132.914 135.91 133.395C135.429 133.877 135.158 134.53 135.158 135.21C135.158 135.891 135.429 136.544 135.91 137.025C136.392 137.507 137.045 137.777 137.725 137.777H203.184C203.865 137.777 204.517 137.507 204.999 137.025C205.48 136.544 205.751 135.891 205.751 135.21C205.751 134.53 205.48 133.877 204.999 133.395C204.517 132.914 203.865 132.644 203.184 132.644Z" fill="#CCCCCC"/>
<path d="M192.594 167.94H137.723C137.042 167.94 136.389 167.669 135.908 167.188C135.427 166.706 135.156 166.054 135.156 165.373C135.156 164.692 135.427 164.039 135.908 163.558C136.389 163.076 137.042 162.806 137.723 162.806H192.594C193.275 162.806 193.927 163.076 194.409 163.558C194.89 164.039 195.161 164.692 195.161 165.373C195.161 166.054 194.89 166.706 194.409 167.188C193.927 167.669 193.275 167.94 192.594 167.94Z" fill="#CCCCCC"/>
<path d="M203.183 176.604H137.723C137.043 176.603 136.391 176.332 135.91 175.851C135.43 175.369 135.16 174.717 135.16 174.037C135.16 173.357 135.43 172.704 135.91 172.223C136.391 171.742 137.043 171.471 137.723 171.47H203.183C203.52 171.469 203.854 171.535 204.166 171.664C204.478 171.793 204.761 171.982 205 172.22C205.239 172.459 205.428 172.742 205.558 173.054C205.687 173.365 205.753 173.699 205.753 174.037C205.753 174.374 205.687 174.708 205.558 175.02C205.428 175.332 205.239 175.615 205 175.853C204.761 176.092 204.478 176.281 204.166 176.409C203.854 176.538 203.52 176.604 203.183 176.604Z" fill="#CCCCCC"/>
<path d="M114.874 101.125C119.885 101.125 123.947 97.0625 123.947 92.0516C123.947 87.0407 119.885 82.9785 114.874 82.9785C109.863 82.9785 105.801 87.0407 105.801 92.0516C105.801 97.0625 109.863 101.125 114.874 101.125Z" fill="#C77DFA"/>
<path d="M113.975 95.5128C113.771 95.5132 113.572 95.4471 113.409 95.3247L113.398 95.3171L111.266 93.6859C111.167 93.6103 111.084 93.5159 111.021 93.4082C110.959 93.3004 110.918 93.1813 110.902 93.0578C110.885 92.9343 110.893 92.8087 110.925 92.6883C110.958 92.5679 111.013 92.455 111.089 92.3562C111.165 92.2573 111.259 92.1743 111.367 92.112C111.475 92.0497 111.594 92.0093 111.718 91.9931C111.842 91.9769 111.967 91.9853 112.087 92.0177C112.208 92.0501 112.32 92.1059 112.419 92.1819L113.8 93.241L117.064 88.9832C117.14 88.8845 117.234 88.8016 117.342 88.7394C117.449 88.6772 117.568 88.6368 117.692 88.6205C117.815 88.6042 117.94 88.6123 118.06 88.6445C118.181 88.6766 118.293 88.7321 118.392 88.8078L118.372 88.8361L118.393 88.808C118.592 88.9611 118.722 89.1869 118.755 89.4359C118.788 89.6849 118.721 89.9368 118.568 90.1362L114.729 95.1421C114.64 95.2575 114.526 95.3508 114.395 95.4149C114.265 95.479 114.121 95.5121 113.975 95.5117L113.975 95.5128Z" fill="white"/>
<path d="M124.879 130.878C124.88 132.07 124.646 133.25 124.19 134.351C123.734 135.452 123.066 136.452 122.224 137.295C121.381 138.138 120.381 138.807 119.28 139.263C118.179 139.719 116.999 139.954 115.808 139.954C115.73 139.956 115.652 139.953 115.574 139.945C113.79 139.899 112.059 139.328 110.598 138.304C109.137 137.279 108.01 135.846 107.359 134.185C106.709 132.523 106.562 130.706 106.938 128.962C107.315 127.218 108.197 125.623 109.475 124.377C110.753 123.132 112.371 122.291 114.124 121.96C115.878 121.629 117.69 121.823 119.334 122.517C120.978 123.21 122.381 124.374 123.368 125.861C124.354 127.348 124.88 129.093 124.879 130.878Z" fill="#CCCCCC"/>
<path d="M114.874 178.778C119.885 178.778 123.947 174.716 123.947 169.705C123.947 164.694 119.885 160.632 114.874 160.632C109.863 160.632 105.801 164.694 105.801 169.705C105.801 174.716 109.863 178.778 114.874 178.778Z" fill="#CCCCCC"/>
<path d="M230.986 64.2828H212.334C210.973 64.2828 209.667 63.7419 208.704 62.779C207.741 61.8162 207.2 60.5103 207.2 59.1487V45.3726C207.2 45.3123 207.217 45.2532 207.249 45.2021C207.281 45.151 207.327 45.11 207.382 45.0838C207.436 45.0575 207.496 45.0471 207.556 45.0537C207.616 45.0603 207.673 45.0837 207.72 45.1211L231.186 63.7104C231.238 63.7517 231.276 63.8083 231.294 63.8723C231.313 63.9363 231.311 64.0044 231.289 64.0674C231.267 64.1303 231.227 64.1848 231.172 64.2234C231.118 64.262 231.053 64.2828 230.986 64.2828Z" fill="#CCCCCC"/>
<path d="M124.879 130.877C124.88 132.069 124.645 133.249 124.19 134.35C123.734 135.451 123.066 136.452 122.224 137.294C121.381 138.137 120.381 138.806 119.28 139.262C118.179 139.718 116.999 139.953 115.808 139.953C115.73 139.955 115.652 139.952 115.574 139.944C114.402 137.02 113.95 133.858 114.257 130.723C114.563 127.588 115.619 124.573 117.335 121.932C119.446 122.293 121.361 123.39 122.741 125.027C124.122 126.664 124.879 128.736 124.879 130.877Z" fill="#C77DFA"/>
<path d="M135.156 126.548C135.157 125.867 135.428 125.214 135.91 124.732C136.392 124.251 137.044 123.98 137.725 123.979H151.398C152.197 125.603 152.764 127.331 153.084 129.112H137.725C137.045 129.112 136.392 128.842 135.91 128.361C135.429 127.88 135.158 127.228 135.156 126.548Z" fill="#C77DFA"/>
<path d="M153.402 132.644C153.403 134.377 153.174 136.104 152.72 137.777H137.725C137.045 137.777 136.392 137.507 135.91 137.025C135.429 136.544 135.158 135.891 135.158 135.21C135.158 134.53 135.429 133.877 135.91 133.395C136.392 132.914 137.045 132.644 137.725 132.644H153.402Z" fill="#C77DFA"/>
<path d="M187.232 164.303C186.845 164.938 186.222 165.393 185.499 165.568C184.777 165.743 184.015 165.624 183.38 165.237L150.679 145.29C150.365 145.099 150.091 144.847 149.874 144.55C149.657 144.252 149.501 143.915 149.414 143.557C149.328 143.2 149.312 142.828 149.369 142.465C149.426 142.101 149.554 141.752 149.746 141.438C149.937 141.124 150.189 140.85 150.486 140.633C150.784 140.416 151.121 140.26 151.478 140.174C151.836 140.087 152.207 140.072 152.571 140.128C152.935 140.185 153.284 140.313 153.598 140.505L186.299 160.451C186.934 160.838 187.388 161.462 187.563 162.184C187.738 162.906 187.619 163.669 187.232 164.303Z" fill="#3F3D56"/>
<path d="M154.531 144.358C152.222 148.144 148.842 151.16 144.818 153.025C140.795 154.89 136.309 155.52 131.927 154.835C127.546 154.15 123.466 152.182 120.203 149.178C116.94 146.175 114.641 142.271 113.597 137.961C112.553 133.651 112.81 129.128 114.337 124.965C115.863 120.801 118.59 117.183 122.172 114.569C125.754 111.955 130.031 110.462 134.462 110.279C138.893 110.096 143.279 111.23 147.065 113.54C152.136 116.641 155.771 121.627 157.17 127.405C158.57 133.182 157.621 139.279 154.531 144.358ZM121.032 123.925C119.3 126.764 118.449 130.054 118.587 133.377C118.724 136.7 119.844 139.908 121.804 142.594C123.765 145.281 126.478 147.326 129.601 148.471C132.724 149.616 136.116 149.809 139.348 149.026C142.581 148.243 145.509 146.518 147.761 144.071C150.014 141.624 151.49 138.564 152.004 135.278C152.517 131.992 152.045 128.628 150.646 125.61C149.247 122.592 146.985 120.057 144.146 118.325C140.337 116.008 135.764 115.296 131.431 116.346C127.098 117.396 123.358 120.121 121.032 123.925Z" fill="#3F3D56"/>
<path d="M226.371 136.276C232.708 136.276 237.844 131.14 237.844 124.803C237.844 118.467 232.708 113.33 226.371 113.33C220.035 113.33 214.898 118.467 214.898 124.803C214.898 131.14 220.035 136.276 226.371 136.276Z" fill="#A0616A"/>
<path d="M225.63 189.123C225.408 188.433 225.335 187.705 225.415 186.985C225.495 186.266 225.726 185.571 226.093 184.947C226.46 184.323 226.955 183.783 227.545 183.364C228.135 182.944 228.807 182.654 229.517 182.512C229.742 182.468 229.97 182.44 230.199 182.428L242.284 163.032L231.245 152.537C230.823 152.136 230.485 151.655 230.25 151.123C230.015 150.591 229.888 150.017 229.876 149.435C229.864 148.853 229.967 148.275 230.18 147.733C230.392 147.191 230.71 146.697 231.115 146.279C231.52 145.861 232.004 145.527 232.538 145.297C233.073 145.067 233.647 144.945 234.229 144.938C234.811 144.931 235.389 145.04 235.929 145.257C236.468 145.475 236.96 145.797 237.374 146.206L252.616 161.235L252.647 161.273C253.118 161.99 253.346 162.84 253.296 163.697C253.246 164.554 252.921 165.372 252.369 166.03L235.436 186.057C235.486 186.218 235.528 186.381 235.562 186.546C235.703 187.256 235.693 187.988 235.532 188.694C235.371 189.4 235.063 190.064 234.627 190.642C234.192 191.221 233.639 191.701 233.005 192.051C232.371 192.401 231.671 192.613 230.949 192.673C230.803 192.686 230.658 192.692 230.514 192.692C229.427 192.687 228.37 192.34 227.493 191.699C226.616 191.058 225.964 190.156 225.63 189.123Z" fill="#A0616A"/>
<path d="M207.475 284.481L201.748 284.48L199.024 262.391L207.476 262.391L207.475 284.481Z" fill="#A0616A"/>
<path d="M208.935 290.032L190.47 290.031V289.798C190.47 288.854 190.655 287.919 191.017 287.047C191.378 286.175 191.907 285.383 192.575 284.715C193.242 284.048 194.034 283.519 194.906 283.157C195.778 282.796 196.713 282.61 197.657 282.61L208.936 282.611L208.935 290.032Z" fill="#2F2E41"/>
<path d="M264.397 276.563L259.476 279.493L245.834 261.907L253.096 257.583L264.397 276.563Z" fill="#A0616A"/>
<path d="M268.492 280.585L252.626 290.032L252.506 289.832C252.023 289.021 251.705 288.123 251.569 287.188C251.433 286.254 251.483 285.303 251.715 284.388C251.947 283.473 252.357 282.613 252.921 281.856C253.485 281.1 254.193 280.462 255.004 279.979L264.695 274.209L268.492 280.585Z" fill="#2F2E41"/>
<path d="M198.301 274.753C194.465 229.579 192.183 187.613 206.207 170.493L206.315 170.36L229.917 179.801L229.956 179.886C230.036 180.059 237.885 197.325 236.054 208.938L241.876 235.718L260.858 267.502C261.011 267.758 261.107 268.043 261.141 268.339C261.176 268.635 261.146 268.935 261.056 269.219C260.965 269.503 260.815 269.764 260.616 269.986C260.417 270.208 260.173 270.384 259.9 270.504L251.651 274.134C251.185 274.336 250.662 274.364 250.178 274.213C249.693 274.061 249.28 273.741 249.012 273.309L228.363 239.638L216.7 213.813C216.637 213.673 216.529 213.557 216.394 213.484C216.258 213.411 216.102 213.385 215.951 213.41C215.799 213.434 215.659 213.508 215.553 213.619C215.447 213.731 215.381 213.874 215.365 214.027L208.9 274.799C208.846 275.315 208.602 275.793 208.216 276.141C207.83 276.488 207.329 276.68 206.809 276.679H200.397C199.87 276.676 199.364 276.477 198.977 276.121C198.589 275.764 198.349 275.277 198.301 274.753Z" fill="#2F2E41"/>
<path d="M206.286 170.851L206.174 170.798L206.156 170.674C205.275 164.503 206.318 157.647 209.258 150.296C210.707 146.698 213.4 143.74 216.847 141.961C220.294 140.183 224.266 139.702 228.038 140.606C230.21 141.141 232.248 142.122 234.022 143.486C235.796 144.85 237.267 146.568 238.343 148.53C239.404 150.472 240.051 152.614 240.242 154.819C240.433 157.024 240.163 159.245 239.451 161.341C235.745 172.178 230.937 182.318 230.889 182.42L230.788 182.631L206.286 170.851Z" fill="#C77DFA"/>
<path d="M180.536 155.481C181.104 155.033 181.761 154.709 182.463 154.532C183.165 154.355 183.896 154.328 184.609 154.453C185.322 154.578 186.001 154.853 186.601 155.259C187.2 155.664 187.708 156.192 188.089 156.808C188.209 157.003 188.315 157.207 188.406 157.417L210.807 161.944L216.771 147.929C216.999 147.393 217.331 146.908 217.747 146.502C218.164 146.095 218.657 145.775 219.197 145.56C219.738 145.345 220.316 145.239 220.898 145.249C221.48 145.258 222.054 145.383 222.588 145.616C223.121 145.848 223.603 146.185 224.006 146.605C224.409 147.025 224.724 147.52 224.934 148.063C225.144 148.606 225.245 149.185 225.23 149.767C225.215 150.348 225.085 150.922 224.848 151.453L216.108 170.993L216.083 171.035C215.577 171.728 214.86 172.239 214.04 172.492C213.219 172.745 212.339 172.727 211.53 172.441L186.841 163.593C186.708 163.696 186.57 163.793 186.428 163.882C185.812 164.263 185.123 164.51 184.405 164.607C183.688 164.703 182.958 164.647 182.263 164.441C181.569 164.236 180.926 163.886 180.376 163.415C179.826 162.944 179.382 162.362 179.073 161.707C179.01 161.575 178.953 161.441 178.903 161.306C178.527 160.287 178.482 159.175 178.775 158.129C179.068 157.083 179.685 156.156 180.536 155.481Z" fill="#A0616A"/>
<path d="M267.819 137.09C266.713 135.132 265.103 133.339 262.975 132.615C260.226 131.68 257.249 132.675 254.423 133.34C252.246 133.852 249.971 134.165 247.776 133.733C245.581 133.301 243.464 132.024 242.465 130.022C240.996 127.078 242.234 123.566 242.144 120.277C242.098 118.486 241.647 116.729 240.823 115.139C239.999 113.548 238.825 112.165 237.389 111.094C235.954 110.023 234.293 109.292 232.534 108.956C230.774 108.62 228.962 108.688 227.232 109.154C224.526 108.373 222.075 108.301 220.402 110.381C218.295 110.381 216.276 111.218 214.786 112.707C213.297 114.197 212.46 116.216 212.46 118.323H220.054C219.694 120.259 220.105 122.259 221.2 123.896C222.541 125.865 224.871 127.29 225.32 129.629C225.755 131.897 224.214 134.048 222.597 135.696C220.981 137.344 219.105 138.977 218.601 141.23C218.291 142.94 218.642 144.703 219.583 146.165C220.522 147.608 221.687 148.891 223.033 149.965C229.099 155.162 236.308 158.85 244.072 160.728C249.539 162.044 255.519 162.385 260.595 159.964C262.625 158.995 264.434 157.619 265.911 155.922C267.387 154.224 268.498 152.241 269.175 150.096C269.853 147.951 270.082 145.69 269.849 143.452C269.615 141.215 268.924 139.049 267.819 137.09Z" fill="#2F2E41"/>
<path d="M269.533 290.518H180.779C180.655 290.518 180.536 290.469 180.448 290.381C180.361 290.294 180.312 290.175 180.312 290.051C180.312 289.927 180.361 289.808 180.448 289.721C180.536 289.633 180.655 289.584 180.779 289.584H269.533C269.657 289.584 269.776 289.633 269.863 289.721C269.951 289.808 270 289.927 270 290.051C270 290.175 269.951 290.294 269.863 290.381C269.776 290.469 269.657 290.518 269.533 290.518Z" fill="#7209B7"/>
</g>
<defs>
<clipPath id="clip0_74_18">
<rect width="270" height="290.518" fill="white"/>
</clipPath>
</defs>
</svg>
