<svg width="104" height="104" viewBox="0 0 104 104" fill="none" xmlns="http://www.w3.org/2000/svg">
<path d="M0.153809 26.1222C0.153809 11.7803 11.7803 0.153809 26.1222 0.153809H78.0591C92.4011 0.153809 104.028 11.7803 104.028 26.1222V78.0591C104.028 92.4011 92.4011 104.028 78.0591 104.028H26.1222C11.7803 104.028 0.153809 92.4011 0.153809 78.0591V26.1222Z" fill="#C77DFA"/>
<path d="M0.67334 26.1206C0.67334 12.0653 12.0671 0.671509 26.1224 0.671509H78.0593C92.1141 0.671509 103.508 12.0653 103.508 26.1206V78.0575C103.508 92.1123 92.1141 103.507 78.0593 103.507H26.1224C12.0671 103.507 0.67334 92.1123 0.67334 78.0575V26.1206Z" stroke="#171E34" stroke-width="1.05074"/>
<mask id="mask0_360_229" style="mask-type:luminance" maskUnits="userSpaceOnUse" x="21" y="21" width="62" height="62">
<path d="M82.2137 21.2505H21.2744V82.1898H82.2137V21.2505Z" fill="white"/>
</mask>
<g mask="url(#mask0_360_229)">
<path d="M59.693 27.6379C59.693 26.7995 59.0135 26.1195 58.1751 26.1195H42.0922C41.2538 26.1195 40.5743 26.7991 40.5743 27.6379V37.2908C40.5743 38.1296 41.2538 38.8092 42.0922 38.8092H56.6567V43.0976L42.0922 57.6671L38.3412 53.9143C38.0231 53.5962 37.5781 53.436 37.1326 53.4752C36.6848 53.5154 36.2776 53.7518 36.0209 54.1211L21.546 74.9379C21.2233 75.4014 21.1854 76.0066 21.4472 76.5075C21.7089 77.0084 22.2274 77.3223 22.7925 77.3223H80.6912C80.6931 77.3223 80.6945 77.3223 80.6954 77.3223C81.5338 77.3223 82.2133 76.6428 82.2133 75.8044C82.2133 75.4434 82.0878 75.1119 81.8772 74.8511L59.6926 43.2467V27.6379H59.693ZM43.6106 35.7724V29.1563H56.6567V35.7724H43.6106ZM25.6972 74.286L37.477 57.3444L41.0184 60.8877C41.3032 61.1721 41.6896 61.3322 42.0922 61.3322C42.4948 61.3322 42.8812 61.1721 43.166 60.8877L57.971 46.0776L77.7712 74.286H25.6972Z" fill="#1C1635"/>
</g>
</svg>
