<svg width="98" height="98" viewBox="0 0 98 98" fill="none" xmlns="http://www.w3.org/2000/svg">
<path d="M49.8761 63.972C58.661 63.972 65.7825 56.8504 65.7825 48.0656C65.7825 39.2807 58.661 32.1592 49.8761 32.1592C41.0913 32.1592 33.9697 39.2807 33.9697 48.0656C33.9697 56.8504 41.0913 63.972 49.8761 63.972Z" fill="#A0616A"/>
<path d="M36.71 67.5336L40.0258 59.0599L57.1573 56.481L58.998 75.2385L41.6822 75.6069L36.71 67.5336Z" fill="#A0616A"/>
<path d="M65.9371 51.0001C65.7306 51.8272 65.3133 53.7964 64.6616 53.8061C64.1292 53.8138 63.6196 45.2708 64.1514 43.8577C64.7624 42.2343 63.1569 40.1807 61.9475 39.1266C59.7731 37.2311 54.9462 41.3011 50.0381 39.4574C49.908 39.4086 49.9339 39.4141 48.384 38.7957C43.6149 36.8929 43.3642 36.838 43.0909 36.8108C40.779 36.5821 37.9575 38.474 36.8054 40.7806C35.6077 43.1784 36.6084 45.2351 35.4821 51.036C35.3509 51.7122 35.1448 52.6759 34.8205 52.6901C34.2277 52.7159 33.6488 49.5496 33.4972 48.7203C32.8621 45.2457 32.2497 41.8959 33.4972 38.1341C33.6333 37.7238 34.472 36.2009 36.1438 33.1718C38.5522 28.8082 39.7635 26.6182 40.1136 26.2247C42.6241 23.4014 47.1938 20.826 51.0305 21.9241C52.9697 22.4791 52.622 23.3714 55.0004 24.2398C59.2387 25.7872 62.9223 23.8947 63.6016 25.2322C63.9615 25.9407 62.9546 26.5248 62.94 27.8788C62.9149 30.2019 65.8531 30.8732 67.5714 33.1718C68.4951 34.4076 70.0762 34.4208 65.9371 51.0001Z" fill="#2F2E41"/>
<path d="M85.6434 81.5337C85.0023 82.254 84.3373 82.9595 83.6484 83.6485C74.3936 92.9031 62.0883 98.0002 49.0002 98.0002C37.6878 98.0002 26.9612 94.1926 18.2831 87.1834C18.2775 87.1798 18.2738 87.1761 18.2684 87.1705C17.117 86.2422 16.0026 85.2548 14.9268 84.2121C14.947 84.0501 14.9691 83.8898 14.993 83.7313C15.1441 82.6629 15.3118 81.6442 15.4996 80.7066C17.0378 73.0214 37.277 64.953 37.8039 64.7429C37.8112 64.7411 37.8149 64.7393 37.8149 64.7393C37.8149 64.7393 40.4197 74.3403 51.581 74.2169C59.1833 74.134 57.7097 64.7393 57.7097 64.7393C57.7097 64.7393 57.8018 64.7576 57.9749 64.7945C60.1707 65.2606 75.416 68.6095 81.4305 73.1798C83.2633 74.5724 84.5786 77.5383 85.5236 81.075C85.5641 81.2261 85.6028 81.3808 85.6434 81.5337Z" fill="#7209B7"/>
<path d="M83.6482 14.3519C74.3934 5.09727 62.0882 0 49 0C35.9118 0 23.6066 5.09727 14.3518 14.3519C5.09714 23.6066 0 35.9119 0 49C0 60.9462 4.24606 72.24 12.0271 81.1577C12.7695 82.0106 13.545 82.8413 14.3518 83.6483C14.5416 83.8379 14.7332 84.0277 14.9266 84.2119C16.0024 85.2546 17.1169 86.242 18.2682 87.1703C18.2737 87.1758 18.2774 87.1796 18.2829 87.1832C26.9611 94.1924 37.6876 98 49 98C62.0882 98 74.3934 92.9029 83.6482 83.6483C84.3371 82.9593 85.0021 82.2538 85.6432 81.5335C93.6324 72.5588 98 61.1156 98 49C98 35.9119 92.9029 23.6066 83.6482 14.3519ZM85.5234 81.0748C84.0737 82.7235 82.5153 84.2745 80.8574 85.7133C77.7129 88.4488 74.2129 90.7845 70.4384 92.6451C69.1139 93.299 67.7563 93.8939 66.3674 94.4264C60.9718 96.497 55.1158 97.6316 49 97.6316C43.0979 97.6316 37.4389 96.5743 32.2019 94.6401C30.0521 93.8479 27.9742 92.9067 25.9792 91.8289C25.6863 91.6706 25.3953 91.5104 25.1061 91.3465C23.5845 90.4842 22.1126 89.543 20.6998 88.5261C18.6753 87.0746 16.7668 85.4701 14.9929 83.7311C13.9982 82.7566 13.0476 81.7416 12.1395 80.6862C4.80607 72.1683 0.368421 61.0935 0.368421 49C0.368421 22.1846 22.1845 0.368421 49 0.368421C75.8155 0.368421 97.6316 22.1846 97.6316 49C97.6316 61.2795 93.0577 72.509 85.5234 81.0748Z" fill="#3F3D56"/>
</svg>
