<svg width="55" height="55" viewBox="0 0 55 55" fill="none" xmlns="http://www.w3.org/2000/svg">
<path d="M48.125 48.125L34.375 34.375M38.9583 22.9167C38.9583 25.0233 38.5434 27.1093 37.7372 29.0555C36.9311 31.0018 35.7494 32.7702 34.2598 34.2598C32.7702 35.7494 31.0018 36.9311 29.0555 37.7372C27.1093 38.5434 25.0233 38.9583 22.9167 38.9583C20.81 38.9583 18.7241 38.5434 16.7778 37.7372C14.8315 36.9311 13.0631 35.7494 11.5735 34.2598C10.0839 32.7702 8.90227 31.0018 8.0961 29.0555C7.28993 27.1093 6.875 25.0233 6.875 22.9167C6.875 18.6622 8.5651 14.5819 11.5735 11.5735C14.5819 8.5651 18.6622 6.875 22.9167 6.875C27.1712 6.875 31.2514 8.5651 34.2598 11.5735C37.2682 14.5819 38.9583 18.6622 38.9583 22.9167Z" stroke="#7209B7" stroke-width="4" stroke-linecap="round" stroke-linejoin="round"/>
</svg>
