<svg width="182" height="181" viewBox="0 0 182 181" fill="none" xmlns="http://www.w3.org/2000/svg">
<circle cx="90.8158" cy="90.4848" r="88.9848" fill="white" stroke="#7209B7" stroke-width="3"/>
<path fill-rule="evenodd" clip-rule="evenodd" d="M91.4998 103.5C77.6467 103.5 66.3809 92.2872 66.3809 78.4998C66.3809 64.7123 77.6467 53.4999 91.4998 53.4999C105.353 53.4999 116.619 64.7123 116.619 78.4998C116.619 92.2872 105.353 103.5 91.4998 103.5ZM115.099 107.706C125.065 99.7245 130.874 86.8181 128.739 72.6869C126.258 56.2933 112.556 43.1748 96.015 41.2624C73.1882 38.6186 53.8215 56.3061 53.8215 78.4998C53.8215 90.3122 59.3225 100.837 67.9006 107.706C46.8258 115.587 32.4114 131.525 30 156.5C32 158.5 32.5 159 35 161C36.513 162.21 38 163.5 40 164.5C42.5182 136.606 65.4829 116 91.4998 116C117.517 116 139.482 136.606 142 164.5C145 162 145 162 147.5 160.431C150.5 157.5 151 157.5 153 155.5C150.589 130.525 136.174 115.587 115.099 107.706Z" fill="#7209B7"/>
</svg>
