<svg width="106" height="106" viewBox="0 0 106 106" fill="none" xmlns="http://www.w3.org/2000/svg">
<path d="M1.14453 27.0659C1.14453 12.7485 12.7511 1.14197 27.0684 1.14197H78.9163C93.2337 1.14197 104.84 12.7485 104.84 27.0659V78.9137C104.84 93.2311 93.2337 104.838 78.9163 104.838H27.0684C12.7511 104.838 1.14453 93.2311 1.14453 78.9137V27.0659Z" fill="#C77DFA"/>
<path d="M1.66309 27.0642C1.66309 13.0331 13.0373 1.65881 27.0685 1.65881H78.9163C92.9475 1.65881 104.322 13.0331 104.322 27.0642V78.9121C104.322 92.9432 92.9475 104.318 78.9163 104.318H27.0685C13.0373 104.318 1.66309 92.9432 1.66309 78.9121V27.0642Z" fill="#C77DFA" stroke="#171E34" stroke-width="0.94992"/>
<path d="M48.7712 34.4956C49.9063 33.0784 51.9512 33.0024 53.1845 34.2665C54.4177 33.0024 56.4631 33.0784 57.5977 34.4956C58.596 35.7418 58.3785 37.577 57.2636 38.7199L54.0942 41.97C53.5955 42.4815 52.7734 42.4815 52.2747 41.97L49.1053 38.7199C47.9909 37.577 47.7729 35.7418 48.7712 34.4956ZM39.3432 32.5673L42.6439 34.4735C42.8439 34.5891 43.0628 34.6435 43.2781 34.6435C43.7177 34.6435 44.1445 34.4163 44.3805 34.008C44.7307 33.4001 44.5229 32.6231 43.915 32.2719L40.6138 30.3657C40.0054 30.0132 39.2289 30.2229 38.8777 30.8312C38.5274 31.4391 38.7353 32.2161 39.3432 32.5673ZM63.0899 34.6431C63.3056 34.6431 63.5241 34.5882 63.7241 34.473L67.0262 32.5668C67.6346 32.2157 67.8429 31.4386 67.4917 30.8307C67.1391 30.2229 66.3612 30.0141 65.7556 30.3653L62.4535 32.2714C61.8451 32.6226 61.6368 33.3996 61.988 34.0075C62.2239 34.4149 62.6507 34.6431 63.0899 34.6431ZM46.3654 29.8219C46.6009 30.2289 47.0282 30.4574 47.4674 30.4574C47.6826 30.4574 47.901 30.4026 48.1015 30.2874C48.7089 29.9362 48.9173 29.1592 48.567 28.5513L47.9315 27.4503C47.5789 26.8424 46.8046 26.6327 46.1954 26.9848C45.5879 27.336 45.3792 28.113 45.7299 28.7209L46.3654 29.8219ZM40.4769 37.8203C39.775 37.8203 39.2063 38.3885 39.2063 39.0909C39.2063 39.7933 39.775 40.3615 40.4769 40.3615H41.7475C42.4494 40.3615 43.0186 39.7933 43.0186 39.0909C43.0186 38.3885 42.4494 37.8203 41.7475 37.8203H40.4769ZM58.2674 30.2874C58.4674 30.4031 58.6859 30.4574 58.9015 30.4574C59.3412 30.4574 59.768 30.2289 60.0039 29.8219L60.639 28.7209C60.9902 28.113 60.7819 27.336 60.1735 26.9848C59.567 26.6336 58.7886 26.8424 58.4374 27.4503L57.8019 28.5513C57.4507 29.1592 57.6595 29.9362 58.2674 30.2874ZM65.892 37.8203H64.6214C63.919 37.8203 63.3508 38.3885 63.3508 39.0909C63.3508 39.7933 63.919 40.3615 64.6214 40.3615H65.892C66.5944 40.3615 67.1631 39.7933 67.1631 39.0909C67.1631 38.3885 66.5944 37.8203 65.892 37.8203ZM53.1845 28.9246C53.8864 28.9246 54.4551 28.3563 54.4551 27.654V23.8417C54.4551 23.1393 53.8864 22.571 53.1845 22.571C52.4825 22.571 51.9138 23.1393 51.9138 23.8417V27.654C51.9138 28.3563 52.4825 28.9246 53.1845 28.9246ZM62.0797 51.7985C62.0797 56.703 58.089 60.6937 53.1845 60.6937C48.2803 60.6937 44.2892 56.703 44.2892 51.7985C44.2892 46.8944 48.2803 42.9032 53.1845 42.9032C58.089 42.9032 62.0797 46.8944 62.0797 51.7985ZM56.9968 51.7985C56.9968 49.6932 55.2902 47.9862 53.1845 47.9862C51.0792 47.9862 49.3721 49.6932 49.3721 51.7985C49.3721 53.9042 51.0792 55.6108 53.1845 55.6108C55.2902 55.6108 56.9968 53.9042 56.9968 51.7985ZM80.8491 60.4015C80.1246 59.7535 79.2098 59.4231 78.2949 59.4231C77.3165 59.4231 76.3376 59.8042 75.6007 60.5416L61.688 74.4544C60.7349 75.4074 59.4417 75.943 58.0936 75.943H43.0186C41.6203 75.943 40.4769 74.7995 40.4769 73.4017H56.9968C59.1444 73.4017 60.8091 71.6735 60.8091 69.5894C60.8091 67.3906 58.9919 65.7771 56.9968 65.7771H47.6692C43.5011 65.7771 43.7933 61.9648 39.6381 61.9648H32.4204C31.0696 61.9648 29.7746 62.5012 28.8192 63.4562L24.7013 67.574C24.2248 68.0506 23.957 68.6972 23.957 69.371V74.6723C23.957 79.835 27.8002 84.0953 32.7831 84.7511C33.5846 84.8562 34.3971 84.5658 34.9584 83.9851C36.6494 82.2348 37.7905 81.0259 40.0446 81.0259H63.7826C65.1334 81.0259 66.4289 80.4894 67.3838 79.5345L80.8108 66.1075C82.3741 64.5443 82.4755 61.8883 80.8491 60.4015Z" fill="#1C1635"/>
</svg>
