<svg width="106" height="106" viewBox="0 0 106 106" fill="none" xmlns="http://www.w3.org/2000/svg">
<g clip-path="url(#clip0_360_253)">
<path d="M1.1377 26.1828C1.1377 11.6998 12.8785 -0.0410156 27.3615 -0.0410156H79.8091C94.2921 -0.0410156 106.033 11.6998 106.033 26.1828V78.6304C106.033 93.1134 94.2921 104.854 79.8091 104.854H27.3615C12.8785 104.854 1.1377 93.1134 1.1377 78.6304V26.1828Z" fill="#C77DFA"/>
<path d="M1.66211 26.1831C1.66211 11.9896 13.1679 0.483765 27.3614 0.483765H79.809C94.0025 0.483765 105.508 11.9896 105.508 26.1831V78.6307C105.508 92.8242 94.0025 104.33 79.809 104.33H27.3614C13.1679 104.33 1.66211 92.8242 1.66211 78.6307V26.1831Z" fill="#C77DFA" stroke="#171E34" stroke-width="0.911525"/>
<path d="M53.5854 40.0575L50.4679 45.4771C49.7686 46.672 50.3514 47.6626 51.7206 47.6626H55.4213C56.8199 47.6626 57.3733 48.6533 56.674 49.8477L53.5854 55.2673" stroke="#1C1635" stroke-width="3.79802" stroke-linecap="round" stroke-linejoin="round"/>
<path d="M42.8046 69.632V66.2521C36.1029 62.2022 30.5957 54.3057 30.5957 45.9145C30.5957 31.4912 43.8535 20.1863 58.8302 23.4497C65.4153 24.9066 71.1846 29.2772 74.1855 35.3084C80.2755 47.5457 73.8652 60.5411 64.4535 66.2231V69.6031C64.4535 70.4479 64.7743 72.4003 61.6563 72.4003H45.6018C42.3966 72.4292 42.8046 71.1765 42.8046 69.632Z" stroke="#1C1635" stroke-width="3.79802" stroke-linecap="round" stroke-linejoin="round"/>
<path d="M43.3877 81.1704C50.06 79.2767 57.1113 79.2767 63.784 81.1704" stroke="#1C1635" stroke-width="3.79802" stroke-linecap="round" stroke-linejoin="round"/>
</g>
<defs>
<clipPath id="clip0_360_253">
<rect width="106" height="106" fill="white"/>
</clipPath>
</defs>
</svg>
